<?xml version="1.0" encoding="utf-8"?>
<!-- Generator: Adobe Illustrator 15.0.0, SVG Export Plug-In . SVG Version: 6.00 Build 0)  -->
<!DOCTYPE svg PUBLIC "-//W3C//DTD SVG 1.1//EN" "http://www.w3.org/Graphics/SVG/1.1/DTD/svg11.dtd">
<svg version="1.1" id="Layer_1" xmlns="http://www.w3.org/2000/svg" xmlns:xlink="http://www.w3.org/1999/xlink" x="0px" y="0px"
	 width="64px" height="74px" viewBox="0 0 64 74" enable-background="new 0 0 64 74" xml:space="preserve">
<g id="icon-twitter">
	<g>
		<path fill="#B01817" d="M22.662,57.309c-4.604,0-9.124-1.386-13.453-3.684c0.086,0,0.162-0.114,0.247-0.114
			c2.668,0,7.852-0.636,12.704-4.528l0.93-0.771l-1.187-0.113c-0.066-0.01-6.675-0.616-8.677-6.085
			c0.237,0.019,0.522,0.019,0.844,0.019c1.158,0,2.212-0.143,3.124-0.407l1.927-0.571l-1.985-0.352
			c-0.294-0.057-7.082-1.348-7.68-8.811c0.759,0.313,2.003,0.732,3.228,0.732c0.237,0,0.484-0.02,0.712-0.047l1.111-0.171
			l-0.902-0.684c-0.275-0.208-6.646-5.136-3.076-12.105c2.003,2.146,10.149,10.16,20.365,10.16c0.17,0,0.352,0,0.523-0.009
			l0.579-0.019l-0.124-0.561c-0.076-0.323-1.662-7.938,5.802-11.299c0.398-0.18,1.841-0.759,3.825-0.759
			c2.715,0,5.156,1.063,7.235,3.162l0.171,0.171l0.237-0.038c0.653-0.104,3.323-0.75,5.753-2.231
			c-0.352,1.054-1.329,2.772-3.969,4.339l-1.642,0.977l1.908-0.095c0.113-0.009,2.373-0.123,4.632-0.987
			c-0.646,0.997-1.926,2.506-4.357,3.959l-0.256,0.152l0.027,0.304c0.02,0.142,1.32,14.859-11.107,24.485
			C40.046,51.402,32.792,57.309,22.662,57.309L22.662,57.309z"/>
		<path fill="#B01817" d="M41.488,17.613c2.583,0,4.909,1.017,6.902,3.029l0.343,0.342l0.475-0.076c0.028,0,2.183-0.38,4.576-1.548
			c-0.57,0.846-1.521,1.842-3.105,2.782l-3.284,1.956l3.816-0.19c0.095,0,1.547-0.085,3.313-0.55
			c-0.722,0.797-1.775,1.727-3.305,2.639l-0.512,0.313l0.056,0.598c0.02,0.143,1.273,14.384-10.937,23.849
			c-0.066,0.059-7.215,5.63-17.166,5.63c-3.94,0-7.813-0.862-11.554-2.581c2.924-0.237,7.254-1.226,11.346-4.51l1.861-1.5
			l-2.383-0.379c-0.058-0.011-5.821-0.552-7.985-5.299c0.038,0,0.076,0,0.123,0c1.207,0,2.298,0.047,3.257-0.237l3.883-1.054
			l-3.987-0.646c-0.275-0.047-6.267-1.139-7.207-7.604c0.76,0.257,1.718,0.503,2.668,0.503c0.275,0,0.532-0.009,0.788-0.048
			l2.23-0.332l-1.803-1.357c-0.256-0.2-5.962-4.586-3.229-10.89c2.649,2.715,10.511,9.807,20.223,9.807c0.181,0,0.361,0,0.542-0.009
			l1.148-0.027l-0.257-1.131c-0.065-0.303-1.604-7.547,5.526-10.756C38.241,18.164,39.608,17.613,41.488,17.613 M41.488,16.664
			c-1.804,0-3.266,0.465-4.017,0.808c-7.917,3.56-6.065,11.83-6.065,11.83c-0.172,0-0.343,0.009-0.514,0.009
			c-11.45,0-20.45-10.5-20.45-10.5c-4.51,7.728,2.886,13.292,2.886,13.292c-0.209,0.029-0.427,0.047-0.646,0.047
			c-1.823,0-3.741-1.007-3.741-1.007c0.18,8.64,8.107,10.027,8.107,10.027c-1.044,0.313-2.136,0.389-2.99,0.389
			c-0.892,0-1.519-0.085-1.519-0.085c1.804,6.484,9.314,7.082,9.314,7.082c-4.652,3.741-9.589,4.367-12.399,4.367
			c-1.434,0-2.316-0.161-2.316-0.161c5.544,3.399,10.842,4.575,15.522,4.575c10.425,0,17.754-5.838,17.754-5.838
			c12.788-9.912,11.288-24.685,11.288-24.685c4.32-2.583,5.157-5.354,5.157-5.354c-2.537,1.338-5.697,1.499-5.697,1.499
			c4.443-2.639,4.405-5.771,4.405-5.771c-2.705,1.984-6.057,2.715-6.503,2.781C46.502,17.386,43.739,16.664,41.488,16.664
			L41.488,16.664z"/>
	</g>
</g>
<g>
	<path fill="#B01817" d="M32,1.155l31,17.908v35.819L32,72.789L1,54.882V19.063L32,1.155 M32,0L0,18.486v36.973l32,18.485l32-18.485
		V18.486L32,0L32,0z"/>
</g>
</svg>
