<svg version="1.1" id="Layer_1" xmlns="http://www.w3.org/2000/svg" xmlns:xlink="http://www.w3.org/1999/xlink" x="0" y="0" width="36" height="36" viewBox="0 0 36 36" enable-background="new 0 0 36 36" xml:space="preserve"><path fill="#B01817" d="M28 1v22.16l-0.44 0.21 -0.54 0.35 0.04 0.57 0.18 1.47c-0.65 0.09-1.12 0.36-1.43 0.67 -0.26-0.05-0.5-0.08-0.72-0.08 -0.94 0-1.39 0.48-1.57 0.77 -0.29 0.46-0.29 0.97-0.21 1.38l-2.19 2.19c-0.82 0.46-1.38 1.34-1.71 2.03 -0.02 0-0.04 0-0.06 0l-0.12-0.25 -0.05-0.09 -0.06-0.08c-0.42-0.53-0.9-0.8-1.42-0.8 -0.96 0-1.56 0.91-1.79 1.75l-0.01 0.04 -0.01 0.04c-0.04 0.18-0.13 0.35-0.25 0.5 -0.06-0.12-0.12-0.24-0.17-0.36l-0.12-0.32L15.04 33c-0.24-0.14-0.51-0.22-0.79-0.22 -0.82 0-1.43 0.63-1.6 0.83l-0.29 0.33 0.05 0.41c-0.38-0.31-0.91-0.69-1.64-1.14l-0.49-0.3 -0.51 0.27c-0.44 0.23-0.88 0.35-1.32 0.35 -0.5 0-0.83-0.15-0.83-0.15h0l-0.25-0.13c0.07-0.19 0.1-0.39 0.1-0.59 0-0.15-0.02-0.29-0.05-0.43 1.14-0.94 1.79-2.25 2.05-2.86 1.5-1.05 1.4-2.13 1.36-2.35l-0.04-0.23 -0.34-0.19L10 26.26v-0.89 -0.51 -1.01 -0.61 -1.31 -0.77l0.99-19.18c0.36 0.08 0.82 0.13 1.18 0.13 1.43 0 2.55-0.68 3.06-1.12H28M29 0H14.83c0 0-0.94 1.12-2.56 1.12 -0.59 0-1.47-0.15-2.23-0.55L9 21.13v0.81 1.31 0.61 1.01 0.51 1.21l0.64 0.6c0 0 0.22 0.71-1.09 1.52 0 0-0.92 2.33-2.73 3.23 0 0 1.18 0.81-0.82 2.02v1.62c0 0 0.49 0.31 0.93 0.31 0.22 0 0.57-0.08 0.84-0.31 0 0-0.26-0.41 0.34-1.31 0 0 0.53 0.26 1.31 0.26 0.5 0 1.13-0.11 1.8-0.46 0 0 2.15 1.34 2.25 1.83 0.02 0.08 0.06 0.11 0.11 0.11 0.27 0 0.9-0.98 0.82-1.74 0 0 0.42-0.48 0.84-0.48 0.09 0 0.19 0.02 0.27 0.08 0 0 0.51 1.31 1.11 1.31 0 0 1.01-0.61 1.21-1.62 0 0 0.28-1.02 0.83-1.02 0.18 0 0.39 0.11 0.63 0.42l0.46 0.91c0 0 0.22-0.11 0.52-0.11 0.2 0 0.45 0.05 0.69 0.21 0 0 0.61-1.92 1.72-2.42l2.73-2.73c0 0-0.68-1.44 0.65-1.44 0.29 0 0.67 0.07 1.17 0.23 0 0 0.16-0.86 1.5-0.86 0.18 0 0.39 0.02 0.62 0.05l-0.19-2.63 0.82-0.5V0L29 0z"/></svg>
