<svg version="1.1" id="Layer_1" xmlns="http://www.w3.org/2000/svg" xmlns:xlink="http://www.w3.org/1999/xlink" x="0" y="0" width="64" height="74" viewBox="0 0 64 74" enable-background="new 0 0 64 74" xml:space="preserve">
  <path fill="none" stroke="#B01817" stroke-miterlimit="10" d="M41.39 32.53l-0.06-0.2c-0.24-0.79-0.82-1.29-1.42-1.1 0 0-4.41 1.65-6.41 2.21v-0.51c0-0.44 1.39-1.33 1.39-2.37 0-1.47-1.24-2.66-2.71-2.66 -1.47 0-2.91 1.19-2.91 2.67 0 1.04 0.23 1.94 1.23 2.38v0.52c-2-0.56-6.54-2.22-6.54-2.22 -0.6-0.18-1.16 0.31-1.4 1.1l0 0.2c-0.24 0.79 0.08 1.58 0.68 1.77 0 0 6.37 1.51 6.99 2.15 0.63 0.64 0.04 4.57-0.13 5.57s-4.03 8.53-4.03 8.53c-0.27 0.57 0.11 1.32 0.85 1.68l0.19 0.09c0.74 0.36 1.56 0.19 1.83-0.38 0 0 2.93-6.6 3.13-6.6 0.19 0 3.13 6.61 3.13 6.61 0.27 0.57 1.09 0.74 1.83 0.38l0.19-0.09c0.74-0.36 1.12-1.11 0.85-1.68 0 0-3.79-7.35-3.99-8.42 -0.2-1.07-0.57-5.18 0-5.77 0.57-0.58 6.69-2.06 6.69-2.06C41.34 34.12 41.63 33.33 41.39 32.53z"/>
  <path fill="#B01817" d="M57 19v36H7V19H57M58 18H6v38h52V18L58 18z"/>
  <line fill="none" stroke="#B01817" stroke-miterlimit="10" x1="6" y1="24.5" x2="58" y2="24.5"/>
  <circle fill="none" stroke="#B01817" stroke-miterlimit="10" cx="10" cy="21.4" r="0.4"/>
  <circle fill="none" stroke="#B01817" stroke-miterlimit="10" cx="13.2" cy="21.4" r="0.4"/>
  <circle fill="none" stroke="#B01817" stroke-miterlimit="10" cx="16.4" cy="21.4" r="0.4"/>
  <path fill="#B01817" d="M32 1.16l31 17.91v35.82L32 72.79 1 54.88V19.06L32 1.16M32 0L0 18.49v36.97l32 18.49 32-18.48V18.49L32 0 32 0z"/>
</svg>
