<svg version="1.1" xmlns="http://www.w3.org/2000/svg" x="0" y="0" width="64" height="64" viewBox="0 0 64 64" enable-background="new 0 0 64 64" xml:space="preserve">
<g id="icon-email"><rect x="8" y="17" fill="#666666" width="48" height="32"/>
    <title>Email Icon</title>
    <path fill="#161616" d="M55 17v31H9V17H55M56 16H8v33h48V16L56 16z"/><polygon fill="#666666" points="9.54 49 32.21 20.66 54.88 49 "/><path fill="#161616" d="M32.21 21.11l11.07 13.77L53.84 48H32.21 10.59l10.55-13.12L32.21 21.11M32.21 19.51L20.36 34.25 8.5 49h23.71 23.71L44.07 34.25 32.21 19.51 32.21 19.51z"/><polygon fill="#666666" points="9.71 17 54.57 17 32.14 39.9 "/><path fill="#161616" d="M53.38 17L43.23 27.39l-11.1 11.34 -11.1-11.35L10.89 17h21.24H53M55.76 16H32.14 8.52l11.81 12.09 11.81 12.07 11.81-12.08L55.76 16 55.76 16z"/>
</g>
</svg>