<?xml version="1.0" encoding="utf-8"?>
<!-- Generator: Adobe Illustrator 15.0.0, SVG Export Plug-In . SVG Version: 6.00 Build 0)  -->
<!DOCTYPE svg PUBLIC "-//W3C//DTD SVG 1.1//EN" "http://www.w3.org/Graphics/SVG/1.1/DTD/svg11.dtd">
<svg version="1.1" id="Layer_1" xmlns="http://www.w3.org/2000/svg" xmlns:xlink="http://www.w3.org/1999/xlink" x="0px" y="0px"
	 width="64px" height="74px" viewBox="0 0 64 74" enable-background="new 0 0 64 74" xml:space="preserve">
<g id="icon-linkedin">
	<g>
		<g>
			<path fill="#B01817" d="M14.995,25.319c-2.53,0-4.6-2.06-4.6-4.6c0-2.53,2.06-4.6,4.6-4.6s4.6,2.06,4.6,4.6
				C19.595,23.25,17.525,25.319,14.995,25.319z"/>
			<path fill="#B01817" d="M14.995,16.62c2.26,0,4.1,1.84,4.1,4.1c0,2.26-1.84,4.1-4.1,4.1c-2.26,0-4.1-1.84-4.1-4.1
				C10.895,18.459,12.735,16.62,14.995,16.62 M14.995,15.62c-2.82,0-5.1,2.28-5.1,5.1c0,2.82,2.28,5.1,5.1,5.1
				c2.82,0,5.1-2.28,5.1-5.1C20.095,17.899,17.805,15.62,14.995,15.62L14.995,15.62z"/>
		</g>
		<g>
			<rect x="10.105" y="29.379" fill="#B01817" width="10" height="28.001"/>
			<path fill="#B01817" d="M19.105,29.379v28.001h-8V29.379H19.105 M20.105,28.379h-10v30.001h10V28.379L20.105,28.379z"/>
		</g>
		<g>
			<path fill="#B01817" d="M45.104,57.381v-15.59c0-4.021-2.01-6.232-5.129-6.232c-2.971,0-4.871,2.69-4.871,5.212v16.609h-9V29.379
				h9v1.58c0,0.17-0.141,0.33,0,0.42c0.08,0.05,0.07,0.08,0.16,0.08c0.07,0,0.08-0.01,0.141-0.04c0.049-0.021,5.049-2.13,10.02-2.13
				c5.99,0,8.68,4.48,8.68,6.76v21.332H45.104z"/>
			<path fill="#B01817" d="M45.146,29.79c5.639,0,7.959,4.15,7.959,6.26v21.332h-8v-15.59c0-4.282-1.74-6.732-5.129-6.732
				c-3.301,0-4.871,2.94-4.871,5.712v16.609h-9V29.379h8v1.58c0,0.34,0.189,0.65,0.48,0.84c0.17,0.109,0.369,0.16,0.561,0.16
				c0.139,0,0.219-0.03,0.34-0.08C35.534,31.86,40.294,29.79,45.146,29.79 M45.124,28.79c-5.129,0-10.02,2.17-10.02,2.17v-2.58h-10
				v30.001h11c0,0,0-12.701,0-17.609c0-2.241,1.15-4.712,3.871-4.712c3.369,0,4.129,2.812,4.129,5.732c0,4.76,0,16.59,0,16.59h10
				c0,0,0-16.18,0-22.332C54.104,33.28,51.226,28.79,45.124,28.79L45.124,28.79z"/>
		</g>
	</g>
</g>
<g>
	<path fill="#B01817" d="M32,1.155l31,17.908v35.819L32,72.789L1,54.882V19.063L32,1.155 M32,0L0,18.486v36.973l32,18.485l32-18.485
		V18.486L32,0L32,0z"/>
</g>
</svg>
