<?xml version="1.0" encoding="utf-8"?>
<!-- Generator: Adobe Illustrator 15.0.0, SVG Export Plug-In . SVG Version: 6.00 Build 0)  -->
<!DOCTYPE svg PUBLIC "-//W3C//DTD SVG 1.1//EN" "http://www.w3.org/Graphics/SVG/1.1/DTD/svg11.dtd">
<svg version="1.1" id="Layer_1" xmlns="http://www.w3.org/2000/svg" xmlns:xlink="http://www.w3.org/1999/xlink" x="0px" y="0px"
	 width="64px" height="74px" viewBox="0 0 64 74" enable-background="new 0 0 64 74" xml:space="preserve">
<g>
	<g>
		<path fill="#B01817" d="M57,19v37H7V19H57 M58,18H6v39h52V18L58,18z"/>
	</g>
	<line fill="none" stroke="#B01817" stroke-miterlimit="10" x1="6" y1="24.5" x2="58" y2="24.5"/>
	<circle fill="none" stroke="#B01817" stroke-miterlimit="10" cx="9.656" cy="21.156" r="0.406"/>
	<circle fill="none" stroke="#B01817" stroke-miterlimit="10" cx="12.906" cy="21.156" r="0.406"/>
	<circle fill="none" stroke="#B01817" stroke-miterlimit="10" cx="16.156" cy="21.156" r="0.406"/>
	<g>
		<path fill="#B01817" d="M30.984,28.631c-1.995,0-3.156,2.277-1.968,3.89c0-1.579-0.064-1.844,0.236-2.391
			c0.334-0.619,0.989-1.041,1.741-1.041c1.088,0,1.976,0.887,1.976,1.977v1.431C34.129,30.882,32.966,28.631,30.984,28.631
			L30.984,28.631z M30.994,29.678c-0.766,0-1.389,0.623-1.389,1.388v7.596c0,1.405-0.317,2.02-0.655,2.763
			c-0.908-0.233-1.117-0.542-1.768-1.609c-0.64-1.047-1.436-2.35-2.78-2.35c-0.801,0-1.339,0.533-1.339,1.327
			c0,0.436,0.18,0.602,0.452,0.855c1.227,1.139,2.006,2.819,2.731,4.427c0.212,0.471,0.38,0.842,0.509,1.054
			c0.889,1.452,1.541,2.17,2.016,2.694c0.607,0.671,0.834,0.921,0.834,1.993v2.309c0,0.13,0.105,0.235,0.235,0.235
			c0.13,0,0.236-0.105,0.236-0.235v-2.309c0-1.254-0.319-1.606-0.956-2.309c-0.463-0.511-1.098-1.211-1.963-2.625
			c-0.114-0.187-0.277-0.546-0.482-1.002c-0.747-1.654-1.552-3.382-2.84-4.578c-0.254-0.235-0.302-0.288-0.302-0.51
			c0-0.536,0.325-0.856,0.868-0.856c1.341,0,2.081,1.742,2.815,2.815c0.571,0.835,1.088,0.993,1.546,1.111
			c-0.098,0.251-0.192,0.543-0.257,0.899c-0.025,0.133,0.068,0.259,0.201,0.277c0.01,0.001,0.021,0.002,0.031,0.002
			c0.112,0,0.211-0.081,0.231-0.195c0.27-1.464,1.108-1.871,1.108-4.185v-7.564c0-0.487,0.367-0.914,0.854-0.946
			c0.021-0.001,0.042-0.002,0.063-0.002c0.504,0,0.916,0.41,0.916,0.916v4.458c0,0.001,0,0.004,0,0.006v2.878
			c0,0.13,0.106,0.235,0.236,0.235s0.235-0.105,0.235-0.235v-2.882c0.001-0.505,0.411-0.914,0.915-0.915c0.001,0,0.001,0,0.001,0
			c0.505,0,0.916,0.41,0.917,0.915l0.003,0.998c-0.001,0.014-0.001,0.027-0.001,0.04l0.005,1.845
			c0.001,0.129,0.105,0.235,0.234,0.235c0.001,0,0.001,0,0.002,0c0.131,0,0.236-0.105,0.235-0.236l-0.005-1.878
			c0.016-0.489,0.42-0.885,0.915-0.885h0.001c0.504,0,0.915,0.41,0.917,0.914l0.004,1.445c0,0.015-0.001,0.028-0.001,0.043
			l0.003,0.806c0.001,0.131,0.105,0.235,0.236,0.235s0.235-0.105,0.235-0.236l-0.002-0.841c0.012-0.357,0.228-0.678,0.59-0.831
			c0.092-0.039,0.192-0.053,0.294-0.053c0.231,0,0.462,0.073,0.636,0.227c0.2,0.176,0.312,0.423,0.313,0.686l0.013,6.618
			c0,1.332-0.287,1.96-0.592,2.625c-0.295,0.642-0.6,1.307-0.599,2.58v2.263c0,0.13,0.105,0.235,0.235,0.235
			s0.235-0.105,0.235-0.235v-2.263c0-1.172,0.271-1.761,0.556-2.384c0.313-0.682,0.636-1.387,0.636-2.821l-0.014-6.618
			c-0.001-0.765-0.623-1.385-1.388-1.385c-0.001,0-0.001,0-0.003,0c-0.351,0-0.672,0.132-0.915,0.348l-0.002-0.446
			c-0.001-0.763-0.623-1.385-1.388-1.385c0,0-0.002,0-0.003,0c-0.351,0.001-0.671,0.132-0.915,0.349
			c-0.004-0.829-0.685-1.381-1.397-1.381c-0.315,0-0.636,0.107-0.907,0.347v-3.379c0-0.722-0.535-1.354-1.254-1.422
			C31.082,29.68,31.038,29.678,30.994,29.678L30.994,29.678z"/>
	</g>
</g>
<g>
	<path fill="#B01817" d="M32,1.155l31,17.908v35.819L32,72.789L1,54.882V19.063L32,1.155 M32,0L0,18.486v36.973l32,18.485l32-18.485
		V18.486L32,0L32,0z"/>
</g>
</svg>
