<?xml version="1.0" encoding="utf-8"?>
<!-- Generator: Adobe Illustrator 15.0.2, SVG Export Plug-In . SVG Version: 6.00 Build 0)  -->
<!DOCTYPE svg PUBLIC "-//W3C//DTD SVG 1.1//EN" "http://www.w3.org/Graphics/SVG/1.1/DTD/svg11.dtd">
<svg version="1.1" xmlns="http://www.w3.org/2000/svg" xmlns:xlink="http://www.w3.org/1999/xlink" x="0px" y="0px" width="64px"
	 height="64px" viewBox="0 0 64 64" enable-background="new 0 0 64 64" xml:space="preserve">
<g id="Layer_1">
	<g>
		<rect y="9" width="63" height="47"/>
		<path fill="#B01817" d="M63,9v46H1V9H63 M64,8H0v48h64V8L64,8z"/>
	</g>
	<line fill="none" stroke="#B01817" stroke-miterlimit="10" x1="0" y1="16.5" x2="64" y2="16.5"/>
	<circle fill="none" stroke="#B01817" stroke-miterlimit="10" cx="4.5" cy="12.5" r="0.5"/>
	<circle fill="none" stroke="#B01817" stroke-miterlimit="10" cx="8.5" cy="12.5" r="0.5"/>
	<circle fill="none" stroke="#B01817" stroke-miterlimit="10" cx="12.5" cy="12.5" r="0.5"/>
</g>
<g id="Layer_2">
	<circle stroke="#B01817" stroke-miterlimit="10" cx="32" cy="36" r="15"/>
	<g>
		<path fill="#B01817" d="M45.87,40.76l-3.83-1.23l0.16-0.51l3.83,1.23L45.87,40.76z"/>
		<path fill="#B01817" d="M46.32,39.17l-2.63-0.54l0.07-0.35l2.63,0.54L46.32,39.17z"/>
		<path fill="#B01817" d="M46.54,37.91l-2.67-0.31l0.04-0.35l2.67,0.31L46.54,37.91z"/>
		<path fill="#B01817" d="M46.64,36.67l-2.68-0.08l0.01-0.35l2.68,0.08L46.64,36.67z"/>
		<path fill="#B01817" d="M46.63,35.17l-4.01,0.31l-0.04-0.53l4.01-0.31L46.63,35.17z"/>
		<path fill="#B01817" d="M46.44,33.51L43.8,34l-0.07-0.35l2.64-0.49L46.44,33.51z"/>
		<path fill="#B01817" d="M46.17,32.28L43.58,33l-0.09-0.34l2.59-0.71L46.17,32.28z"/>
		<path fill="#B01817" d="M45.8,31.08l-2.52,0.93l-0.12-0.33l2.52-0.93L45.8,31.08z"/>
		<path fill="#B01817" d="M45.22,29.68l-3.6,1.8l-0.24-0.48l3.6-1.8L45.22,29.68z"/>
		<path fill="#B01817" d="M44.42,28.24l-2.26,1.45l-0.19-0.3l2.26-1.45L44.42,28.24z"/>
		<path fill="#B01817" d="M43.71,27.2l-2.13,1.64l-0.22-0.28l2.13-1.64L43.71,27.2z"/>
		<path fill="#B01817" d="M42.9,26.21l-1.98,1.82l-0.24-0.26l1.98-1.82L42.9,26.21z"/>
		<path fill="#B01817" d="M41.85,25.16l-2.65,3.03l-0.4-0.35l2.65-3.03L41.85,25.16z"/>
		<path fill="#B01817" d="M40.57,24.13l-1.55,2.19l-0.29-0.2l1.55-2.19L40.57,24.13z"/>
		<path fill="#B01817" d="M39.52,23.43l-1.36,2.32l-0.31-0.18l1.36-2.32L39.52,23.43z"/>
		<path fill="#B01817" d="M38.38,22.81l-1.15,2.43l-0.32-0.15l1.15-2.43L38.38,22.81z"/>
		<path fill="#B01817" d="M37.02,22.24l-1.32,3.8l-0.5-0.17l1.32-3.8L37.02,22.24z"/>
		<path fill="#B01817" d="M35.42,21.75l-0.6,2.62l-0.35-0.08l0.6-2.62L35.42,21.75z"/>
		<path fill="#B01817" d="M34.2,21.51l-0.37,2.66l-0.35-0.05l0.37-2.66L34.2,21.51z"/>
		<path fill="#B01817" d="M32.92,21.37l-0.14,2.68l-0.35-0.02l0.14-2.68L32.92,21.37z"/>
		<path fill="#B01817" d="M31.44,21.35l0.22,4.02l-0.53,0.03l-0.22-4.02L31.44,21.35z"/>
		<path fill="#B01817" d="M29.8,21.5l0.43,2.65l-0.35,0.06l-0.43-2.65L29.8,21.5z"/>
		<path fill="#B01817" d="M28.54,21.75l0.65,2.6l-0.34,0.09l-0.65-2.6L28.54,21.75z"/>
		<path fill="#B01817" d="M27.33,22.09l0.87,2.54l-0.34,0.12L27,22.21L27.33,22.09z"/>
		<path fill="#B01817" d="M25.95,22.63l1.71,3.64l-0.48,0.23l-1.71-3.64L25.95,22.63z"/>
		<path fill="#B01817" d="M24.45,23.41l1.4,2.29l-0.3,0.19l-1.4-2.29L24.45,23.41z"/>
		<path fill="#B01817" d="M23.39,24.1l1.59,2.16l-0.29,0.21l-1.59-2.16L23.39,24.1z"/>
		<path fill="#B01817" d="M22.39,24.89l1.78,2.01l-0.27,0.24l-1.77-2.01L22.39,24.89z"/>
		<path fill="#B01817" d="M21.32,25.91l2.97,2.72l-0.36,0.39l-2.97-2.72L21.32,25.91z"/>
		<path fill="#B01817" d="M20.23,27.2l2.17,1.58l-0.21,0.29l-2.17-1.58L20.23,27.2z"/>
		<path fill="#B01817" d="M19.54,28.2l2.29,1.41l-0.19,0.3l-2.29-1.41L19.54,28.2z"/>
		<path fill="#B01817" d="M18.92,29.28l2.4,1.21l-0.16,0.32l-2.4-1.21L18.92,29.28z"/>
		<path fill="#B01817" d="M18.29,30.66l3.77,1.41l-0.19,0.5l-3.77-1.41L18.29,30.66z"/>
		<path fill="#B01817" d="M17.78,32.23l2.6,0.66l-0.09,0.34l-2.6-0.66L17.78,32.23z"/>
		<path fill="#B01817" d="M17.5,33.49l2.65,0.43l-0.06,0.35l-2.65-0.43L17.5,33.49z"/>
		<path fill="#B01817" d="M17.34,34.72l2.68,0.21l-0.03,0.35l-2.68-0.21L17.34,34.72z"/>
		<path fill="#B01817" d="M17.28,36.22l4.02-0.13l0.02,0.53l-4.02,0.13L17.28,36.22z"/>
		<path fill="#B01817" d="M17.4,37.89l2.66-0.37l0.05,0.35l-2.66,0.37L17.4,37.89z"/>
		<path fill="#B01817" d="M17.61,39.11l2.62-0.59l0.08,0.35l-2.62,0.59L17.61,39.11z"/>
		<path fill="#B01817" d="M17.93,40.34l2.56-0.82l0.11,0.34l-2.56,0.82L17.93,40.34z"/>
	</g>
	<path fill="#B01817" stroke="#B01817" stroke-miterlimit="10" d="M33.41,42.45l2.23-3.07l2.55-3.52l-3.52,2.55l-3.07,2.23
		c-0.48-0.07-0.94,0.06-1.27,0.38c-0.62,0.62-0.52,1.72,0.23,2.47c0.74,0.74,1.85,0.84,2.47,0.22
		C33.35,43.39,33.47,42.92,33.41,42.45z"/>
</g>
</svg>
