<?xml version="1.0" encoding="utf-8"?>
<!-- Generator: Adobe Illustrator 15.0.2, SVG Export Plug-In . SVG Version: 6.00 Build 0)  -->
<!DOCTYPE svg PUBLIC "-//W3C//DTD SVG 1.1//EN" "http://www.w3.org/Graphics/SVG/1.1/DTD/svg11.dtd">
<svg version="1.1" id="Layer_1" xmlns="http://www.w3.org/2000/svg" xmlns:xlink="http://www.w3.org/1999/xlink" x="0px" y="0px"
	 width="36px" height="36px" viewBox="0 0 36 36" enable-background="new 0 0 36 36" xml:space="preserve">
<g>
	<path d="M6.18,35.39c-0.1,0-0.18-0.03-0.18-0.07v-1.09c1-0.5,1.05-1.03,1.05-1.58c0-0.23-0.1-0.43-0.19-0.6
		c1.34-0.94,2.02-2.5,2.22-3.02c1.37-0.91,1.29-1.77,1.27-1.93l0.02-0.12L10,26.42v-5.29l0.77-19.8c0.52,0.19,1.02,0.54,1.53,0.54
		c1.43,0,2.37-0.87,2.75-0.87H28v22.41l-0.61,0.42L27.79,26c-0.01,0-0.03,0-0.04,0c-1.01,0-1.52,0.53-1.76,0.88
		c-0.34-0.09-0.64-0.07-0.9-0.07c-0.67,0-0.99,0.32-1.15,0.56c-0.27,0.42-0.19,0.95-0.09,1.29l-2.44,2.45
		c-0.87,0.45-1.44,1.52-1.71,2.18c-0.13-0.03-0.27-0.04-0.4-0.04c-0.09,0-0.18,0.01-0.26,0.02l-0.29-0.59l-0.03-0.04
		c-0.32-0.4-0.66-0.61-1.03-0.61c-0.88,0-1.25,1.15-1.31,1.39c-0.12,0.58-0.56,1-0.81,1.2c-0.16-0.15-0.42-0.55-0.57-0.94
		l-0.06-0.16l-0.15-0.09c-0.16-0.1-0.34-0.15-0.53-0.15c-0.63,0-1.13,0.54-1.22,0.65l-0.14,0.17l0.02,0.22
		c0.03,0.31-0.11,0.68-0.26,0.94c-0.39-0.43-1.1-0.97-2.15-1.62l-0.24-0.15L10,33.62c-0.51,0.27-1.03,0.41-1.56,0.41
		c-0.64,0-1.06-0.21-1.06-0.21l-0.39-0.2l-0.25,0.37c-0.4,0.6-0.45,1.05-0.42,1.37C6.26,35.38,6.24,35.39,6.18,35.39z"/>
	<path fill="#B01817" d="M28,1v22.16l-0.44,0.21l-0.54,0.35l0.04,0.57l0.18,1.47c-0.65,0.09-1.12,0.36-1.43,0.67
		c-0.26-0.05-0.5-0.08-0.72-0.08c-0.94,0-1.39,0.48-1.57,0.77c-0.29,0.46-0.29,0.97-0.21,1.38l-2.19,2.19
		c-0.82,0.46-1.38,1.34-1.71,2.03c-0.02,0-0.04,0-0.06,0l-0.12-0.25l-0.05-0.09l-0.06-0.08c-0.42-0.53-0.9-0.8-1.42-0.8
		c-0.96,0-1.56,0.91-1.79,1.75l-0.01,0.04l-0.01,0.04c-0.04,0.18-0.13,0.35-0.25,0.5c-0.06-0.12-0.12-0.24-0.17-0.36l-0.12-0.32
		L15.04,33c-0.24-0.14-0.51-0.22-0.79-0.22c-0.82,0-1.43,0.63-1.6,0.83l-0.29,0.33l0.05,0.41c-0.38-0.31-0.91-0.69-1.64-1.14
		l-0.49-0.3l-0.51,0.27c-0.44,0.23-0.88,0.35-1.32,0.35c-0.5,0-0.83-0.15-0.83-0.15h0l-0.25-0.13c0.07-0.19,0.1-0.39,0.1-0.59
		c0-0.15-0.02-0.29-0.05-0.43c1.14-0.94,1.79-2.25,2.05-2.86c1.5-1.05,1.4-2.13,1.36-2.35l-0.04-0.23l-0.34-0.19L10,26.26v-0.89
		v-0.51v-1.01v-0.61v-1.31v-0.77l0.99-19.18c0.36,0.08,0.82,0.13,1.18,0.13c1.43,0,2.55-0.68,3.06-1.12H28 M29,0H14.83
		c0,0-0.94,1.12-2.56,1.12c-0.59,0-1.47-0.15-2.23-0.55L9,21.13v0.81v1.31v0.61v1.01v0.51v1.21l0.64,0.6c0,0,0.22,0.71-1.09,1.52
		c0,0-0.92,2.33-2.73,3.23c0,0,1.18,0.81-0.82,2.02v1.62c0,0,0.49,0.31,0.93,0.31c0.22,0,0.57-0.08,0.84-0.31
		c0,0-0.26-0.41,0.34-1.31c0,0,0.53,0.26,1.31,0.26c0.5,0,1.13-0.11,1.8-0.46c0,0,2.15,1.34,2.25,1.83
		c0.02,0.08,0.06,0.11,0.11,0.11c0.27,0,0.9-0.98,0.82-1.74c0,0,0.42-0.48,0.84-0.48c0.09,0,0.19,0.02,0.27,0.08
		c0,0,0.51,1.31,1.11,1.31c0,0,1.01-0.61,1.21-1.62c0,0,0.28-1.02,0.83-1.02c0.18,0,0.39,0.11,0.63,0.42l0.46,0.91
		c0,0,0.22-0.11,0.52-0.11c0.2,0,0.45,0.05,0.69,0.21c0,0,0.61-1.92,1.72-2.42l2.73-2.73c0,0-0.68-1.44,0.65-1.44
		c0.29,0,0.67,0.07,1.17,0.23c0,0,0.16-0.86,1.5-0.86c0.18,0,0.39,0.02,0.62,0.05l-0.19-2.63l0.82-0.5V0L29,0z"/>
</g>
</svg>
