<?xml version="1.0" encoding="utf-8"?>
<!-- Generator: Adobe Illustrator 15.0.2, SVG Export Plug-In . SVG Version: 6.00 Build 0)  -->
<!DOCTYPE svg PUBLIC "-//W3C//DTD SVG 1.1//EN" "http://www.w3.org/Graphics/SVG/1.1/DTD/svg11.dtd">
<svg version="1.1" id="Layer_1" xmlns="http://www.w3.org/2000/svg" xmlns:xlink="http://www.w3.org/1999/xlink" x="0px" y="0px"
	 width="36px" height="36px" viewBox="0 0 36 36" enable-background="new 0 0 36 36" xml:space="preserve">
<g>
	<g>
		<rect x="1" y="7" width="35" height="24"/>
		<path fill="#B01817" d="M35,7v23H1V7H35 M36,6H0v25h36V6L36,6z"/>
	</g>
	<g>
		<polygon points="1.52,31 18.16,10.19 34.81,31 		"/>
		<path fill="#B01817" d="M18.16,10.54l8.06,10.05l7.54,9.4h-15.6H2.56l7.54-9.4L18.16,10.54 M18.16,8.94L9.32,19.97L0.48,31h17.68
			h17.68L27,19.97L18.16,8.94L18.16,8.94z"/>
	</g>
	<g>
		<polygon points="1.68,7 34.54,7 18.11,23.77 		"/>
		<path fill="#B01817" d="M33.35,7l-7.14,7.48l-8.1,8.36l-8.1-8.4L2.87,7h15.24H33 M35.73,6H18.11H0.49l8.81,9.18l8.81,9.09
			l8.81-9.13L35.73,6L35.73,6z"/>
	</g>
</g>
</svg>
