<?xml version="1.0" encoding="utf-8"?>
<!-- Generator: Adobe Illustrator 15.0.2, SVG Export Plug-In . SVG Version: 6.00 Build 0)  -->
<!DOCTYPE svg PUBLIC "-//W3C//DTD SVG 1.1//EN" "http://www.w3.org/Graphics/SVG/1.1/DTD/svg11.dtd">
<svg version="1.1" id="Layer_1" xmlns="http://www.w3.org/2000/svg" xmlns:xlink="http://www.w3.org/1999/xlink" x="0px" y="0px"
	 width="36px" height="36px" viewBox="0 0 36 36" enable-background="new 0 0 36 36" xml:space="preserve">
<g>
	<g>
		<path fill="#B01817" d="M35,7v23H1V7H35 M36,6H0v25h36V6L36,6z"/>
	</g>
	<g>
		<path fill="#B01817" d="M33.63,7l-7.34,7.68L18,23.25l-8.28-8.61L2.37,7H18h16 M36,6H18H0l9,9.38l9,9.3l9-9.34L36,6L36,6z"/>
	</g>
	<g>
		<path fill="#B01817" d="M24.81,17.74l1.39,1.84L34,30H18H2L9.8,19.58l1.34-1.78l6.06,6.63c0.19,0.21,0.46,0.33,0.74,0.33
			s0.55-0.12,0.74-0.32L24.81,17.74 M24.88,16.18l-6.94,7.58l-6.88-7.51L9,18.98L0,31h18h18l-9-12.02L24.88,16.18L24.88,16.18z"/>
	</g>
</g>
</svg>
