<svg version="1.1" id="Layer_1" xmlns="http://www.w3.org/2000/svg" xmlns:xlink="http://www.w3.org/1999/xlink" x="0" y="0" width="64" height="64" viewBox="0 0 64 64" enable-background="new 0 0 64 64" xml:space="preserve"><circle fill="none" stroke="#B01817" stroke-miterlimit="10" cx="22.01" cy="46.8" r="5.45"/><circle fill="none" stroke="#B01817" stroke-miterlimit="10" cx="54.01" cy="46.8" r="5.45"/><path fill="none" stroke="#B01817" stroke-miterlimit="10" d="M44.5 12.5h-44v31h17.18c-0.7 0.92-1.12 2.06-1.12 3.3 0 3.01 2.44 5.45 5.45 5.45s5.45-2.44 5.45-5.45c0-1.24-0.42-2.38-1.12-3.3H44.5V12.5z"/><path fill="none" stroke="#B01817" stroke-miterlimit="10" d="M63.5 32.61l-7-10.11h-12v21h5.18c-0.7 0.92-1.12 2.06-1.12 3.3 0 3.01 2.44 5.45 5.45 5.45s5.45-2.44 5.45-5.45c0-1.24-0.42-2.38-1.12-3.3h5.17V32.61z"/><path fill="#801111" d="M16.15 20.06C16.15 20.06 16.17 20.07 16.15 20.06 16.15 20.06 16.15 20.06 16.15 20.06z"/><path fill="#801111" d="M22.46 21.22c0.01-0.01-0.56-0.43-0.59-0.4C22.07 20.95 22.26 21.08 22.46 21.22 22.47 21.2 22.46 21.22 22.46 21.22z"/><path fill="#801111" d="M23.02 21.55C23.01 21.54 23.01 21.54 23.02 21.55L23.02 21.55z"/><path fill="#801111" d="M24.77 23.83C24.77 23.83 24.75 23.82 24.77 23.83L24.77 23.83z"/><path fill="#801111" d="M25.16 25.99c0.01 0-0.07-0.4-0.09-0.4C25.1 25.73 25.13 25.86 25.16 25.99 25.17 25.99 25.15 25.99 25.16 25.99z"/><path fill="#801111" d="M25.13 26.22C25.13 26.22 25.13 26.21 25.13 26.22 25.13 26.22 25.13 26.21 25.13 26.22z"/><path fill="#801111" d="M25.19 26.12C25.23 26.12 25.16 26.03 25.19 26.12 25.2 26.12 25.19 26.11 25.19 26.12z"/><path fill="#801111" d="M25.19 26.08C25.19 26.08 25.19 26.06 25.19 26.08L25.19 26.08z"/><path fill="#801111" d="M24.69 28.4C24.5 29.18 24.65 28.63 24.69 28.4 24.69 28.4 24.66 28.57 24.69 28.4z"/><path fill="#801111" d="M23.91 31.5C24.15 30.69 23.94 31.69 23.91 31.5 23.93 31.44 23.9 31.54 23.91 31.5z"/><path fill="#801111" d="M23.48 32.21C23.48 32.21 23.46 32.21 23.48 32.21L23.48 32.21z"/><path fill="#801111" d="M23.56 32.16C23.59 32.18 23.56 32.09 23.56 32.16 23.57 32.17 23.56 32.16 23.56 32.16z"/><path fill="#801111" d="M23.57 32.14C23.57 32.14 23.57 32.12 23.57 32.14L23.57 32.14z"/><path fill="#801111" d="M14.18 33.77c-0.01 0-0.11-0.07-0.11-0.07C14.11 33.72 14.15 33.75 14.18 33.77 14.18 33.76 14.18 33.77 14.18 33.77z"/><path fill="#801111" d="M13.65 33.72C13.63 33.74 13.65 33.72 13.65 33.72 13.65 33.72 13.65 33.72 13.65 33.72z"/><path fill="#801111" d="M23.13 35.41c0.17-0.11 0.32-0.23 0.47-0.36C23.42 35.15 23.27 35.27 23.13 35.41 23.29 35.3 23.3 35.29 23.13 35.41z"/><path fill="#801111" d="M25.13 33.22c-0.02 0.03-0.25 0.29-0.24 0.3C24.98 33.42 25.06 33.32 25.13 33.22 25.11 33.25 25.14 33.22 25.13 33.22z"/><path fill="#801111" d="M25.98 32.26c0.01-0.01 0.41-0.47 0.4-0.48C26.23 31.93 26.1 32.09 25.98 32.26 25.99 32.25 26.11 32.11 25.98 32.26z"/><path fill="#801111" d="M26.34 31.18C26.34 31.18 26.35 31.18 26.34 31.18 26.34 31.18 26.34 31.18 26.34 31.18z"/><path fill="#801111" d="M27.02 29.47c-0.01 0.03-0.07 0.36-0.06 0.36C26.98 29.71 27 29.59 27.02 29.47 27.01 29.5 27.02 29.47 27.02 29.47z"/><path fill="#801111" d="M26.96 28.92C26.96 28.92 26.96 28.94 26.96 28.92L26.96 28.92z"/><path fill="#801111" d="M27.17 26.58c-0.09 0.17-0.04-2.28-0.5-2.21 0.34 1.38-1.26-2.87-0.71-1.85 -0.44-0.61-2.23-2.9-1.79-2.45 -1.34-1.04-2.34-1.71-3.91-2.36 0.27 0.12 0.56 0.22 0.84 0.31 -0.59-0.15-1.17-0.33-1.74-0.54 0.46 0.1 0.91 0.2 1.38 0.27 -0.01 0.01-9.48-0.24-8.69 1.12 1.84-1.05-1.84 1.93-0.02 0.01 -2.61-1.24 2.92 5.87 2.49 2.57 -2.35 1.06 4.06-1.77 3.38-1.67 1.06-0.28 4.42 1.26 3.44 0.64 0.17 0.08 2.99 2.91 2.77 2.92 -0.28-1.82 0.76 0.86 0.13-0.41 0.09 0.1 0.87 2.44 0.85 2.29 0.15 0.47-0.13 0.84 0.06 1.18 -0.08-0.25-0.07-0.28 0.04-0.07 0.2-0.12-1.36 1.57-0.49 2.06 0.68-1.14-0.69 2.57-0.17 1 0.02 0.25-0.8 2.54-0.21 1.31 -0.63 1.88-4.49 5.27-6.61 4.04 0.37 0.11 0.75 0.17 1.14 0.18 -1 1.06-3.77-1.87-4.6-1.35 0.7 1.24-0.37-0.26-0.03 0.34 -0.44-0.46-0.84-0.2-1.34 0.63 -1.08 2.29 3.33 3.42 3.56 2.81 -1.36-0.11 4.16-0.93 5.29-1.25 0.47-0.19 0.4-0.19-0.23 0.03 0.59-0.16 1.17-0.38 1.71-0.67 -0.21-0.05-0.41 0.01-0.6 0.17 0.22-0.11 1.79-1.13 1.74-1.19 -0.71 0.16 1.09-1.62 1.62-2.13 -1.6 0.98 1.73-1.58 0.93-1.75 -0.26 0.76-0.18 0.54-0.5 0.28C27.16 31.09 27.19 26.57 27.17 26.58 27.36 26.21 27.15 26.59 27.17 26.58zM19.2 36.81C18.83 36.72 20.07 36.51 19.2 36.81 19.17 36.8 19.3 36.78 19.2 36.81zM24.81 23.98c0.03 0.03 0.01 0.04 0.04 0.08C24.83 24.03 24.82 24.01 24.81 23.98 24.84 24.02 24.81 24.01 24.81 23.98zM23.01 21.53c0.06 0.01 0.09 0.04 0.13 0.09C23.09 21.59 23.05 21.56 23.01 21.53 23.07 21.54 23.01 21.54 23.01 21.53zM26.94 28.5C26.93 28.49 26.93 28.44 26.94 28.5 26.94 28.5 26.94 28.5 26.94 28.5zM26.52 30.84c0.02 0.05 0.01 0.13 0.01 0.19C26.53 30.97 26.53 30.91 26.52 30.84 26.54 30.89 26.52 30.84 26.52 30.84zM24.67 29.69c-0.03-0.04-0.04-0.1 0.02-0.13C24.69 29.61 24.68 29.65 24.67 29.69 24.65 29.66 24.67 29.69 24.67 29.69zM23.32 21.66c0.05 0.07 0.04 0.07-0.06 0C23.28 21.66 23.3 21.66 23.32 21.66 23.37 21.73 23.3 21.66 23.32 21.66zM23.09 21.29C22.96 21.1 23.32 21.56 23.09 21.29 23.08 21.27 23.11 21.31 23.09 21.29zM19.74 19.61c0.07-0.01-0.1-0.02-0.11-0.02C19.67 19.6 19.7 19.6 19.74 19.61 19.81 19.6 19.74 19.61 19.74 19.61zM18.72 36.74c0.04-0.01 0.02 0 0.11 0C18.79 36.74 18.75 36.74 18.72 36.74 18.76 36.73 18.72 36.74 18.72 36.74zM16.11 20.01c-0.02 0-0.03 0-0.05 0C16.07 20.01 16.09 20.01 16.11 20.01 16.09 20.01 16.11 20.01 16.11 20.01zM16.04 20.01C16.04 20.01 16.06 19.99 16.04 20.01 16.04 20.01 16.04 20.01 16.04 20.01zM13 20.65c0.02 0.01 0.03 0.02 0.03 0.05C13.02 20.68 13.01 20.66 13 20.65 13.02 20.66 13.01 20.66 13 20.65zM16.03 20C16.03 20.01 16.03 20.01 16.03 20L16.03 20zM16.04 20.01C16.03 20.01 16.04 19.98 16.04 20.01 16.04 20.01 16.04 20.01 16.04 20.01zM24.89 29.56c-0.01 0.06 0 0.07-0.03 0.1C24.87 29.62 24.88 29.59 24.89 29.56 24.88 29.62 24.88 29.58 24.89 29.56zM14.49 34.13C14.38 34.06 14.69 34.2 14.49 34.13 14.46 34.11 14.5 34.13 14.49 34.13zM18.71 36.69C18.9 36.7 18.45 36.7 18.71 36.69 18.73 36.69 18.68 36.69 18.71 36.69zM26.83 28.92C26.83 28.92 26.82 28.96 26.83 28.92 26.83 28.92 26.82 28.92 26.83 28.92zM26.9 28.4c0.01-0.07 0.01-0.14 0.02-0.2C26.91 28.27 26.9 28.33 26.9 28.4 26.9 28.33 26.9 28.41 26.9 28.4zM26.93 26.19C26.99 25.76 27.03 26.28 26.93 26.19 26.94 26.13 26.95 26.21 26.93 26.19zM16.45 17.79C16.42 17.79 16.45 17.78 16.45 17.79 16.45 17.79 16.45 17.79 16.45 17.79zM11.81 20.24c0.01 0.02 0 0.05-0.01 0.07C11.8 20.29 11.8 20.27 11.81 20.24 11.82 20.26 11.8 20.27 11.81 20.24zM15.81 20.12c0.07-0.05 0.14-0.07 0.22-0.07C15.95 20.07 15.88 20.09 15.81 20.12 15.87 20.07 15.8 20.13 15.81 20.12zM16.33 20.01C16.17 20.16 15.99 19.94 16.33 20.01 16.29 20.04 16.33 20.01 16.33 20.01zM17.28 36.76c0.01 0 0.03 0.01 0.04 0.01C17.31 36.77 17.3 36.76 17.28 36.76 17.3 36.76 17.28 36.77 17.28 36.76zM18.98 36.7c-0.05 0.02-0.1 0.02-0.16 0.01C18.88 36.71 18.93 36.7 18.98 36.7 18.93 36.72 18.98 36.7 18.98 36.7zM26.25 31.26C26.3 31.25 26.16 31.41 26.25 31.26 26.26 31.26 26.24 31.28 26.25 31.26zM26.27 31.23c-0.02 0-0.01-0.02 0.03-0.05C26.29 31.19 26.28 31.21 26.27 31.23 26.25 31.22 26.27 31.23 26.27 31.23zM26.36 31.18c-0.04 0.02-0.02-0.01 0-0.04C26.36 31.15 26.36 31.16 26.36 31.18 26.32 31.2 26.36 31.16 26.36 31.18zM26.35 31.07c0.01 0.03 0 0.05-0.03 0.08C26.34 31.13 26.35 31.1 26.35 31.07 26.36 31.1 26.35 31.07 26.35 31.07zM27.09 26.44C27.09 26.44 27.09 26.43 27.09 26.44 27.09 26.44 27.09 26.44 27.09 26.44zM27.01 26.39c0 0.02 0 0.03-0.01 0.04C27 26.42 27 26.4 27.01 26.39 27.01 26.4 27.01 26.38 27.01 26.39zM22.41 18.9C22.43 18.97 22.2 18.81 22.41 18.9 22.42 18.93 22.38 18.89 22.41 18.9zM11.75 19.77c0 0.02 0 0.02-0.02 0.06C11.73 19.81 11.74 19.79 11.75 19.77 11.75 19.79 11.74 19.78 11.75 19.77zM15.09 20.49c0.02-0.06 0.04-0.06 0.1-0.08C15.16 20.44 15.12 20.47 15.09 20.49 15.11 20.43 15.12 20.46 15.09 20.49zM15.32 20.31C15.07 20.41 15.68 20.19 15.32 20.31 15.3 20.32 15.33 20.3 15.32 20.31zM15.99 20.12C15.99 20.19 15.63 20.22 15.99 20.12 15.99 20.14 15.94 20.13 15.99 20.12zM16.45 19.91C16.97 19.94 16.34 20.02 16.45 19.91 16.52 19.92 16.43 19.93 16.45 19.91zM22.88 21.07C23.67 21.73 22.56 21.07 22.88 21.07 22.97 21.15 22.87 21.08 22.88 21.07zM23.18 21.84C23.1 21.67 23.71 22.12 23.18 21.84 23.17 21.82 23.24 21.87 23.18 21.84zM23.37 21.71C23.25 21.52 23.56 22.01 23.37 21.71 23.36 21.69 23.37 21.71 23.37 21.71zM25.24 25.73C25.36 26.14 25.3 26 25.24 25.73 25.23 25.7 25.24 25.73 25.24 25.73zM25.29 29.05C25.27 29.16 25.2 29.16 25.29 29.05 25.28 29.08 25.27 29.07 25.29 29.05zM14.71 34.3C14.27 33.92 14.84 34.27 14.71 34.3 14.66 34.25 14.73 34.29 14.71 34.3zM13.77 36.52C14.27 37.01 13.81 36.5 13.77 36.52 13.84 36.59 13.75 36.53 13.77 36.52zM17.36 36.76C17.2 36.69 17.59 36.69 17.36 36.76 17.34 36.75 17.39 36.75 17.36 36.76zM19.54 36.68c-0.03 0.01-0.06 0.02-0.1 0.01C19.47 36.69 19.5 36.68 19.54 36.68 19.5 36.69 19.54 36.68 19.54 36.68zM26.15 31.41C26.62 30.9 25.98 31.73 26.15 31.41 26.2 31.36 26.15 31.41 26.15 31.41zM26.87 29.02C26.87 29.02 26.94 28.85 26.87 29.02 26.84 29.01 26.88 29 26.87 29.02zM27.01 28.78C27 28.77 27.02 28.77 27.01 28.78 27.01 28.78 27.01 28.78 27.01 28.78zM26.97 28.68C27 28.79 27.07 28.49 26.97 28.68 26.96 28.63 26.98 28.66 26.97 28.68zM27.1 25.92c0.03 0.1 0.1 0.2 0.07 0.3C27.14 26.12 27.12 26.02 27.1 25.92 27.13 26.02 27.1 25.92 27.1 25.92zM26.37 23.55c0.03 0.12 0.09 0.24 0.03 0.35C26.39 23.79 26.38 23.67 26.37 23.55 26.4 23.67 26.37 23.55 26.37 23.55zM25.52 22.02c0.31 0.22-0.49-0.43-0.52-0.83 0.34 0.65 0.68 1.29 1.02 1.94C25.86 22.81 25.71 22.26 25.52 22.02 25.83 22.23 25.4 21.86 25.52 22.02zM24.75 20.77c0.06 0.07 0.15 0.12 0.14 0.21C24.85 20.91 24.8 20.84 24.75 20.77 24.81 20.84 24.75 20.77 24.75 20.77zM23.66 19.76c0.28 0.18 0.25 0.66-0.68-0.49 0.73 0.53 1.45 1.07 2.18 1.61C24.67 20.51 24.17 20.09 23.66 19.76 23.94 19.94 23.52 19.67 23.66 19.76zM22.88 19.28C22.35 18.92 22.48 18.82 22.88 19.28 22.75 19.19 22.78 19.17 22.88 19.28zM22.05 18.59C22.81 18.73 21.93 18.62 22.05 18.59 22.07 18.59 22.05 18.59 22.05 18.59zM20.14 17.72c0.8 0.25 0.87 0.28 0.22 0.1 0.17 0.05 0.34 0.11 0.51 0.19C18.35 16.99 20.22 17.73 20.14 17.72 20.36 17.79 20.13 17.72 20.14 17.72zM15.92 17.73c0.26-0.02 0.52-0.04 0.78-0.06C16.35 17.73 15.95 17.74 15.92 17.73 16.17 17.71 15.92 17.73 15.92 17.73zM14.15 18.02C15.11 17.9 14.05 18.08 14.15 18.02 14.27 18 14.15 18.02 14.15 18.02zM11.96 19.16C12.24 18.82 11.67 19.47 11.96 19.16 12.11 18.98 11.94 19.19 11.96 19.16zM11.62 20.49c-0.08-0.12-0.01-0.4 0.03-0.55C11.64 20.13 11.63 20.31 11.62 20.49 11.54 20.37 11.61 20.47 11.62 20.49zM15.58 20.42c-0.34 0.26-0.67 0.53-1.01 0.79 0.35-0.27 0.66-0.6 1-0.88 -0.61 0.57 0.74-0.36 0.75-0.36C17.56 19.96 15.42 20.52 15.58 20.42 15.25 20.69 15.71 20.34 15.58 20.42zM16.76 20.04c-0.11 0.04-0.22 0.11-0.34 0.08C16.54 20.1 16.65 20.07 16.76 20.04 16.65 20.08 16.76 20.04 16.76 20.04zM19.79 19.81C18.57 19.53 19.99 19.78 19.79 19.81 19.66 19.78 19.79 19.81 19.79 19.81zM22.24 20.9c-0.44-0.31-0.41-0.32 0.78 0.61C22.78 21.39 22.26 20.91 22.24 20.9 21.8 20.59 22.48 21.06 22.24 20.9zM23.43 21.99C23.21 21.81 23.57 22 23.43 21.99 23.4 21.96 23.43 21.99 23.43 21.99zM24.6 23.46C24.57 23.47 25.24 24.75 24.6 23.46 24.69 23.45 24.62 23.51 24.6 23.46zM24.81 24.36c-0.04-0.09-0.12-0.13-0.1-0.22C24.75 24.21 24.78 24.29 24.81 24.36 24.77 24.27 24.81 24.36 24.81 24.36zM25.19 26.47c0 0.02 0 0.03 0 0.05C25.19 26.5 25.19 26.49 25.19 26.47 25.19 26.49 25.19 26.47 25.19 26.47zM25 26.45C24.96 27.53 25.13 26.22 25 26.45 25 26.56 24.99 26.47 25 26.45zM24.81 28.52c0.07 0.02-0.08 0.52-0.16 0.54C24.71 28.88 24.76 28.7 24.81 28.52 24.88 28.54 24.81 28.52 24.81 28.52zM24.57 29.06C24.57 29.06 24.53 29.07 24.57 29.06 24.57 29.06 24.57 29.06 24.57 29.06zM23.97 31.69C24.62 30.2 23.42 32.96 23.97 31.69 24.04 31.55 23.93 31.78 23.97 31.69zM23.43 32.27C23.48 32.13 23.51 32.23 23.43 32.27 23.46 32.2 23.45 32.27 23.43 32.27zM23.22 32.34C23.36 32.28 23.17 32.49 23.22 32.34 23.24 32.33 23.21 32.36 23.22 32.34zM18.82 34.99c-0.06 0.07-0.28 0-0.36-0.02C18.58 34.98 18.7 34.98 18.82 34.99 18.76 35.06 18.7 34.99 18.82 34.99zM18.36 34.99C19.03 35.03 18.6 35 18.36 34.99 18.4 34.99 18.36 34.99 18.36 34.99zM14.92 34.1C15.6 34.64 14.16 33.46 14.92 34.1 14.98 34.15 14.89 34.08 14.92 34.1zM14.02 36.86C12.66 36.86 14.18 36.86 14.02 36.86 13.87 36.86 14.02 36.86 14.02 36.86zM16.81 37.14c-0.7 0.15 0.48-0.17 0.58-0.15 -0.45 0.14-0.91 0.27-1.36 0.41C16.14 37.36 16.83 37.14 16.81 37.14 16.11 37.29 17.01 37.1 16.81 37.14zM17.7 36.9c-0.59 0.17 0.56-0.18 0.72-0.17 -0.48 0.08-0.97 0.16-1.45 0.23C16.87 36.97 17.87 36.85 17.7 36.9 17.11 37.07 17.95 36.82 17.7 36.9zM20.9 36.37c-0.13 0.04-0.26 0.07-0.39 0.09C20.64 36.43 20.77 36.4 20.9 36.37 20.77 36.4 20.87 36.37 20.9 36.37zM23.27 35.15c-0.49 0.36 0.54-0.54 0.47-0.44C23.81 34.86 23.2 35.2 23.27 35.15 22.77 35.51 23.45 35.02 23.27 35.15zM26.54 31.36c-0.2 0.24-0.4 0.49-0.6 0.73C25.91 32.05 26.63 31.23 26.54 31.36 26.34 31.61 26.55 31.35 26.54 31.36zM26.88 29.54c-0.46-0.82 0.17-0.43 0.22-0.89C27.03 28.95 26.95 29.24 26.88 29.54 27.13 29.98 26.91 29.43 26.88 29.54zM27.19 28.01C27.18 28.02 27.16 27.98 27.19 28.01 27.19 28.01 27.19 28.01 27.19 28.01zM27.11 28.13C27.18 28.79 26.99 27.98 27.11 28.13 27.12 28.21 27.11 28.13 27.11 28.13z"/><path fill="#801111" d="M25.77 22.11c0 0.01-0.27-0.37-0.29-0.35C25.57 21.87 25.67 21.99 25.77 22.11 25.77 22.12 25.77 22.11 25.77 22.11z"/><path fill="#801111" d="M23.91 19.76C23.52 19.55 23.51 19.51 23.91 19.76 23.92 19.77 23.79 19.69 23.91 19.76z"/><path fill="#801111" d="M22.41 18.92C22.41 18.92 22.41 18.9 22.41 18.92L22.41 18.92z"/><path fill="#801111" d="M16.47 37.33c0.27-0.04 0.53-0.1 0.79-0.18C17.23 37.09 16.32 37.34 16.47 37.33 16.74 37.28 16.74 37.29 16.47 37.33z"/><path fill="#801111" d="M15.24 20.83c-0.06-0.04-0.63 0.67-0.69 0.62C14.78 21.24 15.01 21.03 15.24 20.83 15.18 20.79 15.24 20.83 15.24 20.83z"/><path fill="#B01817" d="M28.02 34.56C28.02 34.56 28 34.55 28.02 34.56L28.02 34.56z"/><path fill="#B01817" d="M21.71 33.41c0 0 0.56 0.44 0.59 0.4C22.1 33.67 21.91 33.54 21.71 33.41 21.71 33.41 21.71 33.4 21.71 33.41z"/><path fill="#B01817" d="M21.16 33.07C21.17 33.08 21.16 33.08 21.16 33.07L21.16 33.07z"/><path fill="#B01817" d="M19.4 30.79C19.4 30.79 19.42 30.8 19.4 30.79L19.4 30.79z"/><path fill="#B01817" d="M19.01 28.63c-0.01 0 0.07 0.4 0.09 0.4C19.07 28.9 19.04 28.76 19.01 28.63 19.01 28.63 19.02 28.63 19.01 28.63z"/><path fill="#B01817" d="M19.04 28.4C19.05 28.4 19.03 28.42 19.04 28.4 19.04 28.4 19.04 28.4 19.04 28.4z"/><path fill="#B01817" d="M18.98 28.5C18.94 28.5 19.02 28.59 18.98 28.5 18.97 28.5 18.98 28.51 18.98 28.5z"/><path fill="#B01817" d="M18.98 28.54C18.98 28.54 18.98 28.56 18.98 28.54L18.98 28.54z"/><path fill="#B01817" d="M20.26 23.12C20.03 23.93 20.23 22.94 20.26 23.12 20.24 23.19 20.27 23.08 20.26 23.12z"/><path fill="#B01817" d="M20.7 22.41C20.7 22.42 20.71 22.41 20.7 22.41 20.7 22.42 20.7 22.41 20.7 22.41z"/><path fill="#B01817" d="M20.61 22.46C20.58 22.44 20.61 22.53 20.61 22.46 20.6 22.46 20.61 22.47 20.61 22.46z"/><path fill="#B01817" d="M20.6 22.48C20.6 22.48 20.6 22.5 20.6 22.48L20.6 22.48z"/><path fill="#B01817" d="M29.99 20.85c0.01 0.01 0.11 0.07 0.11 0.07C30.06 20.9 30.03 20.88 29.99 20.85 30 20.86 29.99 20.85 29.99 20.85z"/><path fill="#B01817" d="M30.53 20.9C30.54 20.88 30.52 20.9 30.53 20.9 30.53 20.9 30.52 20.9 30.53 20.9z"/><path fill="#B01817" d="M21.05 19.21C20.26 19.74 20.84 19.35 21.05 19.21 21.04 19.22 20.87 19.33 21.05 19.21z"/><path fill="#B01817" d="M19.04 21.4C19.31 21.06 19.31 21.1 19.04 21.4 19.06 21.37 19.03 21.4 19.04 21.4z"/><path fill="#B01817" d="M18.19 22.37c-0.14 0.15-0.27 0.31-0.4 0.48C17.94 22.7 18.08 22.54 18.19 22.37 18.05 22.52 18.06 22.51 18.19 22.37z"/><path fill="#B01817" d="M17.83 23.44C17.83 23.44 17.82 23.45 17.83 23.44L17.83 23.44z"/><path fill="#B01817" d="M17.15 25.15c0-0.03 0.07-0.36 0.06-0.36C17.19 24.91 17.17 25.03 17.15 25.15 17.16 25.12 17.15 25.15 17.15 25.15z"/><path fill="#B01817" d="M17.21 25.7C17.21 25.7 17.21 25.68 17.21 25.7L17.21 25.7z"/><path fill="#B01817" d="M18.4 32.51c0 0 0.27 0.37 0.29 0.35C18.6 32.75 18.5 32.63 18.4 32.51 18.4 32.51 18.4 32.51 18.4 32.51z"/><path fill="#B01817" d="M20.26 34.86C20.65 35.07 20.66 35.11 20.26 34.86 20.26 34.85 20.38 34.93 20.26 34.86z"/><path fill="#B01817" d="M21.76 35.7C21.76 35.7 21.76 35.72 21.76 35.7L21.76 35.7z"/><path fill="#B01817" d="M26.93 17.48c0.07-0.02 0.78-0.21 0.78-0.19C27.44 17.3 27.18 17.36 26.93 17.48 27 17.46 26.92 17.48 26.93 17.48z"/><path fill="#B01817" d="M28.94 33.78c0.02-0.02 0.66-0.63 0.69-0.6C29.49 33.09 28.83 33.88 28.94 33.78 28.96 33.76 29.13 33.59 28.94 33.78z"/><path fill="#B01817" d="M32.65 34.09c-0.08-1.47-3.06-1.42-2.99-0.93 2.64-1.23-4.46 1.84-3.38 1.67 -1.18 0.32-4.32-1.2-3.44-0.64 -0.8-0.36-2.09-2.94-2.77-2.92 0.29 1.81-0.77-0.85-0.13 0.41 -0.45-0.5-0.66-1.81-0.93-3.47 0.09 0.27 0.09 0.3-0.02 0.08 0.26-0.15 0.73 1.87 0.3-0.91 0.46 0 2.73 0.51 2.92 0.11 -0.73-0.09-0.67-0.13 0.18-0.11 -0.53-0.04-1.05-0.06-1.58-0.07 0.59-0.01 4.85-0.36 5 0.12 -0.08-0.31-2.08-0.09-2.44-0.15 1.19-0.02 5.65 1.34 6.47 0.17 -0.3 0.4-2.53-0.09-3.02-0.11 0.81 0.03 1.63 0.01 2.44-0.06 -0.42 0.19-0.99-0.18-1.41-0.17 1.25 0.02 1.69 0.22 2.29 0.08 -0.07 0.11-0.16 0.2-0.26 0.27 0.52 0.1 0.76-0.1 0.71-0.61 0.48 1.43-0.18-1.82 0.21 0.16 -3.86-1.36-7.29-1.28-11.33-1.08 0.12-0.3 0.34-0.45 0.65-0.47 -0.17-0.35-0.18-1.05-0.45-0.24 -0.04-0.32 0.75-2.44 0.21-1.31 0.51-1.46 4.76-5.78 6.61-4.03 -0.37-0.12-0.75-0.19-1.14-0.19 0.94-1.06 3.82 1.84 4.6 1.35 -0.52-0.94 0.19-0.18 0.3 0.08 3.11-1.58-2.02-5.09-2.49-3.86 1.69 0.14-6.14 1.58-5.06 1.23 -0.59 0.16-1.16 0.38-1.71 0.67 0.21 0.05 0.41 0 0.6-0.17 -0.21 0.11-1.78 1.14-1.74 1.19 0.71-0.16-1.09 1.62-1.62 2.13 1.59-0.99-1.72 1.59-0.94 1.75 0.31-0.9 0.08-0.53 0.5-0.28 -0.42-0.15-0.96 2.58-0.95 2.4 -0.41-0.22-0.85-0.3-1.31-0.23 1.11 0.5-2.01 1.13-2.17 1.11 0.24 0.05 0.49 0.06 0.73 0.04 -0.67 0.13-0.76 0.11-0.26-0.04 0.43 0.43-0.01 0.24 0.85 0.31 -1.05 0.08 1.57 0.07 1.91 0.03 0.73-0.08 0.08 2.92 0.92 2.81 -0.33-1.38 0.39 2.37 0.88 2.24 -0.32-0.93 2.23 2.69 1.62 2.06 1.31 1.01 2.39 1.76 3.91 2.36 -2.36-0.52 0.68 0.18 0.9 0.23 -0.46-0.09-0.92-0.18-1.38-0.27 0.27-0.12 9.53 0.22 8.69-1.12 -0.78 0.64-0.64 0.39 0.42-0.74 -0.51 0.85-0.54 0.96-0.09 0.34C32.51 34.92 32.57 34.51 32.65 34.09 32.63 33.67 32.7 34.24 32.65 34.09zM24.97 17.81C25.36 17.86 24.1 18.11 24.97 17.81 25 17.81 24.87 17.85 24.97 17.81zM29.52 27.09C29.52 27.09 29.5 27.1 29.52 27.09 29.52 27.09 29.52 27.09 29.52 27.09zM28.17 27.12c-0.1 0-0.2 0-0.3 0C27.97 27.12 28.07 27.12 28.17 27.12 28.07 27.12 28.11 27.12 28.17 27.12zM20.64 27.38c-0.27-0.01-0.54-0.02-0.8-0.03C23.91 26.27 19.85 27.29 20.64 27.38 20.37 27.37 20.52 27.37 20.64 27.38zM19.36 30.64c-0.04-0.03-0.01-0.04-0.04-0.08C19.34 30.59 19.35 30.61 19.36 30.64 19.33 30.61 19.36 30.61 19.36 30.64zM21.16 33.09c-0.06-0.01-0.09-0.04-0.13-0.09C21.08 33.03 21.12 33.06 21.16 33.09 21.1 33.08 21.16 33.09 21.16 33.09zM17.65 23.78C17.57 23.58 17.71 23.49 17.65 23.78 17.63 23.73 17.65 23.78 17.65 23.78zM19.5 24.93c0.03 0.04 0.04 0.1-0.02 0.13C19.49 25.02 19.49 24.97 19.5 24.93 19.52 24.96 19.5 24.93 19.5 24.93zM29.63 26.99c0.01 0.01-0.03-0.01-0.01 0C29.63 26.99 29.63 26.99 29.63 26.99 29.64 27 29.63 26.99 29.63 26.99zM29.58 26.98C29.48 26.85 29.76 27.01 29.58 26.98 29.57 26.96 29.58 26.98 29.58 26.98zM20.85 32.96c-0.05-0.07-0.03-0.07 0.06 0.01C20.89 32.96 20.87 32.96 20.85 32.96 20.8 32.89 20.87 32.96 20.85 32.96zM21.08 33.33C21.21 33.53 20.85 33.06 21.08 33.33 21.09 33.35 21.06 33.31 21.08 33.33zM24.43 35.01c-0.07 0.01 0.1 0.02 0.11 0.02C24.5 35.03 24.47 35.02 24.43 35.01 24.36 35.02 24.43 35.01 24.43 35.01zM25.46 17.88c-0.04 0.01-0.01 0-0.11 0C25.38 17.88 25.42 17.88 25.46 17.88 25.41 17.89 25.45 17.88 25.46 17.88zM28.06 34.61c0.02 0 0.03 0 0.05 0C28.1 34.61 28.08 34.61 28.06 34.61 28.08 34.61 28.06 34.61 28.06 34.61zM28.13 34.61C28.14 34.61 28.11 34.63 28.13 34.61 28.13 34.61 28.13 34.61 28.13 34.61zM31.17 33.97c-0.02-0.01-0.03-0.02-0.03-0.05C31.15 33.94 31.16 33.96 31.17 33.97 31.15 33.97 31.17 33.96 31.17 33.97zM28.15 34.62C28.15 34.61 28.15 34.61 28.15 34.62L28.15 34.62zM28.14 34.61C28.14 34.61 28.13 34.64 28.14 34.61 28.14 34.61 28.14 34.61 28.14 34.61zM19.28 25.06c0.01-0.06 0-0.07 0.03-0.1C19.3 25 19.29 25.03 19.28 25.06 19.29 25.01 19.29 25.04 19.28 25.06zM29.68 20.5C29.77 20.55 29.49 20.44 29.68 20.5 29.71 20.52 29.67 20.49 29.68 20.5zM25.46 17.93C25.27 17.92 25.72 17.92 25.46 17.93 25.44 17.93 25.48 17.93 25.46 17.93zM17.35 25.7C17.34 25.7 17.35 25.66 17.35 25.7 17.34 25.7 17.35 25.7 17.35 25.7zM32.36 34.38c-0.01-0.02 0-0.05 0.01-0.07C32.37 34.33 32.37 34.36 32.36 34.38 32.35 34.36 32.37 34.36 32.36 34.38zM28.37 34.51c-0.07 0.05-0.14 0.07-0.22 0.07C28.22 34.55 28.29 34.53 28.37 34.51 28.3 34.56 28.37 34.5 28.37 34.51zM27.84 34.62C28.01 34.46 28.17 34.69 27.84 34.62 27.88 34.58 27.84 34.62 27.84 34.62zM27.04 27.14C27.04 27.14 27.06 27.14 27.04 27.14 27.04 27.14 27.04 27.14 27.04 27.14zM30 26.94c0.04 0 0.06 0.02 0.06 0.09C30.04 26.99 30.02 26.97 30 26.94 30.04 26.93 30.03 26.96 30 26.94zM18.88 25.57C18.91 25.46 18.97 25.46 18.88 25.57 18.89 25.54 18.9 25.55 18.88 25.57zM26.89 17.86c-0.01 0-0.03-0.01-0.04-0.01C26.86 17.85 26.88 17.86 26.89 17.86 26.88 17.86 26.89 17.85 26.89 17.86zM25.19 17.92c0.05-0.02 0.1-0.02 0.16-0.01C25.29 17.92 25.24 17.92 25.19 17.92 25.24 17.9 25.19 17.92 25.19 17.92zM17.92 23.36C17.99 23.35 18.07 23.12 17.92 23.36 17.91 23.36 17.94 23.34 17.92 23.36zM17.9 23.4c0.02 0 0.01 0.02-0.03 0.05C17.89 23.43 17.89 23.41 17.9 23.4 17.92 23.4 17.9 23.39 17.9 23.4zM17.82 23.45c0.04-0.02 0.02 0.01 0 0.05C17.81 23.48 17.82 23.46 17.82 23.45 17.85 23.42 17.81 23.46 17.82 23.45zM17.82 23.55c-0.01-0.03 0-0.05 0.03-0.08C17.83 23.5 17.82 23.52 17.82 23.55 17.81 23.52 17.82 23.55 17.82 23.55zM17.16 25.84C17.17 25.85 17.15 25.85 17.16 25.84 17.16 25.84 17.16 25.84 17.16 25.84zM17.25 28.43C17.19 28.87 17.14 28.34 17.25 28.43 17.24 28.49 17.22 28.41 17.25 28.43zM27.72 36.83C27.75 36.83 27.72 36.84 27.72 36.83 27.73 36.83 27.72 36.83 27.72 36.83zM32.43 34.85c0-0.03 0-0.02 0.02-0.06C32.44 34.82 32.43 34.83 32.43 34.85 32.43 34.83 32.43 34.84 32.43 34.85zM29.08 34.13c-0.02 0.06-0.04 0.06-0.1 0.08C29.01 34.18 29.05 34.16 29.08 34.13 29.06 34.19 29.05 34.16 29.08 34.13zM28.85 34.32C29.1 34.21 28.49 34.44 28.85 34.32 28.87 34.31 28.84 34.32 28.85 34.32zM28.18 34.5C28.18 34.43 28.54 34.4 28.18 34.5 28.18 34.49 28.23 34.49 28.18 34.5zM27.73 34.71C27.19 34.69 27.84 34.59 27.73 34.71 27.65 34.71 27.74 34.69 27.73 34.71zM21.29 33.55C20.52 32.89 21.6 33.56 21.29 33.55 21.2 33.48 21.3 33.54 21.29 33.55zM21 32.79C21.07 32.95 20.45 32.5 21 32.79 21 32.81 20.93 32.75 21 32.79zM20.81 32.92C20.92 33.1 20.62 32.61 20.81 32.92 20.81 32.93 20.8 32.91 20.81 32.92zM18.93 29.05c-0.08 0-0.06-0.46-0.07-0.51C18.88 28.71 18.91 28.88 18.93 29.05 18.85 29.05 18.93 29.05 18.93 29.05zM21.47 27.24c0.42-0.05 0.88 0.02 1.3 0.04C17.57 27.13 22.87 27.3 21.47 27.24 21.89 27.19 21.7 27.25 21.47 27.24zM26.3 27.1C26.48 27.11 26.05 27.16 26.3 27.1 26.32 27.11 26.28 27.11 26.3 27.1zM29.74 27.11C29.38 27.11 29.94 27.11 29.74 27.11 29.7 27.11 29.75 27.11 29.74 27.11zM30.11 27.13C29.97 26.49 30.2 27.42 30.11 27.13 30.09 27.06 30.12 27.15 30.11 27.13zM30.4 26.89C30.37 26.68 30.62 27.21 30.4 26.89 30.4 26.87 30.43 26.93 30.4 26.89zM29.71 26.31C29.37 26.19 30.52 26.54 29.71 26.31 29.68 26.3 29.79 26.33 29.71 26.31zM20.36 25.96C20.7 26.06 19.33 26.14 20.36 25.96 20.39 25.97 20.24 25.98 20.36 25.96zM19.34 26c0-0.04 0.01-0.05 0.05-0.04C19.37 25.98 19.36 25.99 19.34 26 19.34 25.96 19.35 26 19.34 26zM29.46 20.33C29.89 20.71 29.33 20.35 29.46 20.33 29.52 20.38 29.44 20.33 29.46 20.33zM30.41 18.1C29.89 17.62 30.36 18.12 30.41 18.1 30.33 18.03 30.42 18.1 30.41 18.1zM26.81 17.86C26.97 17.93 26.58 17.93 26.81 17.86 26.83 17.87 26.79 17.87 26.81 17.86zM24.64 17.94c0.03 0 0.07-0.01 0.1-0.01C24.7 17.93 24.67 17.94 24.64 17.94 24.67 17.94 24.64 17.94 24.64 17.94zM18.02 23.21C17.55 23.73 18.19 22.89 18.02 23.21 17.97 23.26 18.02 23.21 18.02 23.21zM17.3 25.6C17.3 25.6 17.23 25.77 17.3 25.6 17.33 25.62 17.29 25.62 17.3 25.6zM17.23 25.89C17.13 26.09 17.22 25.91 17.23 25.89 17.24 25.88 17.23 25.9 17.23 25.89zM17.08 28.18C17.08 28.18 17.08 28.19 17.08 28.18 17.08 28.18 17.08 28.19 17.08 28.18zM17.16 28.24c0-0.02 0-0.03 0.01-0.05C17.17 28.21 17.17 28.22 17.16 28.24 17.17 28.22 17.16 28.24 17.16 28.24zM21.76 35.72C21.74 35.66 21.97 35.81 21.76 35.72 21.76 35.7 21.79 35.73 21.76 35.72zM32.55 34.13c0.07 0.12 0.01 0.4-0.03 0.55C32.53 34.5 32.54 34.31 32.55 34.13 32.63 34.25 32.56 34.16 32.55 34.13zM28.59 34.2c0.34-0.26 0.68-0.53 1.01-0.79 -1.17 0.92-0.58 0.65-1.73 1.23C21.96 37.64 29.04 33.91 28.59 34.2 28.93 33.93 28.46 34.28 28.59 34.2zM27.41 34.58c0.11-0.04 0.22-0.1 0.34-0.08C27.63 34.53 27.52 34.55 27.41 34.58 27.52 34.54 27.41 34.58 27.41 34.58zM24.39 34.81C25.59 35.1 24.19 34.84 24.39 34.81 24.51 34.84 24.39 34.81 24.39 34.81zM21.93 33.73c0.45 0.32 0.37 0.28-0.78-0.61C21.38 33.24 21.92 33.72 21.93 33.73 22.38 34.04 21.69 33.56 21.93 33.73zM20.74 32.63C20.96 32.81 20.6 32.62 20.74 32.63 20.78 32.66 20.74 32.63 20.74 32.63zM19.58 31.16C19.59 31.16 18.95 29.86 19.58 31.16 19.47 31.17 19.55 31.11 19.58 31.16zM19.36 30.26c0.04 0.09 0.12 0.13 0.09 0.22C19.43 30.41 19.39 30.33 19.36 30.26 19.4 30.35 19.36 30.26 19.36 30.26zM18.98 28.15c0-0.02 0-0.03 0-0.05C18.98 28.12 18.98 28.14 18.98 28.15 18.98 28.14 18.99 28.16 18.98 28.15zM19.17 28.17C19.21 27.11 19.06 28.38 19.17 28.17 19.17 28.06 19.18 28.15 19.17 28.17zM19.85 27.33c0.11 0 0.23-0.01 0.34 0C20.08 27.33 19.96 27.33 19.85 27.33 19.96 27.33 19.96 27.33 19.85 27.33zM24.69 27.29c-1.54-0.08 1.44-0.05 1.78 0.07C20.29 27.11 25.63 27.33 24.69 27.29 22.69 27.18 25.3 27.32 24.69 27.29zM26.75 27.36C26.65 27.36 26.78 27.37 26.75 27.36 26.74 27.36 26.75 27.36 26.75 27.36zM26.8 27.36c-0.01 0-0.03 0-0.04 0C26.77 27.36 26.79 27.36 26.8 27.36 26.79 27.36 26.8 27.36 26.8 27.36zM28.18 27.25c0.02 0 0.04 0 0.06 0C28.22 27.25 28.2 27.25 28.18 27.25 28.2 27.25 28.2 27.25 28.18 27.25zM28.88 27.21c0-0.07 0.91-0.16-0.07-0.22 0.06 0 0.81 0.3 0.64 0.17C26.4 27.18 29.19 27.21 28.88 27.21 28.86 26.49 29.1 27.21 28.88 27.21zM29.55 27.13c0.04-0.02 0.05-0.02 0.06 0C29.59 27.12 29.57 27.13 29.55 27.13 29.59 27.1 29.57 27.13 29.55 27.13zM29.81 27.25C29.44 27.28 30.13 27.2 29.81 27.25 29.78 27.25 29.85 27.25 29.81 27.25zM30.16 27.29C30.35 27.15 30.05 27.5 30.16 27.29 30.18 27.27 30.15 27.31 30.16 27.29zM30.5 27.25c0.04-0.21-0.07-0.41-0.18-0.58C30.38 26.86 30.44 27.05 30.5 27.25 30.54 27.04 30.53 27.21 30.5 27.25zM30.46 26.6c-0.23-0.14-0.47-0.27-0.72-0.34C29.98 26.37 30.22 26.48 30.46 26.6 30.23 26.46 30.38 26.51 30.46 26.6zM20.97 25.98c-0.28-0.06-0.09-0.07 0.58-0.03C19.13 26.08 20.36 26.01 20.97 25.98 20.68 25.93 21.16 25.97 20.97 25.98zM19.98 25.94C19.73 26.01 19.32 25.97 19.98 25.94 19.94 25.95 19.84 25.94 19.98 25.94zM19.53 25.96c0 0.04-0.03 0.05-0.09 0.03C19.47 25.98 19.5 25.97 19.53 25.96 19.53 26 19.5 25.96 19.53 25.96zM19.35 25.96c0.01-0.07 0.12-0.39 0.17-0.4C19.46 25.69 19.41 25.82 19.35 25.96 19.36 25.89 19.36 25.95 19.35 25.96zM19.6 25.56C19.6 25.56 19.64 25.55 19.6 25.56 19.6 25.56 19.6 25.56 19.6 25.56zM20.2 22.93C19.55 24.43 20.76 21.66 20.2 22.93 20.14 23.08 20.24 22.84 20.2 22.93zM20.74 22.35C20.69 22.49 20.66 22.39 20.74 22.35 20.72 22.41 20.72 22.36 20.74 22.35zM20.95 22.28C20.81 22.35 21 22.13 20.95 22.28 20.93 22.29 20.96 22.27 20.95 22.28zM25.35 19.63c0.06-0.07 0.28 0 0.36 0.02C25.59 19.65 25.47 19.64 25.35 19.63 25.41 19.56 25.47 19.64 25.35 19.63zM25.82 19.63C25.15 19.6 25.57 19.62 25.82 19.63 25.78 19.63 25.82 19.63 25.82 19.63zM29.26 20.52C28.57 19.96 30.02 21.17 29.26 20.52 29.19 20.47 29.28 20.54 29.26 20.52zM30.15 17.74C31.84 18.14 29.7 17.76 30.15 17.74 30.32 17.78 30.15 17.74 30.15 17.74zM27.36 17.48c0.7-0.15-0.48 0.17-0.58 0.15 0.46-0.14 0.91-0.27 1.36-0.41C28.03 17.26 27.34 17.49 27.36 17.48 28.06 17.33 27.16 17.52 27.36 17.48zM26.47 17.72c0.58-0.17-0.56 0.18-0.72 0.17 0.48-0.08 0.96-0.15 1.44-0.23C27.3 17.65 26.3 17.78 26.47 17.72 27.06 17.55 26.22 17.8 26.47 17.72zM23.27 18.26c0.13-0.04 0.26-0.07 0.39-0.09C23.54 18.19 23.4 18.23 23.27 18.26 23.4 18.22 23.31 18.26 23.27 18.26zM20.91 19.47c0.5-0.37-0.57 0.58-0.47 0.44C20.36 19.76 20.97 19.42 20.91 19.47 21.41 19.1 20.72 19.61 20.91 19.47zM17.63 23.26c0.2-0.24 0.4-0.49 0.6-0.73C18.27 22.58 17.54 23.39 17.63 23.26 17.83 23.01 17.62 23.27 17.63 23.26zM17.29 25.08C17.46 25.38 16.98 26.17 17.29 25.08 17.38 25.24 17.26 25.2 17.29 25.08zM16.24 26.04c0.09 0 0.18 0.01 0.26 0.01C16.42 26.05 16.33 26.04 16.24 26.04 16.33 26.04 16.23 26.04 16.24 26.04zM13.71 26.61c0.02 0.02 0.04 0.05 0.05 0.07C13.74 26.66 13.73 26.63 13.71 26.61 13.73 26.63 13.71 26.61 13.71 26.61zM14.32 27.29C14.38 27.29 14.29 27.28 14.32 27.29 14.33 27.29 14.32 27.29 14.32 27.29zM16.31 27.4c-0.53 0.03-1.06 0.04-1.58 0.03C15.18 27.25 16.25 27.4 16.31 27.4 16 27.41 16.31 27.4 16.31 27.4zM17.08 28.7c-0.03-0.1-0.1-0.2-0.07-0.3C17.03 28.5 17.05 28.6 17.08 28.7 17.04 28.6 17.08 28.7 17.08 28.7zM17.8 31.07c-0.03-0.12-0.08-0.24-0.03-0.35C17.78 30.84 17.79 30.95 17.8 31.07 17.77 30.95 17.8 31.07 17.8 31.07zM18.65 32.61c-0.33-0.23 0.51 0.58 0.52 0.83 -0.34-0.65-0.69-1.29-1.03-1.94C18.31 31.81 18.46 32.36 18.65 32.61 18.32 32.38 18.77 32.76 18.65 32.61zM19.42 33.85c-0.06-0.07-0.15-0.12-0.14-0.21C19.32 33.71 19.37 33.78 19.42 33.85 19.36 33.78 19.42 33.85 19.42 33.85zM20.51 34.86c-0.28-0.19-0.23-0.63 0.68 0.49 -0.73-0.53-1.45-1.07-2.18-1.61C19.5 34.11 20 34.53 20.51 34.86 20.23 34.68 20.65 34.95 20.51 34.86zM21.29 35.34C21.81 35.69 21.7 35.81 21.29 35.34 21.42 35.43 21.39 35.45 21.29 35.34zM22.12 36.04C21.21 35.87 22.43 35.94 22.12 36.04 22.11 36.03 22.12 36.04 22.12 36.04zM24.03 36.9c-0.8-0.25-0.87-0.28-0.22-0.1 -0.17-0.05-0.34-0.11-0.51-0.19C26.05 37.73 23.94 36.89 24.03 36.9 23.81 36.83 24.04 36.9 24.03 36.9zM28.26 36.89c-0.26 0.03-0.52 0.06-0.78 0.1C27.73 36.89 27.99 36.86 28.26 36.89 28 36.93 28.26 36.89 28.26 36.89zM30.02 36.61C29.06 36.73 30.12 36.54 30.02 36.61 29.9 36.62 30.02 36.61 30.02 36.61zM32.21 35.46C31.92 35.8 32.49 35.14 32.21 35.46 32.06 35.64 32.23 35.43 32.21 35.46z"/><path fill="#B01817" d="M28.71 27.11c-0.02 0 0.07 0 0.05 0C28.75 27.11 28.73 27.11 28.71 27.11 28.69 27.12 28.73 27.11 28.71 27.11z"/><path fill="#B01817" d="M29.5 27.09L29.5 27.09C29.5 27.09 29.5 27.09 29.5 27.09z"/><polygon fill="#B01817" points="29.51 27.08 29.51 27.08 29.51 27.08 "/><path fill="#B01817" d="M29.75 27.11C29.73 27.11 29.82 27.11 29.75 27.11 29.75 27.11 29.76 27.11 29.75 27.11z"/></svg>