<svg version="1.1" id="Layer_1" xmlns="http://www.w3.org/2000/svg" xmlns:xlink="http://www.w3.org/1999/xlink" x="0" y="0" width="64" height="64" viewBox="0 0 64 64" enable-background="new 0 0 64 64" xml:space="preserve"><path fill="#B01817" d="M61.78 6.17l0 0.38 -1.11 0 -0.01-0.37c0-0.14-0.05-0.27-0.15-0.37 -0.1-0.1-0.23-0.15-0.37-0.15l-2.7 0 0 3.18 2.7 0c0.46 0 0.84 0.16 1.17 0.48 0.32 0.32 0.48 0.7 0.48 1.15l0 2.15c0 0.45-0.16 0.83-0.48 1.15 -0.32 0.32-0.71 0.48-1.17 0.48l-2.7 0v1.53l-1.1 0 0-1.53 -2.72 0c-0.45 0-0.83-0.16-1.15-0.48 -0.32-0.32-0.48-0.7-0.48-1.15l0-0.39h1.1l0 0.39c0 0.14 0.05 0.27 0.15 0.37 0.1 0.1 0.23 0.16 0.37 0.15l2.72 0 0-3.2 -2.72 0c-0.45 0-0.83-0.16-1.15-0.47 -0.32-0.31-0.48-0.7-0.48-1.16l0-2.12c0-0.46 0.16-0.85 0.48-1.17 0.32-0.32 0.7-0.48 1.15-0.48l2.72 0V3l1.1 0v1.53l2.71 0c0.46 0 0.85 0.16 1.16 0.48C61.62 5.33 61.77 5.71 61.78 6.17zM56.33 8.82V5.65l-2.72 0c-0.14 0-0.27 0.05-0.37 0.16 -0.1 0.1-0.15 0.22-0.15 0.37l0 2.13c0 0.14 0.05 0.27 0.15 0.37 0.1 0.1 0.23 0.16 0.37 0.16L56.33 8.82zM60.14 9.93l-2.71 0 0 3.2 2.7 0c0.14 0 0.27-0.05 0.37-0.15 0.1-0.1 0.15-0.23 0.15-0.37v-2.15c0-0.14-0.05-0.26-0.16-0.37C60.4 9.98 60.28 9.92 60.14 9.93z"/><polyline fill="none" stroke="#B01817" stroke-miterlimit="10" points="5.27 59.1 14.33 48.73 25.73 45.29 29.83 36.69 37.93 35.12 42.17 27.87 52.51 24.88 57 16.5 "/><line fill="none" stroke="#B01817" stroke-miterlimit="10" x1="3.5" y1="3" x2="3.5" y2="61"/><line fill="none" stroke="#B01817" stroke-miterlimit="10" x1="3" y1="60.5" x2="61" y2="60.5"/><path fill="#B01817" d="M18.54 10.07c1 0 1.98 0.16 2.93 0.47l-4.25 8.83L16.51 21h1.61 8.94 0.97c-0.5 4-4.57 8.35-9.49 8.35 -5.26 0-9.54-4.38-9.54-9.64S13.28 10.07 18.54 10.07M18.54 9.07C12.72 9.07 8 13.79 8 19.61c0 5.82 4.72 10.73 10.54 10.73S29.08 25 29.08 20h-2.03 -8.94l4.47-9.27 0.26-0.63C21.54 9.51 20.08 9.07 18.54 9.07L18.54 9.07z"/><path fill="#B01817" d="M26.3 9.74c2.64 1.53 4.41 4.26 4.73 7.26h-0.97 -7.33L26.3 9.74M25.85 8.19l-0.26 0.63L21.12 18h8.94 2.03C32.08 13 29.52 9.84 25.85 8.19L25.85 8.19z"/><rect x="33.5" y="47.5" fill="none" stroke="#B01817" stroke-miterlimit="10" width="4" height="8"/><rect x="39.5" y="43.5" fill="none" stroke="#B01817" stroke-miterlimit="10" width="4" height="12"/><rect x="45.5" y="39.5" fill="none" stroke="#B01817" stroke-miterlimit="10" width="4" height="16"/><rect x="51.5" y="35.5" fill="none" stroke="#B01817" stroke-miterlimit="10" width="4" height="20"/></svg>