<svg version="1.1" xmlns="http://www.w3.org/2000/svg" x="0" y="0" width="64" height="64" viewBox="0 0 64 64" enable-background="new 0 0 64 64" xml:space="preserve">
<g id="icon-linkedin">
  <title>LinkedIn Link Icon</title>
  <path class="icon-social-content" fill="#666666" d="M14.89 20.94c-2.53 0-4.6-2.06-4.6-4.6 0-2.53 2.06-4.6 4.6-4.6s4.6 2.06 4.6 4.6C19.49 18.87 17.42 20.94 14.89 20.94z"/><path fill="#161616" d="M14.89 12.24c2.26 0 4.1 1.84 4.1 4.1 0 2.26-1.84 4.1-4.1 4.1s-4.1-1.84-4.1-4.1C10.79 14.08 12.63 12.24 14.89 12.24M14.89 11.24c-2.82 0-5.1 2.28-5.1 5.1 0 2.82 2.28 5.1 5.1 5.1s5.1-2.28 5.1-5.1C19.99 13.52 17.7 11.24 14.89 11.24L14.89 11.24z"/><rect class="icon-social-content" x="10" y="25" fill="#666666" width="10" height="28"/><path fill="#161616" d="M19 25v28h-8V25H19M20 24H10v30h10V24L20 24z"/><path class="icon-social-content" fill="#666666" d="M45 53V37.41c0-4.02-2.01-6.23-5.13-6.23 -2.97 0-4.87 2.69-4.87 5.21V53h-9V25h9v1.58c0 0.17-0.14 0.33 0 0.42 0.08 0.05 0.07 0.08 0.16 0.08 0.07 0 0.08-0.01 0.14-0.04 0.05-0.02 5.05-2.13 10.02-2.13 5.99 0 8.68 4.48 8.68 6.76V53H45z"/><path fill="#161616" d="M45.04 25.41c5.64 0 7.96 4.15 7.96 6.26V53h-8V37.41c0-4.28-1.74-6.73-5.13-6.73 -3.3 0-4.87 2.94-4.87 5.71V53h-9V25h8v1.58c0 0.34 0.19 0.65 0.48 0.84 0.17 0.11 0.37 0.16 0.56 0.16 0.14 0 0.22-0.03 0.34-0.08C35.43 27.48 40.19 25.41 45.04 25.41M45.02 24.41c-5.13 0-10.02 2.17-10.02 2.17V24H25v30h11c0 0 0-12.7 0-17.61 0-2.24 1.15-4.71 3.87-4.71 3.37 0 4.13 2.81 4.13 5.73C44 42.17 44 54 44 54h10c0 0 0-16.18 0-22.33C54 28.9 51.12 24.41 45.02 24.41L45.02 24.41z"/>
</g>
</svg>