<?xml version="1.0" encoding="utf-8"?>
<!-- Generator: Adobe Illustrator 15.0.2, SVG Export Plug-In . SVG Version: 6.00 Build 0)  -->
<!DOCTYPE svg PUBLIC "-//W3C//DTD SVG 1.1//EN" "http://www.w3.org/Graphics/SVG/1.1/DTD/svg11.dtd">
<svg version="1.1" xmlns="http://www.w3.org/2000/svg" xmlns:xlink="http://www.w3.org/1999/xlink" x="0px" y="0px" width="64px"
	 height="64px" viewBox="0 0 64 64" enable-background="new 0 0 64 64" xml:space="preserve">
<g id="Layer_1">
	<g>
		<path fill="#B01817" d="M63,9v46H1V9H63 M64,8H0v48h64V8L64,8z"/>
	</g>
	<line fill="none" stroke="#B01817" stroke-miterlimit="10" x1="0" y1="16.5" x2="64" y2="16.5"/>
	<circle fill="none" stroke="#B01817" stroke-miterlimit="10" cx="4.5" cy="12.5" r="0.5"/>
	<circle fill="none" stroke="#B01817" stroke-miterlimit="10" cx="8.5" cy="12.5" r="0.5"/>
	<circle fill="none" stroke="#B01817" stroke-miterlimit="10" cx="12.5" cy="12.5" r="0.5"/>
</g>
<g id="Layer_2">
	<g>
		<path fill="#B01817" d="M30.75,21.7c-2.46,0-3.88,2.8-2.42,4.79c0-1.94-0.08-2.27,0.29-2.94c0.41-0.76,1.22-1.28,2.14-1.28
			c1.34,0,2.43,1.09,2.43,2.43v1.76C34.62,24.47,33.19,21.7,30.75,21.7L30.75,21.7z M30.76,22.99c-0.94,0-1.71,0.77-1.71,1.71v9.35
			c0,1.73-0.39,2.49-0.81,3.4c-1.12-0.29-1.37-0.67-2.18-1.98c-0.79-1.29-1.77-2.89-3.42-2.89c-0.99,0-1.65,0.66-1.65,1.63
			c0,0.54,0.22,0.74,0.56,1.05c1.51,1.4,2.47,3.47,3.36,5.45c0.26,0.58,0.47,1.04,0.63,1.3c1.09,1.79,1.9,2.67,2.48,3.32
			c0.75,0.83,1.03,1.13,1.03,2.45v2.84c0,0.16,0.13,0.29,0.29,0.29s0.29-0.13,0.29-0.29v-2.84c0-1.54-0.39-1.98-1.18-2.84
			c-0.57-0.63-1.35-1.49-2.42-3.23c-0.14-0.23-0.34-0.67-0.59-1.23c-0.92-2.04-1.91-4.16-3.5-5.63c-0.31-0.29-0.37-0.35-0.37-0.63
			c0-0.66,0.4-1.05,1.07-1.05c1.65,0,2.56,2.14,3.46,3.46c0.7,1.03,1.34,1.22,1.9,1.37c-0.12,0.31-0.24,0.67-0.32,1.11
			c-0.03,0.16,0.08,0.32,0.25,0.34c0.01,0,0.03,0,0.04,0c0.14,0,0.26-0.1,0.28-0.24c0.33-1.8,1.36-2.3,1.36-5.15l0-9.31
			c0-0.6,0.45-1.13,1.05-1.17c0.03,0,0.05,0,0.08,0c0.62,0,1.13,0.51,1.13,1.13v5.49c0,0,0,0,0,0.01v3.54
			c0,0.16,0.13,0.29,0.29,0.29s0.29-0.13,0.29-0.29v-3.55c0-0.62,0.5-1.12,1.13-1.13c0,0,0,0,0,0c0.62,0,1.13,0.5,1.13,1.13l0,1.23
			c0,0.02,0,0.03,0,0.05l0.01,2.27c0,0.16,0.13,0.29,0.29,0.29c0,0,0,0,0,0c0.16,0,0.29-0.13,0.29-0.29l-0.01-2.31
			c0.02-0.6,0.52-1.09,1.13-1.09c0,0,0,0,0,0c0.62,0,1.13,0.5,1.13,1.13l0,1.78c0,0.02,0,0.04,0,0.05l0,0.99
			c0,0.16,0.13,0.29,0.29,0.29c0.16,0,0.29-0.13,0.29-0.29l0-1.04c0.01-0.44,0.28-0.83,0.73-1.02c0.11-0.05,0.24-0.07,0.36-0.07
			c0.29,0,0.57,0.09,0.78,0.28c0.25,0.22,0.38,0.52,0.38,0.84l0.02,8.15c0,1.64-0.35,2.41-0.73,3.23c-0.36,0.79-0.74,1.61-0.74,3.18
			v2.78c0,0.16,0.13,0.29,0.29,0.29s0.29-0.13,0.29-0.29v-2.78c0-1.44,0.33-2.17,0.68-2.93C40.6,44.06,41,43.19,41,41.42l-0.02-8.15
			c0-0.94-0.77-1.71-1.71-1.71c0,0,0,0,0,0c-0.43,0-0.83,0.16-1.13,0.43l0-0.55c0-0.94-0.77-1.7-1.71-1.7c0,0,0,0,0,0
			c-0.43,0-0.83,0.16-1.13,0.43c0-1.02-0.84-1.7-1.72-1.7c-0.39,0-0.78,0.13-1.11,0.43v-4.16c0-0.89-0.66-1.67-1.54-1.75
			C30.87,22.99,30.82,22.99,30.76,22.99L30.76,22.99z"/>
	</g>
</g>
</svg>
