<?xml version="1.0" encoding="utf-8"?>
<!-- Generator: Adobe Illustrator 15.0.2, SVG Export Plug-In . SVG Version: 6.00 Build 0)  -->
<!DOCTYPE svg PUBLIC "-//W3C//DTD SVG 1.1//EN" "http://www.w3.org/Graphics/SVG/1.1/DTD/svg11.dtd">
<svg version="1.1" id="Layer_1" xmlns="http://www.w3.org/2000/svg" xmlns:xlink="http://www.w3.org/1999/xlink" x="0px" y="0px"
	 width="64px" height="64px" viewBox="0 0 64 64" enable-background="new 0 0 64 64" xml:space="preserve">
<g>
	<path fill="#B01817" d="M63,9v46H1V9H63 M64,8H0v48h64V8L64,8z"/>
</g>
<line fill="none" stroke="#B01817" stroke-miterlimit="10" x1="0" y1="16.5" x2="64" y2="16.5"/>
<circle fill="none" stroke="#B01817" stroke-miterlimit="10" cx="4.5" cy="12.5" r="0.5"/>
<circle fill="none" stroke="#B01817" stroke-miterlimit="10" cx="8.5" cy="12.5" r="0.5"/>
<circle fill="none" stroke="#B01817" stroke-miterlimit="10" cx="12.5" cy="12.5" r="0.5"/>
<g>
	<path fill="none" stroke="#B01817" stroke-miterlimit="10" d="M47.33,43.55c0.37,0.37,0.22,0.86-0.17,1.25l-6.36,6.36
		c-0.39,0.39-0.88,0.54-1.25,0.17L16.72,28.5c-0.37-0.37-0.36-0.99,0.04-1.38l6.36-6.36c0.39-0.39,1.01-0.41,1.38-0.04L47.33,43.55z
		"/>
	<line fill="none" stroke="#B01817" stroke-miterlimit="10" x1="17.11" y1="29.6" x2="19.23" y2="27.48"/>
	<line fill="none" stroke="#B01817" stroke-miterlimit="10" x1="18.53" y1="31.01" x2="20.65" y2="28.89"/>
	<line fill="none" stroke="#B01817" stroke-miterlimit="10" x1="19.94" y1="32.43" x2="22.06" y2="30.3"/>
	<line fill="none" stroke="#B01817" stroke-miterlimit="10" x1="21.35" y1="33.84" x2="24.18" y2="31.01"/>
	<line fill="none" stroke="#B01817" stroke-miterlimit="10" x1="22.77" y1="35.25" x2="24.89" y2="33.13"/>
	<line fill="none" stroke="#B01817" stroke-miterlimit="10" x1="24.18" y1="36.67" x2="26.3" y2="34.55"/>
	<line fill="none" stroke="#B01817" stroke-miterlimit="10" x1="25.6" y1="38.08" x2="27.72" y2="35.96"/>
	<line fill="none" stroke="#B01817" stroke-miterlimit="10" x1="27.01" y1="39.5" x2="29.84" y2="36.67"/>
	<line fill="none" stroke="#B01817" stroke-miterlimit="10" x1="28.43" y1="40.91" x2="30.55" y2="38.79"/>
	<line fill="none" stroke="#B01817" stroke-miterlimit="10" x1="29.84" y1="42.33" x2="31.96" y2="40.2"/>
	<line fill="none" stroke="#B01817" stroke-miterlimit="10" x1="31.25" y1="43.74" x2="33.38" y2="41.62"/>
	<line fill="none" stroke="#B01817" stroke-miterlimit="10" x1="32.67" y1="45.15" x2="35.5" y2="42.33"/>
	<line fill="none" stroke="#B01817" stroke-miterlimit="10" x1="34.08" y1="46.57" x2="36.2" y2="44.45"/>
	<line fill="none" stroke="#B01817" stroke-miterlimit="10" x1="35.5" y1="47.98" x2="37.62" y2="45.86"/>
	<line fill="none" stroke="#B01817" stroke-miterlimit="10" x1="36.91" y1="49.4" x2="39.03" y2="47.27"/>
	<line fill="none" stroke="#B01817" stroke-miterlimit="10" x1="38.33" y1="50.81" x2="41.15" y2="47.98"/>
</g>
<g>
	
		<line fill="none" stroke="#B01817" stroke-linecap="round" stroke-linejoin="round" stroke-miterlimit="10" x1="39.04" y1="24.68" x2="22.78" y2="40.94"/>
	
		<line fill="none" stroke="#B01817" stroke-linecap="round" stroke-linejoin="round" stroke-miterlimit="10" x1="41.17" y1="26.8" x2="24.9" y2="43.06"/>
	
		<line fill="none" stroke="#B01817" stroke-linecap="round" stroke-linejoin="round" stroke-miterlimit="10" x1="43.29" y1="28.92" x2="27.02" y2="45.19"/>
	
		<line fill="none" stroke="#B01817" stroke-linecap="round" stroke-linejoin="round" stroke-miterlimit="10" x1="22.5" y1="41.23" x2="17.12" y2="50.84"/>
	
		<line fill="none" stroke="#B01817" stroke-linecap="round" stroke-linejoin="round" stroke-miterlimit="10" x1="25.03" y1="42.93" x2="22.27" y2="42.24"/>
	
		<line fill="none" stroke="#B01817" stroke-linecap="round" stroke-linejoin="round" stroke-miterlimit="10" x1="25.03" y1="42.93" x2="25.78" y2="45.57"/>
	<path fill="none" stroke="#B01817" stroke-miterlimit="10" d="M46.15,24l-1.94-1.94c-0.71-0.71-1.3-1.26-1.91-0.65l-1.1,1.1
		c-0.14,0.14-0.24,0.3-0.31,0.48l4.1,4.1c0.16-0.09,0.31-0.2,0.45-0.34l1.1-1.1C47.15,25.05,46.86,24.72,46.15,24z"/>
	
		<rect x="39.23" y="24.74" transform="matrix(0.7071 0.7071 -0.7071 0.7071 30.5716 -22.3203)" fill="none" stroke="#B01817" stroke-miterlimit="10" width="6" height="2"/>
	<polygon fill="none" stroke="#B01817" stroke-miterlimit="10" points="17.13,50.83 17.57,50.04 18.01,49.25 18.36,49.6 
		18.72,49.96 17.93,50.39 	"/>
	
		<line fill="none" stroke="#B01817" stroke-linecap="round" stroke-linejoin="round" stroke-miterlimit="10" x1="26.74" y1="45.47" x2="17.12" y2="50.84"/>
</g>
</svg>
