<?xml version="1.0" encoding="utf-8"?>
<!-- Generator: Adobe Illustrator 15.0.2, SVG Export Plug-In . SVG Version: 6.00 Build 0)  -->
<!DOCTYPE svg PUBLIC "-//W3C//DTD SVG 1.1//EN" "http://www.w3.org/Graphics/SVG/1.1/DTD/svg11.dtd">
<svg version="1.1" id="Layer_1" xmlns="http://www.w3.org/2000/svg" xmlns:xlink="http://www.w3.org/1999/xlink" x="0px" y="0px"
	 width="64px" height="64px" viewBox="0 0 64 64" enable-background="new 0 0 64 64" xml:space="preserve">
<g>
	<path d="M26.77,17.3l-0.16-0.57c-1.65-5.99,1.84-12.13,7.75-13.76c0.97-0.27,1.96-0.4,2.96-0.4c4.99,0,9.41,3.36,10.73,8.18
		l10.44,37.83L37.02,54.5L26.77,17.3z M36.77,8.88c-0.25,0-0.5,0.03-0.75,0.1c-0.73,0.2-1.33,0.67-1.71,1.33
		c-0.37,0.66-0.47,1.42-0.26,2.15c0.33,1.22,1.45,2.07,2.72,2.07c0.25,0,0.51-0.03,0.75-0.1c1.5-0.41,2.38-1.97,1.97-3.48
		C39.15,9.73,38.03,8.88,36.77,8.88z"/>
	<path fill="#B01817" d="M37.32,3.06c4.77,0,8.98,3.21,10.25,7.8l0.08,0.29c0.03,0.11,0.06,0.22,0.1,0.36l10.13,36.71l-20.5,5.66
		L27.25,17.16c-0.07-0.27-0.13-0.46-0.16-0.56l-0.02-0.06c-1.55-5.65,1.78-11.52,7.42-13.08C35.42,3.19,36.37,3.06,37.32,3.06
		 M36.77,15.03c0.3,0,0.59-0.04,0.88-0.12c1.76-0.49,2.8-2.32,2.32-4.09c-0.4-1.44-1.72-2.44-3.21-2.44c-0.3,0-0.59,0.04-0.88,0.12
		c-0.86,0.23-1.57,0.79-2.01,1.56c-0.44,0.78-0.55,1.68-0.31,2.53C33.96,14.03,35.28,15.03,36.77,15.03 M37.32,2.06
		c-1.02,0-2.06,0.14-3.09,0.42C28.03,4.19,24.4,10.6,26.1,16.8c0.01,0.02,0.08,0.25,0.18,0.63h0l10.39,37.68l22.43-6.19l-10.4-37.68
		c-0.05-0.21-0.11-0.41-0.17-0.64C47.11,5.45,42.42,2.06,37.32,2.06L37.32,2.06z M36.77,14.03c-1.02,0-1.96-0.68-2.24-1.71
		c-0.35-1.24,0.38-2.53,1.62-2.87c0.21-0.06,0.41-0.08,0.62-0.08c1.02,0,1.96,0.68,2.24,1.71c0.34,1.24-0.39,2.52-1.62,2.86
		C37.18,14.01,36.98,14.03,36.77,14.03L36.77,14.03z"/>
</g>
<g>
	<path d="M5.55,53.24l16.92-42.2l0.51-1.26c0.19-0.48,0.31-0.78,0.31-0.81c2.06-5.12,7.01-8.46,12.59-8.46
		c1.73,0,3.43,0.33,5.05,0.98c6.95,2.79,10.34,10.71,7.55,17.67l-0.06,0.15c-0.08,0.2-0.15,0.39-0.24,0.59L30.76,63.35L5.55,53.24z
		 M36.82,8.45c-1.36,0-2.57,0.82-3.08,2.08c-0.33,0.82-0.32,1.72,0.02,2.54c0.35,0.82,1,1.45,1.82,1.78
		c0.39,0.16,0.8,0.24,1.23,0.24c1.36,0,2.57-0.82,3.08-2.08c0.68-1.7-0.15-3.63-1.84-4.32C37.66,8.53,37.24,8.45,36.82,8.45z"/>
	<path fill="#B01817" d="M35.89,1c1.67,0,3.3,0.32,4.86,0.94c6.69,2.69,9.96,10.32,7.27,17.02l-0.06,0.15
		c-0.08,0.2-0.15,0.38-0.24,0.59L30.48,62.7L6.2,52.96l16.23-40.47l0,0.01l1.01-2.53c0.2-0.49,0.27-0.68,0.3-0.77
		C25.76,4.21,30.52,1,35.89,1 M36.81,15.58c1.57,0,2.96-0.94,3.55-2.4c0.78-1.95-0.17-4.18-2.12-4.96
		c-0.46-0.18-0.93-0.28-1.42-0.28c-1.57,0-2.96,0.94-3.54,2.39c-0.38,0.95-0.38,1.99,0.03,2.92c0.4,0.94,1.15,1.67,2.1,2.04
		C35.85,15.49,36.33,15.58,36.81,15.58 M35.89,0C30.3,0,25.02,3.35,22.81,8.84c-0.01,0.03-0.12,0.31-0.29,0.75l0-0.01L4.9,53.52
		L31.04,64l17.62-43.92c0.11-0.25,0.2-0.48,0.3-0.75c2.89-7.22-0.61-15.42-7.83-18.32C39.41,0.33,37.63,0,35.89,0L35.89,0z
		 M36.81,14.58c-0.35,0-0.7-0.06-1.04-0.2c-1.45-0.58-2.15-2.22-1.57-3.67c0.44-1.1,1.5-1.77,2.61-1.77c0.35,0,0.7,0.07,1.05,0.2
		c1.44,0.58,2.14,2.22,1.57,3.67C38.99,13.91,37.93,14.58,36.81,14.58L36.81,14.58z"/>
</g>
<g>
	<path fill="#B01817" d="M36.16,35.62l-0.24,0.58l-1.73-0.7l0.22-0.58c0.09-0.22,0.09-0.45,0-0.67c-0.09-0.22-0.26-0.38-0.48-0.47
		l-4.2-1.69l-1.98,4.94l4.2,1.68c0.72,0.29,1.21,0.77,1.51,1.48c0.29,0.69,0.31,1.38,0.02,2.09l-1.34,3.34
		c-0.29,0.69-0.77,1.19-1.46,1.49c-0.7,0.3-1.4,0.3-2.11,0.01l-4.2-1.68l-0.96,2.38l-1.71-0.69l0.96-2.39l-4.22-1.7
		c-0.7-0.28-1.19-0.76-1.49-1.46c-0.3-0.69-0.31-1.38-0.03-2.08l0.24-0.61l1.71,0.69l-0.24,0.61c-0.09,0.22-0.09,0.45,0.01,0.67
		c0.1,0.22,0.26,0.38,0.48,0.47l4.22,1.7l2-4.98l-4.22-1.7c-0.7-0.27-1.19-0.76-1.5-1.45c-0.3-0.69-0.3-1.38-0.02-2.1l1.32-3.3
		c0.29-0.71,0.78-1.22,1.47-1.51c0.7-0.3,1.39-0.31,2.09-0.03l4.22,1.7l0.96-2.38l1.71,0.69l-0.96,2.38l4.21,1.68
		c0.71,0.29,1.21,0.78,1.51,1.47C36.43,34.21,36.44,34.91,36.16,35.62z M26.03,36.35l1.98-4.94l-4.23-1.69
		c-0.22-0.09-0.45-0.09-0.67,0.01c-0.22,0.1-0.38,0.25-0.47,0.48l-1.32,3.31c-0.09,0.22-0.09,0.44,0.01,0.66
		c0.09,0.23,0.25,0.38,0.48,0.47L26.03,36.35z M31.26,40.44l-4.21-1.69l-1.99,4.97l4.2,1.68c0.22,0.09,0.45,0.09,0.67,0
		c0.22-0.1,0.38-0.26,0.47-0.48l1.34-3.35c0.09-0.22,0.09-0.44-0.01-0.67C31.64,40.68,31.48,40.52,31.26,40.44z"/>
</g>
</svg>
