<?xml version="1.0" encoding="utf-8"?>
<!-- Generator: Adobe Illustrator 15.0.0, SVG Export Plug-In . SVG Version: 6.00 Build 0)  -->
<!DOCTYPE svg PUBLIC "-//W3C//DTD SVG 1.1//EN" "http://www.w3.org/Graphics/SVG/1.1/DTD/svg11.dtd">
<svg version="1.1" id="Layer_1" xmlns="http://www.w3.org/2000/svg" xmlns:xlink="http://www.w3.org/1999/xlink" x="0px" y="0px"
	 width="64px" height="74px" viewBox="0 0 64 74" enable-background="new 0 0 64 74" xml:space="preserve">
<g>
	<polygon fill="#B01817" points="17.512,57.98 14.288,21.827 49.712,21.827 46.483,57.974 31.982,62 	"/>
	<polygon fill="#C91C1C" points="32.003,58.927 43.726,55.677 46.478,24.781 32.003,24.781 	"/>
	<path fill="#B01817" d="M17.584,12h2.256v2.228h2.064V12h2.249v6.744h-2.249v-2.261H19.84v2.261h-2.256V12L17.584,12z"/>
	<path fill="#B01817" d="M27.119,14.234h-1.985V12h6.222v2.234h-1.979v4.51H27.12L27.119,14.234L27.119,14.234z"/>
	<path fill="#B01817" d="M32.347,12h2.352l1.439,2.37L37.591,12h2.344v6.744h-2.246v-3.341l-1.551,2.396h-0.035l-1.549-2.396v3.341
		h-2.207V12z"/>
	<path fill="#B01817" d="M41.058,12h2.25v4.513h3.17v2.23h-5.42V12z"/>
	<polygon fill="#EBEBEB" points="32.003,38.196 26.132,38.196 25.73,33.651 32.003,33.651 32.003,29.219 31.988,29.219 
		20.88,29.219 20.988,30.406 22.076,42.631 32.003,42.631 	"/>
	<polygon fill="#EBEBEB" points="32.003,49.715 31.984,49.72 27.044,48.383 26.729,44.84 24.327,44.84 22.274,44.84 22.898,51.812 
		31.983,54.328 32.003,54.321 	"/>
	<polygon fill="#FFFFFF" points="31.988,38.196 31.988,42.631 37.444,42.631 36.933,48.379 31.988,49.719 31.988,54.326 
		41.077,51.812 41.149,51.058 42.183,39.381 42.294,38.196 41.104,38.196 	"/>
	<polygon fill="#FFFFFF" points="31.988,29.219 31.988,31.972 31.988,33.643 31.988,33.651 42.683,33.651 42.683,33.651 
		42.7,33.651 42.786,32.655 42.991,30.406 43.099,29.219 	"/>
</g>
<g>
	<path fill="#B01817" d="M32,1.155l31,17.908v35.819L32,72.789L1,54.882V19.063L32,1.155 M32,0L0,18.486v36.973l32,18.485l32-18.485
		V18.486L32,0L32,0z"/>
</g>
</svg>
