<?xml version="1.0" encoding="utf-8"?>
<!-- Generator: Adobe Illustrator 15.0.2, SVG Export Plug-In . SVG Version: 6.00 Build 0)  -->
<!DOCTYPE svg PUBLIC "-//W3C//DTD SVG 1.1//EN" "http://www.w3.org/Graphics/SVG/1.1/DTD/svg11.dtd">
<svg version="1.1" xmlns="http://www.w3.org/2000/svg" xmlns:xlink="http://www.w3.org/1999/xlink" x="0px" y="0px" width="64px"
	 height="64px" viewBox="0 0 64 64" enable-background="new 0 0 64 64" xml:space="preserve">
<g id="Layer_1">
	<g>
		<rect y="9" width="63" height="47"/>
		<path fill="#B01817" d="M63,9v46H1V9H63 M64,8H0v48h64V8L64,8z"/>
	</g>
	<line fill="none" stroke="#B01817" stroke-miterlimit="10" x1="0" y1="16.5" x2="64" y2="16.5"/>
	<circle fill="none" stroke="#B01817" stroke-miterlimit="10" cx="4.5" cy="12.5" r="0.5"/>
	<circle fill="none" stroke="#B01817" stroke-miterlimit="10" cx="8.5" cy="12.5" r="0.5"/>
	<circle fill="none" stroke="#B01817" stroke-miterlimit="10" cx="12.5" cy="12.5" r="0.5"/>
</g>
<g id="Layer_2">
	<g>
		<path d="M17.28,46.56c-5.54,0-10.04-4.49-10.04-10.03s4.5-10.04,10.04-10.04c1.25,0,2.46,0.21,3.63,0.67L16.06,37h11.25
			C27.05,42,22.65,46.56,17.28,46.56z"/>
		<path fill="#B01817" d="M17.28,27c1,0,1.98,0.16,2.93,0.47l-4.25,8.87L15.25,38h1.61h8.94h0.97c-0.5,4-4.57,8.31-9.49,8.31
			c-5.26,0-9.54-4.4-9.54-9.66S12.02,27,17.28,27 M17.28,26c-5.82,0-10.54,4.72-10.54,10.54c0,5.82,4.72,10.77,10.54,10.77
			C23.1,47.31,27.82,42,27.82,37H25.8h-8.94l4.47-9.31l0.26-0.65C20.27,26.45,18.82,26,17.28,26L17.28,26z"/>
	</g>
	<g>
		<path d="M20.66,34l4.16-8.45c3.21,1.63,5.31,4.45,5.49,8.45H20.66z"/>
		<path fill="#B01817" d="M25.04,26.74c2.64,1.52,4.41,4.26,4.73,7.26H28.8h-7.33L25.04,26.74 M24.59,25.15l-0.26,0.65L19.86,35
			h8.94h2.03C30.82,30,28.26,26.8,24.59,25.15L24.59,25.15z"/>
	</g>
	<rect x="35.5" y="38.5" stroke="#B01817" stroke-miterlimit="10" width="4" height="8"/>
	<rect x="41.5" y="34.5" stroke="#B01817" stroke-miterlimit="10" width="4" height="12"/>
	<rect x="47.5" y="30.5" stroke="#B01817" stroke-miterlimit="10" width="4" height="16"/>
	<rect x="53.5" y="26.5" stroke="#B01817" stroke-miterlimit="10" width="4" height="20"/>
</g>
</svg>
