<?xml version="1.0" encoding="utf-8"?>
<!-- Generator: Adobe Illustrator 15.0.0, SVG Export Plug-In . SVG Version: 6.00 Build 0)  -->
<!DOCTYPE svg PUBLIC "-//W3C//DTD SVG 1.1//EN" "http://www.w3.org/Graphics/SVG/1.1/DTD/svg11.dtd">
<svg version="1.1" id="Layer_1" xmlns="http://www.w3.org/2000/svg" xmlns:xlink="http://www.w3.org/1999/xlink" x="0px" y="0px"
	 width="64px" height="74px" viewBox="0 0 64 74" enable-background="new 0 0 64 74" xml:space="preserve">
<g>
	<rect x="12" y="17" fill="#B01817" width="40" height="40"/>
	<path fill="#FFFFFF" d="M38.867,48.25c0.809,1.309,1.863,2.285,3.705,2.285c1.557,0,2.561-0.781,2.561-1.857
		c0-1.289-1.025-1.738-2.737-2.492l-0.94-0.41c-2.717-1.146-4.514-2.596-4.514-5.664c0-2.811,2.148-4.957,5.508-4.957
		c2.383,0,4.102,0.828,5.347,3.003l-2.925,1.88c-0.656-1.146-1.348-1.611-2.422-1.611c-1.102,0-1.797,0.703-1.797,1.611
		c0,1.125,0.697,1.592,2.305,2.293l0.938,0.393c3.203,1.367,5,2.773,5,5.902c0,3.395-2.656,5.24-6.229,5.24
		c-3.497,0-5.748-1.654-6.856-3.838L38.867,48.25z M25.59,48.582c0.594,1.045,1.127,1.924,2.418,1.924
		c1.238,0,2.016-0.479,2.016-2.354V35.369h3.754v12.822c0,3.906-2.275,5.664-5.607,5.664c-3.01,0-4.754-1.557-5.635-3.434
		L25.59,48.582z"/>
</g>
<g>
	<path fill="#B01817" d="M32,1.155l31,17.908v35.819L32,72.789L1,54.882V19.063L32,1.155 M32,0L0,18.486v36.973l32,18.485l32-18.485
		V18.486L32,0L32,0z"/>
</g>
</svg>
