<svg version="1.1" id="Layer_1" xmlns="http://www.w3.org/2000/svg" xmlns:xlink="http://www.w3.org/1999/xlink" x="0" y="0" width="64" height="64" viewBox="0 0 64 64" enable-background="new 0 0 64 64" xml:space="preserve"><path fill="#B01817" d="M48 3c8.27 0 15 6.73 15 15s-6.73 15-15 15c-4.79 0-9.34-2.33-12.16-6.24l-0.47-0.66 -0.74 0.33 -11.17 4.91 -0.7 0.31 0.11 0.75C22.96 33.01 23 33.52 23 34c0 0.84-0.11 1.7-0.32 2.58l-0.19 0.78 0.72 0.35 10.01 4.86 0.69 0.34 0.5-0.58c2.1-2.43 5.13-3.83 8.33-3.83 6.07 0 11 4.93 11 11s-4.93 11-11 11 -11-4.93-11-11c0-0.75 0.08-1.51 0.23-2.25l0.16-0.76 -0.7-0.34 -10.17-4.94 -0.67-0.33 -0.5 0.55C18.01 43.7 15.06 45 12 45 5.93 45 1 40.07 1 34s4.93-11 11-11c3.45 0 6.63 1.58 8.74 4.34l0.48 0.63 0.72-0.32 10.97-4.83 0.77-0.34 -0.21-0.82C33.16 20.42 33 19.19 33 18 33 9.73 39.73 3 48 3M48 23c2.76 0 5-2.24 5-5s-2.24-5-5-5 -5 2.24-5 5S45.24 23 48 23M11.88 38.04c2.21 0 4-1.79 4-4 0-2.21-1.79-4-4-4s-4 1.79-4 4C7.88 36.25 9.67 38.04 11.88 38.04M42.75 53.5c2.21 0 4-1.79 4-4s-1.79-4-4-4 -4 1.79-4 4S40.54 53.5 42.75 53.5M48 2c-8.84 0-16 7.16-16 16 0 1.35 0.19 2.65 0.5 3.9l-10.97 4.83C19.34 23.86 15.89 22 12 22 5.37 22 0 27.37 0 34c0 6.63 5.37 12 12 12 3.5 0 6.63-1.5 8.83-3.89L31 47.05c-0.16 0.79-0.25 1.61-0.25 2.45 0 6.63 5.37 12 12 12s12-5.37 12-12 -5.37-12-12-12c-3.63 0-6.88 1.62-9.08 4.17l-10.01-4.86C23.87 35.91 24 34.97 24 34c0-0.59-0.06-1.17-0.14-1.74l11.17-4.91C37.94 31.37 42.65 34 48 34c8.84 0 16-7.16 16-16S56.84 2 48 2L48 2zM48 22c-2.21 0-4-1.79-4-4s1.79-4 4-4 4 1.79 4 4S50.21 22 48 22L48 22zM11.88 37.04c-1.66 0-3-1.34-3-3 0-1.66 1.34-3 3-3s3 1.34 3 3C14.88 35.7 13.53 37.04 11.88 37.04L11.88 37.04zM42.75 52.5c-1.66 0-3-1.34-3-3s1.34-3 3-3 3 1.34 3 3S44.41 52.5 42.75 52.5L42.75 52.5z"/></svg>