<svg version="1.1" id="Layer_1" xmlns="http://www.w3.org/2000/svg" xmlns:xlink="http://www.w3.org/1999/xlink" x="0" y="0" width="64" height="64" viewBox="0 0 64 64" enable-background="new 0 0 64 64" xml:space="preserve"><path fill="#801111" d="M14.09 10.43C14.09 10.43 14.16 10.47 14.09 10.43 14.09 10.43 14.09 10.43 14.09 10.43z"/><path fill="#801111" d="M33.13 13.92c0.03-0.04-1.7-1.29-1.77-1.19C31.95 13.11 32.54 13.51 33.13 13.92 33.16 13.88 33.12 13.92 33.13 13.92z"/><path fill="#801111" d="M34.81 14.92C34.78 14.89 34.79 14.9 34.81 14.92L34.81 14.92z"/><path fill="#801111" d="M40.1 21.81C40.1 21.81 40.06 21.77 40.1 21.81L40.1 21.81z"/><path fill="#801111" d="M41.27 28.32c0.03 0-0.21-1.21-0.27-1.19C41.07 27.53 41.16 27.93 41.27 28.32 41.3 28.31 41.26 28.32 41.27 28.32z"/><path fill="#801111" d="M41.18 29.01C41.2 29.01 41.2 28.99 41.18 29.01 41.18 29.01 41.19 29 41.18 29.01z"/><path fill="#801111" d="M41.38 28.71C41.48 28.73 41.27 28.44 41.38 28.71 41.41 28.71 41.37 28.68 41.38 28.71z"/><path fill="#801111" d="M41.38 28.6C41.38 28.6 41.36 28.55 41.38 28.6L41.38 28.6z"/><path fill="#801111" d="M39.86 35.6C39.27 37.95 39.75 36.29 39.86 35.6 39.86 35.6 39.78 36.1 39.86 35.6z"/><path fill="#801111" d="M37.51 44.96C38.22 42.5 37.59 45.52 37.51 44.96 37.57 44.76 37.48 45.08 37.51 44.96z"/><path fill="#801111" d="M36.2 47.09C36.2 47.09 36.14 47.1 36.2 47.09 36.2 47.09 36.2 47.09 36.2 47.09z"/><path fill="#801111" d="M36.46 46.95C36.54 47.01 36.45 46.73 36.46 46.95 36.48 46.97 36.46 46.93 36.46 46.95z"/><path fill="#801111" d="M36.49 46.88C36.49 46.88 36.49 46.83 36.49 46.88L36.49 46.88z"/><path fill="#801111" d="M8.15 51.8c-0.02-0.01-0.34-0.22-0.34-0.21C7.92 51.66 8.03 51.73 8.15 51.8 8.13 51.79 8.14 51.81 8.15 51.8z"/><path fill="#801111" d="M6.52 51.66C6.48 51.72 6.53 51.66 6.52 51.66 6.52 51.66 6.53 51.66 6.52 51.66z"/><path fill="#801111" d="M35.14 56.74c0.5-0.32 0.97-0.68 1.42-1.08C36.45 55.59 34.86 56.93 35.14 56.74 35.13 56.75 35.66 56.41 35.14 56.74z"/><path fill="#801111" d="M41.2 50.15c-0.07 0.09-0.75 0.88-0.72 0.91C40.77 50.79 41 50.49 41.2 50.15 41.13 50.24 41.21 50.14 41.2 50.15z"/><path fill="#801111" d="M43.75 47.24c0.02-0.02 1.24-1.42 1.19-1.44C44.84 45.75 43.52 47.5 43.75 47.24 43.77 47.22 44.14 46.79 43.75 47.24z"/><path fill="#801111" d="M44.83 43.99C44.83 43.99 44.88 43.97 44.83 43.99 44.83 43.99 44.83 43.99 44.83 43.99z"/><path fill="#801111" d="M46.89 38.84c-0.02 0.09-0.23 1.08-0.19 1.09C46.82 39.57 46.88 39.21 46.89 38.84 46.88 38.93 46.89 38.83 46.89 38.84z"/><path fill="#801111" d="M46.7 37.17C46.7 37.18 46.72 37.22 46.7 37.17L46.7 37.17z"/><path fill="#801111" d="M47.34 30.11c0.59-1.11 0.29-2.22-0.25-3.66 0.02-0.23-1.17-3.03-1.27-3.02 0.12 0.47 0.25 0.94 0.4 1.4 -0.38-0.78-0.46-0.98-0.25-0.59 -0.32-1-0.4-3.61-1.19-5.01 0 0.02-1.58-2.57-1.62-2.56 0.14 0.41 0.32 0.8 0.52 1.18 -0.35-0.48-4.92-9.03-6.13-8.28 0.22 0.32 0.46 0.61 0.73 0.89 -0.79-0.61-4.34-4.16-5.01-4.38 -1.28-0.2-4.46-1.68-4.39-1.74 -0.79-0.34-1.59-0.67-2.39-1 -0.58-0.11 2.54 0.92 2.54 0.92 -0.47 0.13-4.62-1.48-5.26-1.62 1.1-0.09 3.29 1.05 4.15 0.82 -1.21 0.48-7.44-1.56-9.54-1.34 -2.34 0.25-6.83 1.17-8.33 1.5C8.91 3.7 5.9 4.08 5.52 4.12 4.9 4.19 1.45 6.44 1.69 6.86c0.49-0.28 0.94-0.62 1.35-1.01C2.22 6.76 1.3 7.51 0.7 8.59c0.27-0.45 0.18-0.28-0.27 0.5 0.2-0.84 0.6-1.57 1.19-2.2 -1.37-0.65-1.74 6.99 0.86 8.41 -0.79-0.36 6.92 1.34 6.66-0.66 -0.94 0.42-1.92 0.72-2.94 0.89 2.26-0.38 7.06-3.41 8.42-4.25 2.71-1.01 0.64-0.72 3.26-1.08 -0.88 0.29 2.89-0.85 2.87-0.65 -0.46-0.05-0.93-0.04-1.39 0.03 2.2-0.58 5.47-0.01 8.15 1.25 -0.69-0.22 3.92 1.75 3.81 1.82 -0.51-0.41-1.04-0.79-1.59-1.15 2.56 1.15 6.06 4.77 6.48 5.11 0.84 0.09 1.22 3.71 1.89 3.69 -0.1-0.67-0.28-1.33-0.54-1.96 0.26 0.23 1.32 2.15 1.45 2.14 -0.12-0.49-0.3-0.97-0.52-1.42 0.73 0.82 1.14 1.77 1.24 2.85 -0.19-0.48-0.43-0.93-0.71-1.36 -0.06 0.04 1.71 6.51 2.02 6.52 0.07-0.37 0.07-0.73 0.01-1.1 0.35 1.05 0.96 2.83-0.03 2.66 0 0.05 0.09 0.67 0.22 0.89 -0.87-1.23 0.46-0.39 0.12-0.22 0.85-0.51-0.9-0.72-0.96-0.62 -0.11 0.18-0.84 6.66-0.52 6.83 0.25-0.42 0.43-0.87 0.53-1.35 0.23-2.18-1.2 5.87-2.4 3.66 -0.09-0.2 1.23 2.58 0.48 2.22 0.39-0.44 0.68-0.94 0.87-1.5 0.04 0.42-0.01 0.83-0.16 1.23 -0.67-0.67-0.88 4.23-1.26 3.95 0.31-0.38 0.57-0.79 0.78-1.24 -0.12 0.36-1.37 4.38-2.38 4.66 -0.02 0.06-9.49 6.94-12.24 7.83 -0.7 0.29-3.79 0.59-5.32-0.3 0.05 0 3.16 0.8 3.45 0.54 -1.57 1.68-13.57-4.28-13.88-4.08 0.26 0.46 0.64 0.81 1.13 1.02 -0.51 0-0.95-0.17-1.34-0.49 0.45-0.17-0.07 0.16 0.11 0.49 -0.35-0.37-0.62-0.8-0.81-1.27 -0.54 0.27-0.24 1.58-1.01 0.55 0.62 0.66-1.08 0.73-2.23 2.62 -2.46 5.21 3.66 7.9 5.93 8.21 0.31 0.13 4.68 0.63 4.82 0.27 -0.73-0.06-1.45-0.13-2.17-0.21 0.41 0.01 19.46-3.39 19.06-3.96 -0.54 0.14-1.07 0.3-1.6 0.48 0.42-0.18 5.32-1.65 5.17-2.01 -0.72 0.24-0.82 0.22-0.3-0.05 -0.52 0.15-1.03 0.33-1.52 0.55 0.55-0.28 5.44-3.35 5.24-3.6 -0.39 0.09-0.73 0.28-1.02 0.57 0.06-0.56 5.65-6.74 4.17-5.32 0.58-0.56 1.15-1.12 1.74-1.67 -0.48 0.3-0.93 0.63-1.35 1.01 -0.74 0.79 5.84-5.92 4.17-6.29 -0.21 0.61-0.43 1.22-0.65 1.83 -0.02-0.41-0.01-0.83 0.04-1.24 -0.23 0.46-0.52 0.54-0.89 0.25 1.34 0.49 1.38-3.03 1.67-2.91 0.19 0.08 0.63-4.03 0.79-7.42C47.5 33.02 46.72 30.28 47.34 30.11 47.38 30.02 47.29 30.14 47.34 30.11zM23.28 60.98C22.19 60.71 25.91 60.08 23.28 60.98 23.19 60.96 23.59 60.88 23.28 60.98zM40.21 22.27c0.11 0.1 0.03 0.13 0.12 0.23C40.29 22.42 40.25 22.34 40.21 22.27 40.32 22.36 40.24 22.34 40.21 22.27zM34.79 14.87c0.19 0.03 0.26 0.12 0.38 0.27C35.04 15.05 34.91 14.96 34.79 14.87 34.97 14.9 34.78 14.88 34.79 14.87zM46.66 35.91C46.64 35.87 46.63 35.73 46.66 35.91 46.65 35.9 46.65 35.88 46.66 35.91zM45.4 42.97c0.05 0.15 0.03 0.38 0.03 0.58C45.42 43.36 45.41 43.17 45.4 42.97 45.45 43.12 45.4 42.97 45.4 42.97zM39.81 39.5c-0.08-0.11-0.11-0.31 0.05-0.4C39.84 39.23 39.83 39.37 39.81 39.5 39.73 39.39 39.81 39.5 39.81 39.5zM35.73 15.26c0.16 0.21 0.1 0.2-0.17-0.01C35.62 15.25 35.67 15.25 35.73 15.26 35.89 15.47 35.67 15.26 35.73 15.26zM35.04 14.13C34.63 13.55 35.74 14.96 35.04 14.13 35.01 14.08 35.1 14.2 35.04 14.13zM24.92 9.07c0.2-0.02-0.29-0.05-0.33-0.06C24.7 9.03 24.81 9.05 24.92 9.07 25.13 9.05 24.91 9.06 24.92 9.07zM21.83 60.77c0.13-0.04 0.06-0.01 0.32 0C22.04 60.77 21.94 60.77 21.83 60.77 21.96 60.73 21.84 60.77 21.83 60.77zM13.96 10.28c-0.05 0-0.1 0-0.15 0C13.85 10.28 13.9 10.28 13.96 10.28 13.9 10.28 13.95 10.28 13.96 10.28zM13.75 10.28C13.74 10.28 13.82 10.22 13.75 10.28 13.75 10.28 13.75 10.28 13.75 10.28zM4.58 12.2c0.06 0.02 0.09 0.07 0.1 0.14C4.65 12.29 4.62 12.25 4.58 12.2 4.64 12.22 4.6 12.24 4.58 12.2zM13.71 10.26C13.71 10.29 13.71 10.29 13.71 10.26L13.71 10.26zM13.74 10.28C13.74 10.28 13.75 10.2 13.74 10.28 13.74 10.28 13.74 10.28 13.74 10.28zM40.48 39.09c-0.03 0.18 0 0.21-0.1 0.3C40.41 39.28 40.44 39.19 40.48 39.09 40.44 39.27 40.45 39.17 40.48 39.09zM9.08 52.88C8.75 52.69 9.69 53.1 9.08 52.88 8.98 52.82 9.1 52.89 9.08 52.88zM21.81 60.62C22.4 60.64 21.02 60.65 21.81 60.62 21.86 60.62 21.74 60.62 21.81 60.62zM46.3 37.16C46.33 37.17 46.28 37.29 46.3 37.16 46.31 37.16 46.3 37.18 46.3 37.16zM46.52 35.6c0.02-0.2 0.02-0.41 0.05-0.61C46.63 35.2 46.62 35.41 46.52 35.6 46.54 35.39 46.53 35.63 46.52 35.6zM46.61 28.94C46.81 27.62 46.91 29.19 46.61 28.94 46.64 28.75 46.67 28.99 46.61 28.94zM15.01 3.58C14.9 3.57 14.99 3.55 15.01 3.58 14.98 3.58 15.01 3.58 15.01 3.58zM0.98 10.98c0.03 0.06 0.01 0.14-0.02 0.2C0.96 11.11 0.97 11.04 0.98 10.98 1.01 11.03 0.97 11.04 0.98 10.98zM13.05 10.6c0.2-0.15 0.43-0.22 0.67-0.2C13.5 10.46 13.27 10.53 13.05 10.6 13.25 10.44 13.04 10.62 13.05 10.6zM14.63 10.26C14.14 10.73 13.61 10.05 14.63 10.26 14.51 10.38 14.63 10.26 14.63 10.26zM17.5 60.83c0.04 0.01 0.08 0.03 0.13 0.04C17.59 60.85 17.54 60.84 17.5 60.83 17.54 60.84 17.49 60.86 17.5 60.83zM22.63 60.65c-0.15 0.06-0.31 0.06-0.47 0.02C22.31 60.67 22.47 60.66 22.63 60.65 22.48 60.71 22.63 60.65 22.63 60.65zM44.56 44.23C44.71 44.21 44.3 44.67 44.56 44.23 44.61 44.22 44.53 44.29 44.56 44.23zM44.63 44.13c-0.06-0.01-0.04-0.06 0.08-0.16C44.68 44.02 44.65 44.08 44.63 44.13 44.56 44.12 44.63 44.14 44.63 44.13zM44.89 43.97c-0.11 0.07-0.06-0.03 0-0.14C44.89 43.88 44.89 43.93 44.89 43.97 44.77 44.05 44.89 43.93 44.89 43.97zM44.88 43.67c0.02 0.09-0.01 0.16-0.08 0.23C44.83 43.82 44.86 43.75 44.88 43.67 44.9 43.76 44.88 43.67 44.88 43.67zM47.12 29.68C47.12 29.69 47.12 29.65 47.12 29.68 47.12 29.68 47.12 29.67 47.12 29.68zM46.85 29.52c-0.01 0.04-0.01 0.09-0.02 0.13C46.84 29.61 46.85 29.56 46.85 29.52 46.85 29.56 46.85 29.51 46.85 29.52zM32.98 6.94C33.05 7.13 32.35 6.65 32.98 6.94 33.01 7.02 32.9 6.9 32.98 6.94zM0.79 9.55c0 0.07-0.01 0.06-0.06 0.17C0.75 9.66 0.77 9.61 0.79 9.55 0.79 9.63 0.77 9.57 0.79 9.55zM10.88 11.73c0.07-0.18 0.12-0.17 0.31-0.25C11.09 11.57 10.99 11.65 10.88 11.73 10.95 11.56 10.99 11.65 10.88 11.73zM11.6 11.17C10.82 11.49 12.67 10.82 11.6 11.17 11.53 11.2 11.61 11.16 11.6 11.17zM13.62 10.6C13.61 10.82 12.52 10.91 13.62 10.6 13.61 10.66 13.45 10.64 13.62 10.6zM14.98 9.98C16.57 10.07 14.66 10.31 14.98 9.98 15.2 9.99 14.93 10.04 14.98 9.98zM34.41 13.48C36.77 15.48 33.44 13.46 34.41 13.48 34.67 13.7 34.36 13.5 34.41 13.48zM35.29 15.78C35.07 15.29 36.92 16.63 35.29 15.78 35.26 15.73 35.49 15.89 35.29 15.78zM35.86 15.39C35.51 14.83 36.45 16.32 35.86 15.39 35.84 15.35 35.87 15.41 35.86 15.39zM41.53 27.55C41.89 28.77 41.71 28.34 41.53 27.55 41.5 27.44 41.53 27.55 41.53 27.55zM41.67 37.55C41.6 37.89 41.4 37.89 41.67 37.55 41.65 37.65 41.61 37.63 41.67 37.55zM9.75 53.39C8.42 52.25 10.14 53.31 9.75 53.39 9.58 53.24 9.8 53.37 9.75 53.39zM6.89 60.1C8.43 61.57 7.04 60.05 6.89 60.1 7.12 60.32 6.85 60.12 6.89 60.1zM17.73 60.84C17.25 60.61 18.44 60.62 17.73 60.84 17.68 60.81 17.81 60.81 17.73 60.84zM24.3 60.59c-0.09 0.04-0.19 0.05-0.3 0.04C24.1 60.61 24.2 60.6 24.3 60.59 24.21 60.63 24.31 60.59 24.3 60.59zM44.26 44.69C45.68 43.14 43.76 45.65 44.26 44.69 44.42 44.53 44.26 44.69 44.26 44.69zM46.45 37.47C46.44 37.46 46.65 36.96 46.45 37.47 46.35 37.44 46.47 37.4 46.45 37.47zM46.86 36.76C46.85 36.72 46.88 36.71 46.86 36.76 46.86 36.75 46.86 36.75 46.86 36.76zM46.74 36.43C46.82 36.76 47.04 35.88 46.74 36.43 46.7 36.29 46.77 36.37 46.74 36.43zM47.12 28.12c0.1 0.3 0.31 0.61 0.2 0.91C47.17 28.74 47.1 28.44 47.12 28.12 47.22 28.43 47.12 28.12 47.12 28.12zM44.94 20.97c0.09 0.35 0.26 0.72 0.09 1.04C44.93 21.67 44.9 21.33 44.94 20.97 45.03 21.32 44.94 20.97 44.94 20.97zM42.37 16.33c0.92 0.65-1.48-1.28-1.58-2.51C47.35 26.19 41.33 15 42.37 16.33 42.46 16.39 42.01 15.87 42.37 16.33zM40.05 12.56c0.18 0.21 0.45 0.37 0.42 0.64C40.33 12.99 40.19 12.78 40.05 12.56 40.23 12.77 40.05 12.56 40.05 12.56zM36.76 9.52c0.84 0.56 0.76 1.98-2.05-1.47C49.43 18.9 35.17 8.5 36.76 9.52 36.85 9.58 36.33 9.24 36.76 9.52zM34.4 8.07C32.81 7 33.17 6.7 34.4 8.07 34.01 7.81 34.1 7.74 34.4 8.07zM31.89 5.98C34.18 6.4 31.54 6.09 31.89 5.98 31.94 5.98 31.89 5.98 31.89 5.98zM26.13 3.37c0.66 0.21 1.31 0.43 1.97 0.64 -0.42-0.14-0.86-0.26-1.29-0.35 0.03-0.08 1.52 0.55 1.53 0.56C21.26 1.38 26.84 3.45 26.13 3.37 26.82 3.46 26.09 3.36 26.13 3.37zM13.38 3.39c0.78-0.06 1.56-0.11 2.34-0.17C15.96 3.17 12.19 3.91 13.38 3.39 14.12 3.08 13.38 3.39 13.38 3.39zM8.05 4.26C10.94 3.89 7.75 4.46 8.05 4.26 8.4 4.21 8.05 4.26 8.05 4.26zM1.44 7.71C2.29 6.68 0.57 8.65 1.44 7.71 1.89 7.17 1.37 7.8 1.44 7.71zM0.41 11.72c-0.23-0.36-0.04-1.2 0.09-1.65C0.47 10.62 0.44 11.17 0.41 11.72 0.18 11.36 0.4 11.65 0.41 11.72zM12.36 11.51c-1 0.81-2.02 1.61-3.05 2.39 -0.99 0.78 3.97-3.39 3.03-2.65C9.46 13.95 18.67 7.53 12.36 11.51 11.78 11.88 12.75 11.27 12.36 11.51zM15.94 10.37c-0.34 0.11-0.67 0.32-1.02 0.25C15.24 10.46 15.58 10.38 15.94 10.37 15.6 10.48 15.94 10.37 15.94 10.37zM25.06 9.68C21.39 8.81 25.68 9.6 25.06 9.68 24.69 9.59 25.06 9.68 25.06 9.68zM32.47 12.95c-1.32-0.93-1.24-0.96 2.35 1.83C33.86 14.31 32.52 12.98 32.47 12.95 32.31 12.84 33.2 13.46 32.47 12.95zM36.07 16.25C35.39 15.71 36.48 16.29 36.07 16.25 35.95 16.16 36.07 16.25 36.07 16.25zM39.57 20.7C39.49 20.71 41.51 24.58 39.57 20.7 39.85 20.66 39.64 20.83 39.57 20.7zM40.22 23.41c-0.11-0.27-0.35-0.38-0.29-0.66C40.03 22.96 40.12 23.18 40.22 23.41 40.11 23.14 40.22 23.41 40.22 23.41zM41.36 29.77c0 0.05 0 0.09-0.01 0.14C41.36 29.87 41.36 29.82 41.36 29.77 41.36 29.82 41.36 29.76 41.36 29.77zM40.8 29.72C40.68 32.97 41.19 29 40.8 29.72 40.79 30.05 40.77 29.78 40.8 29.72zM40.23 35.96c0.21 0.06-0.24 1.58-0.48 1.64C39.91 37.05 40.07 36.51 40.23 35.96 40.44 36.02 40.23 35.96 40.23 35.96zM39.51 37.58C39.5 37.59 39.37 37.63 39.51 37.58 39.51 37.59 39.51 37.58 39.51 37.58zM37.7 45.52C39.66 41.03 36.02 49.37 37.7 45.52 37.88 45.1 37.58 45.8 37.7 45.52zM36.07 47.29C36.21 46.86 36.3 47.15 36.07 47.29 36.15 47.05 36.11 47.27 36.07 47.29zM35.43 47.48C35.86 47.29 35.27 47.94 35.43 47.48 35.48 47.46 35.41 47.54 35.43 47.48zM22.14 55.49c-0.17 0.21-0.84-0.01-1.1-0.07C21.41 55.44 21.78 55.46 22.14 55.49 21.97 55.7 21.78 55.48 22.14 55.49zM20.74 55.48C22.76 55.61 21.48 55.5 20.74 55.48 20.87 55.49 20.74 55.48 20.74 55.48zM10.36 52.81C12.43 54.42 8.08 50.86 10.36 52.81 10.56 52.96 10.28 52.74 10.36 52.81zM7.65 61.12C3.56 61.12 8.14 61.12 7.65 61.12 7.19 61.12 7.65 61.12 7.65 61.12zM16.07 61.98c-2.11 0.44 1.46-0.52 1.75-0.46C8.24 64.36 17.45 61.69 16.07 61.98 15.86 62.02 16.69 61.85 16.07 61.98zM18.75 61.24c-1.77 0.51 1.69-0.55 2.18-0.53C10.86 62.36 20.31 60.78 18.75 61.24 18.51 61.32 19.53 61.01 18.75 61.24zM28.41 59.64c-0.39 0.12-0.78 0.21-1.18 0.29C27.62 59.83 28.02 59.73 28.41 59.64 28.02 59.75 28.32 59.64 28.41 59.64zM35.56 55.98c-1.49 1.08 1.63-1.62 1.42-1.33C37.18 55.06 35.35 56.14 35.56 55.98 35.43 56.07 36.12 55.56 35.56 55.98zM45.44 44.55c-0.6 0.73-1.2 1.47-1.8 2.2C43.57 46.66 45.83 43.99 45.44 44.55 44.92 45.33 45.47 44.51 45.44 44.55zM46.47 39.04c0.75 1.33-0.47-3.5-0.47-1.93C46 38.93 48.23 32.8 46.47 39.04 46.35 38.83 46.57 38.7 46.47 39.04zM47.41 34.42C47.39 34.45 47.3 34.33 47.41 34.42 47.4 34.43 47.41 34.42 47.41 34.42zM47.16 34.77C47.39 36.77 46.82 34.32 47.16 34.77 47.19 35.02 47.16 34.77 47.16 34.77z"/><path fill="#801111" d="M43.12 16.61c0.01 0.02-0.82-1.13-0.88-1.07C42.53 15.9 42.82 16.26 43.12 16.61 43.13 16.63 43.12 16.61 43.12 16.61z"/><path fill="#801111" d="M37.5 9.53C36.33 8.88 36.3 8.78 37.5 9.53 37.52 9.55 37.14 9.31 37.5 9.53z"/><path fill="#801111" d="M32.98 6.99C32.98 6.99 32.99 6.94 32.98 6.99L32.98 6.99z"/><path fill="#801111" d="M15.05 62.53c0.8-0.12 1.6-0.31 2.37-0.55C17.38 61.9 14.58 62.59 15.05 62.53 15.06 62.53 15.87 62.43 15.05 62.53z"/><path fill="#801111" d="M11.34 12.75c-0.17-0.11-1.89 2.03-2.09 1.86C10.01 14.06 10.7 13.44 11.34 12.75 11.16 12.64 11.35 12.75 11.34 12.75z"/><path fill="#B01817" d="M49.9 54.19C49.91 54.19 49.85 54.16 49.9 54.19 49.91 54.19 49.9 54.19 49.9 54.19z"/><path fill="#B01817" d="M30.87 50.71c0 0 1.68 1.32 1.77 1.19C32.05 51.51 31.46 51.11 30.87 50.71 30.87 50.7 30.88 50.7 30.87 50.71z"/><path fill="#B01817" d="M29.19 49.7C29.22 49.73 29.21 49.72 29.19 49.7L29.19 49.7z"/><path fill="#B01817" d="M23.9 42.82C23.9 42.81 23.94 42.85 23.9 42.82L23.9 42.82z"/><path fill="#B01817" d="M22.73 36.3c-0.02 0 0.2 1.2 0.27 1.19C22.93 37.09 22.84 36.69 22.73 36.3 22.7 36.31 22.74 36.3 22.73 36.3z"/><path fill="#B01817" d="M22.82 35.61C22.83 35.59 22.77 35.65 22.82 35.61 22.82 35.61 22.81 35.61 22.82 35.61z"/><path fill="#B01817" d="M22.62 35.91C22.51 35.89 22.74 36.17 22.62 35.91 22.59 35.91 22.63 35.94 22.62 35.91z"/><path fill="#B01817" d="M22.62 36.02C22.62 36.02 22.64 36.07 22.62 36.02L22.62 36.02z"/><path fill="#B01817" d="M26.49 19.66C25.79 22.12 26.41 19.11 26.49 19.66 26.43 19.86 26.52 19.54 26.49 19.66z"/><path fill="#B01817" d="M27.8 17.53C27.8 17.53 27.86 17.52 27.8 17.53 27.8 17.53 27.8 17.53 27.8 17.53z"/><path fill="#B01817" d="M27.54 17.67C27.46 17.61 27.55 17.89 27.54 17.67 27.52 17.65 27.54 17.69 27.54 17.67z"/><path fill="#B01817" d="M27.51 17.74C27.51 17.74 27.5 17.79 27.51 17.74L27.51 17.74z"/><path fill="#B01817" d="M55.85 12.82c0.03 0.03 0.32 0.2 0.34 0.21C56.08 12.96 55.97 12.89 55.85 12.82 55.89 12.84 55.86 12.81 55.85 12.82z"/><path fill="#B01817" d="M57.47 12.96C57.53 12.9 57.47 12.96 57.47 12.96 57.47 12.96 57.46 12.96 57.47 12.96z"/><path fill="#B01817" d="M28.86 7.88C26.5 9.45 28.25 8.27 28.86 7.88 28.86 7.88 28.34 8.21 28.86 7.88z"/><path fill="#B01817" d="M22.8 14.47C23.64 13.44 23.62 13.56 22.8 14.47 22.87 14.38 22.79 14.48 22.8 14.47z"/><path fill="#B01817" d="M20.25 17.38c-0.42 0.46-0.82 0.94-1.19 1.44C19.16 18.87 20.48 17.12 20.25 17.38 20.24 17.39 19.86 17.83 20.25 17.38z"/><path fill="#B01817" d="M19.17 20.63C19.17 20.63 19.12 20.65 19.17 20.63 19.17 20.63 19.17 20.63 19.17 20.63z"/><path fill="#B01817" d="M17.11 25.78c0.01-0.09 0.22-1.09 0.19-1.09C17.18 25.05 17.12 25.41 17.11 25.78 17.12 25.7 17.11 25.79 17.11 25.78z"/><path fill="#B01817" d="M17.3 27.45C17.3 27.45 17.28 27.4 17.3 27.45L17.3 27.45z"/><path fill="#B01817" d="M20.88 48.01c-0.01-0.01 0.81 1.13 0.88 1.07C21.47 48.72 21.18 48.36 20.88 48.01 20.87 48 20.88 48.01 20.88 48.01z"/><path fill="#B01817" d="M26.5 55.09C27.68 55.73 27.7 55.84 26.5 55.09 26.48 55.08 26.86 55.31 26.5 55.09z"/><path fill="#B01817" d="M31.02 57.63C31.02 57.63 31.01 57.68 31.02 57.63L31.02 57.63z"/><path fill="#B01817" d="M46.63 2.64c0.2-0.07 2.35-0.65 2.36-0.57C48.81 1.73 46.23 2.76 46.63 2.64 46.83 2.57 46.6 2.64 46.63 2.64z"/><path fill="#B01817" d="M52.68 51.83c0.07-0.07 1.98-1.89 2.07-1.81C54.4 49.81 52.36 52.15 52.68 51.83 52.75 51.77 53.26 51.27 52.68 51.83z"/><path fill="#B01817" d="M63.89 52.79c-0.07-1.28-1.88-3.2-2.37-3.47 0.79 0.36-6.93-1.33-6.66 0.66 0.94-0.44 1.92-0.73 2.94-0.89 0.15-0.03-14.65 6.73-14.54 5.98 0.47 0.05 0.93 0.04 1.39-0.03C42.89 55.5 42.37 55 41.14 55c-2.76 0-2.35-0.13-4.64-1.22 0.67 0.21-3.91-1.76-3.81-1.82 0.51 0.41 1.04 0.8 1.59 1.15 -2.08-0.94-8.06-8.81-8.37-8.8 0.11 0.67 0.29 1.32 0.54 1.96 -0.25-0.22-1.33-2.15-1.45-2.14 0.12 0.49 0.29 0.97 0.53 1.42 -0.73-0.82-1.14-1.77-1.24-2.85 0.2 0.47 0.44 0.93 0.71 1.36 0.18-0.09-2.21-7.54-2.03-5.42 -0.44-1.33-0.05-2.32-0.25-3.58 0.78 1.4-0.26 0.36-0.06 0.25 -0.84 0.48 0.88 0.74 0.95 0.63 0.59-0.97 0.11-2.32-0.06-3.39 0.68 0.01 8.55 0.92 8.82 0.34 -0.49-0.17-1-0.26-1.52-0.27 0.68-0.04 1.37-0.07 2.05-0.07 -0.03-0.14-4.43-0.16-4.78-0.2 1.14-0.02 14.89-0.28 15.1 0.37 -0.09-0.35-7.95-0.53-7.37-0.44 0.41-0.01 0.48-0.06 0.21-0.17 2.37 0.3 17.87 2.75 19.31 0.69 -0.33 0.44-9.58-0.33-9.12-0.32 1.72-0.44 5.69 0.57 7.35-0.18 -3.01 1.37-2.5-1.23-2.33-0.45 -0.64-0.06-1.29-0.08-1.93-0.08 -0.76-0.01 5.46-0.1 5.39 0.22 -0.02 0.09-0.36 0.4-0.46 0.43 3.04-0.53-0.28-0.21 1.67-0.21 -0.23-0.03-0.12-0.1 0.32-0.2 -0.03 0.35-0.21 0.56-0.56 0.64 0.43-0.04 0.35 0.02-0.24 0.18 1.37 0.37 2.71-0.54 2.14-1.83 0.16 0.49 0.18 0.98 0.05 1.47 0.68 0.43-0.8-2.88-0.63-2.71 0.66 0.39 1.07 0.96 1.21 1.72 -2.9-1.02-7.01-3.52-11.88-3.68 -3.69-0.12-8.22-0.1-11.25-0.01 -3.67-0.35-9.54 0.34-11.07 0.42 0.06-0.21 1.53-2.2 1.96-1.41 -0.16-0.31-0.88-0.46-1.16-0.52 0.02-0.04 1.02-1.54 0.68-1.71 -0.39 0.44-0.68 0.94-0.87 1.51 -0.05-0.42 0-0.83 0.16-1.23 0.78 0.82 0.69-4.34 1.26-3.95 -0.31 0.38-0.57 0.79-0.78 1.24 1.87-5.41 9.4-10.78 14.63-12.49 0.43-0.18 4.1-0.82 5.32 0.34 -0.44-0.04-3.04-0.91-3.45-0.57 1.43-1.61 13.73 4.16 13.88 4.07 -0.26-0.47-0.64-0.81-1.13-1.02 0.65-0.51 1.77 0.96 1.23 0 0.35 0.37 0.62 0.8 0.81 1.27 0.76-0.39 0-1.35 1.07-0.54 -0.23-0.25 5.08-9.63-3.76-10.83 -0.31-0.13-4.69-0.63-4.82-0.27 0.73 0.06 1.45 0.13 2.18 0.21 0.02 0-19.46 3.42-19.06 3.97 0.54-0.15 1.07-0.31 1.6-0.48 -0.42 0.18-5.32 1.65-5.17 2.01 0.71-0.24 0.81-0.22 0.3 0.05 0.52-0.15 1.03-0.33 1.52-0.55 -0.65 0.33-5.41 3.39-5.24 3.6 0.39-0.09 0.73-0.28 1.02-0.57 -0.05 0.55-5.65 6.73-4.18 5.32 -0.58 0.56-1.16 1.12-1.74 1.67 0.48-0.3 0.93-0.63 1.35-1.01 0.75-0.81-5.84 5.94-4.17 6.29 0.21-0.61 0.43-1.22 0.65-1.83 0.58 1.89-0.45 0.19 0.85 0.99 -1.07-0.39-2.27 4.22-1.14 2.03 -0.37 1.68-1.28 3.04-1.72 4.75 0.02-0.32 0.01-0.17-0.01 0.46 -0.03-0.22-3.65-1.33-3.95-0.69 0.36 0.16 0.74 0.25 1.13 0.27 -3.01-0.04-6.94 3.16-7.68 3.07 0.45-0.02 0.55 0 0.32 0.06 0.91-0.06 0.98 0.19 1.9 0.07 -0.58 0.03-1.16 0.1-1.73 0.22 0.93-2.04 2.21 2.51 1.32 0.44 -0.01-0.02 2.05 0.16 2.2 0.18 -0.15 0.01-1.15 0.18-1.17 0.37 -0.1 0.91 9.08-0.76 7.4-0.2 0.71-0.4 0.54 8.64 2.31 8.41 -0.11-0.47-0.24-0.94-0.4-1.4 0.37 0.78 0.46 0.98 0.25 0.59 -0.06-0.18 1.57 7.89 2.81 7.56 -0.14-0.41-0.32-0.8-0.52-1.18 0.25 0.35 5.14 9.08 6.13 8.28 -0.22-0.31-0.46-0.61-0.73-0.88 1.93 1.49 8.53 7.12 9.4 6.12 0.79 0.35 1.59 0.68 2.39 1 -0.89-0.19-1.73-0.5-2.54-0.92 0.52-0.19 4.41 1.43 5.26 1.61 -1.32 0.12-3.03-1-4.15-0.82 1.91-0.82 10.46 0.84 13.71 0.65 2.94-0.16 6.47-1.05 8.69-1.3 0.62-0.07 4.06-2.37 3.83-2.74 -0.49 0.28-0.94 0.61-1.35 1.01 1.48-1.61 2.13-2.07 2.61-3.24 -0.2 0.84-0.6 1.57-1.19 2.2C63.69 58.32 63.67 52.08 63.89 52.79 63.89 52.72 64.03 53.23 63.89 52.79zM40.72 3.64C41.88 3.78 38.07 4.55 40.72 3.64 40.81 3.65 40.41 3.74 40.72 3.64zM54.44 31.64C54.44 31.65 54.38 31.67 54.44 31.64 54.44 31.64 54.44 31.64 54.44 31.64zM50.36 31.73c-0.3 0.01-0.61 0.01-0.91 0C49.76 31.73 50.06 31.73 50.36 31.73 50.06 31.75 50.17 31.73 50.36 31.73zM27.64 32.52c-0.81-0.03-1.62-0.06-2.42-0.09C29.43 31.32 26.77 32.42 27.64 32.52 26.83 32.48 27.29 32.48 27.64 32.52zM23.79 42.35c-0.11-0.1-0.04-0.12-0.12-0.23C23.71 42.2 23.75 42.28 23.79 42.35 23.68 42.25 23.76 42.28 23.79 42.35zM29.21 49.75c-0.19-0.03-0.26-0.12-0.38-0.27C28.96 49.57 29.09 49.66 29.21 49.75 29.03 49.72 29.22 49.74 29.21 49.75zM18.6 21.65C18.38 21.06 18.81 20.78 18.6 21.65 18.54 21.5 18.6 21.65 18.6 21.65zM24.19 25.12c0.08 0.11 0.11 0.31-0.05 0.4C24.15 25.39 24.17 25.25 24.19 25.12 24.27 25.23 24.19 25.12 24.19 25.12zM54.78 31.35c0.03 0.02-0.09-0.02-0.03-0.01C54.75 31.35 54.77 31.35 54.78 31.35 54.8 31.37 54.78 31.35 54.78 31.35zM54.61 31.3C54.32 30.92 55.15 31.4 54.61 31.3 54.58 31.26 54.61 31.3 54.61 31.3zM28.27 49.36c-0.16-0.21-0.1-0.2 0.17 0.02C28.38 49.37 28.32 49.36 28.27 49.36 28.11 49.15 28.32 49.36 28.27 49.36zM28.96 50.49C29.37 51.07 28.27 49.67 28.96 50.49 28.99 50.54 28.9 50.42 28.96 50.49zM39.08 55.55c-0.2 0.02 0.29 0.05 0.33 0.06C39.3 55.59 39.19 55.57 39.08 55.55 38.88 55.57 39.09 55.56 39.08 55.55zM42.17 3.85c-0.14 0.04-0.04 0.01-0.32 0C41.96 3.85 42.06 3.85 42.17 3.85 42.04 3.89 42.16 3.85 42.17 3.85zM50.04 54.34c0.05 0 0.1 0 0.16 0C50.15 54.34 50.1 54.34 50.04 54.34 50.1 54.34 50.04 54.34 50.04 54.34zM50.25 54.34C50.26 54.34 50.18 54.4 50.25 54.34 50.25 54.34 50.25 54.34 50.25 54.34zM59.42 52.42c-0.06-0.02-0.09-0.07-0.1-0.14C59.35 52.33 59.39 52.37 59.42 52.42 59.36 52.4 59.4 52.38 59.42 52.42zM50.29 54.36C50.29 54.33 50.29 54.33 50.29 54.36L50.29 54.36zM50.26 54.34C50.26 54.34 50.25 54.43 50.26 54.34 50.26 54.34 50.26 54.34 50.26 54.34zM23.52 25.53c0.03-0.18 0-0.21 0.1-0.3C23.59 25.34 23.56 25.43 23.52 25.53 23.56 25.35 23.55 25.45 23.52 25.53zM54.92 11.74C55.18 11.92 54.36 11.58 54.92 11.74 55.02 11.81 54.9 11.74 54.92 11.74zM42.17 4C41.61 3.98 42.98 3.98 42.17 4 42.13 4 42.26 4 42.17 4zM17.7 27.46C17.67 27.45 17.72 27.33 17.7 27.46 17.69 27.46 17.7 27.44 17.7 27.46zM63.02 53.64c-0.03-0.06-0.01-0.14 0.02-0.21C63.04 53.51 63.03 53.58 63.02 53.64 62.99 53.59 63.03 53.58 63.02 53.64zM50.95 54.03c-0.2 0.15-0.43 0.22-0.68 0.2C50.5 54.16 50.73 54.09 50.95 54.03 50.75 54.18 50.96 54 50.95 54.03zM49.37 54.36C49.89 53.9 50.35 54.58 49.37 54.36 49.5 54.24 49.37 54.36 49.37 54.36zM46.94 31.8C46.96 31.8 47.03 31.8 46.94 31.8 46.95 31.8 46.96 31.8 46.94 31.8zM55.9 31.18c0.12-0.01 0.18 0.07 0.18 0.26C56.02 31.35 55.96 31.27 55.9 31.18 56.02 31.17 55.97 31.26 55.9 31.18zM22.33 27.07C22.4 26.72 22.6 26.74 22.33 27.07 22.35 26.97 22.39 26.99 22.33 27.07zM46.5 3.79c-0.04-0.01-0.08-0.03-0.13-0.04C46.41 3.77 46.46 3.78 46.5 3.79 46.46 3.78 46.51 3.76 46.5 3.79zM41.37 3.97c0.15-0.06 0.31-0.06 0.47-0.02C41.69 3.95 41.53 3.96 41.37 3.97 41.52 3.91 41.37 3.97 41.37 3.97zM19.44 20.39C19.65 20.36 19.87 19.65 19.44 20.39 19.39 20.4 19.47 20.33 19.44 20.39zM19.38 20.49c0.06 0.01 0.04 0.06-0.08 0.16C19.32 20.6 19.35 20.54 19.38 20.49 19.44 20.5 19.37 20.48 19.38 20.49zM19.11 20.65c0.11-0.07 0.05 0.03 0 0.14C19.11 20.74 19.11 20.69 19.11 20.65 19.23 20.58 19.11 20.69 19.11 20.65zM19.11 20.95c-0.02-0.09 0.01-0.16 0.08-0.23C19.17 20.8 19.14 20.88 19.11 20.95 19.1 20.86 19.12 20.96 19.11 20.95zM17.14 27.86C17.15 27.9 17.12 27.91 17.14 27.86 17.14 27.87 17.14 27.87 17.14 27.86zM17.39 35.68C17.21 37.03 17.07 35.41 17.39 35.68 17.36 35.87 17.33 35.63 17.39 35.68zM48.99 61.04C49.11 61.06 49.01 61.06 48.99 61.04 49.02 61.04 48.99 61.04 48.99 61.04zM63.21 55.07c0-0.08 0.01-0.06 0.06-0.17C63.25 54.96 63.23 55.01 63.21 55.07 63.21 54.99 63.23 55.05 63.21 55.07zM53.12 52.89c-0.07 0.17-0.12 0.17-0.32 0.25C52.91 53.06 53.01 52.97 53.12 52.89 53.05 53.06 53.01 52.97 53.12 52.89zM52.4 53.45C53.18 53.12 51.33 53.83 52.4 53.45 52.47 53.42 52.39 53.46 52.4 53.45zM50.38 54.02C50.39 53.81 51.48 53.72 50.38 54.02 50.39 53.96 50.55 53.98 50.38 54.02zM49.02 54.64C47.41 54.58 49.36 54.28 49.02 54.64 48.8 54.63 49.07 54.58 49.02 54.64zM29.59 51.14C27.26 49.13 30.53 51.16 29.59 51.14 29.33 50.92 29.64 51.12 29.59 51.14zM28.71 48.84C28.93 49.34 27.07 47.99 28.71 48.84 28.73 48.89 28.51 48.73 28.71 48.84zM28.14 49.23C28.48 49.77 27.57 48.3 28.14 49.23 28.16 49.27 28.13 49.21 28.14 49.23zM22.47 37.57c-0.25 0-0.19-1.39-0.22-1.54C22.43 36.53 22.5 37.04 22.47 37.57 22.23 37.57 22.47 37.57 22.47 37.57zM30.13 32.1c1.28-0.15 2.65 0.07 3.94 0.12C32.76 32.19 31.45 32.14 30.13 32.1 30.52 32.11 30.52 32.11 30.13 32.1 31.41 31.95 30.82 32.13 30.13 32.1zM44.72 31.69C45.26 31.71 43.98 31.87 44.72 31.69 44.77 31.69 44.66 31.71 44.72 31.69zM55.12 31.71C54.01 31.71 55.7 31.71 55.12 31.71 54.98 31.71 55.12 31.71 55.12 31.71zM56.21 31.77C55.81 29.82 56.49 32.64 56.21 31.77 56.16 31.56 56.24 31.83 56.21 31.77zM57.09 31.04C56.99 30.42 57.77 32.01 57.09 31.04 57.08 30.98 57.17 31.16 57.09 31.04zM55 29.29C53.98 28.93 57.44 29.97 55 29.29 54.93 29.27 55.24 29.36 55 29.29zM26.79 28.24C27.82 28.55 23.69 28.77 26.79 28.24 26.88 28.27 26.44 28.3 26.79 28.24zM23.71 28.36c-0.01-0.11 0.04-0.15 0.15-0.11C23.82 28.29 23.76 28.32 23.71 28.36 23.7 28.25 23.76 28.35 23.71 28.36zM54.25 11.23C55.56 12.38 53.87 11.3 54.25 11.23 54.42 11.38 54.2 11.25 54.25 11.23zM57.11 4.52C55.56 3.06 56.98 4.56 57.11 4.52 56.88 4.3 57.15 4.5 57.11 4.52zM46.27 3.78C46.75 4.01 45.56 4.01 46.27 3.78 46.32 3.81 46.19 3.81 46.27 3.78zM39.7 4.03c0.1-0.01 0.2-0.02 0.3-0.04C39.9 4.01 39.8 4.02 39.7 4.03 39.8 4.02 39.7 4.03 39.7 4.03zM19.74 19.93C18.32 21.49 20.24 18.97 19.74 19.93 19.59 20.09 19.74 19.93 19.74 19.93zM17.55 27.15C17.56 27.16 17.36 27.66 17.55 27.15 17.64 27.19 17.53 27.22 17.55 27.15zM17.34 28.03C17.04 28.61 17.32 28.07 17.34 28.03 17.36 28 17.34 28.05 17.34 28.03zM16.88 34.94C16.89 34.93 16.89 34.96 16.88 34.94 16.88 34.94 16.88 34.95 16.88 34.94zM17.15 35.1c0.01-0.05 0.01-0.09 0.02-0.14C17.16 35.01 17.15 35.06 17.15 35.1 17.15 35.06 17.15 35.12 17.15 35.1zM31.02 57.68C30.96 57.5 31.65 57.97 31.02 57.68 31 57.64 31.1 57.73 31.02 57.68zM63.59 52.9c0.22 0.35 0.04 1.2-0.09 1.66C63.53 54 63.56 53.45 63.59 52.9 63.82 53.25 63.6 52.97 63.59 52.9zM51.64 53.11c1-0.81 2.02-1.61 3.05-2.39 0.76-0.6-3.76 3.23-3.04 2.65C54.59 50.61 45.29 57.16 51.64 53.11 52.22 52.74 51.25 53.35 51.64 53.11zM48.06 54.25c0.34-0.11 0.67-0.31 1.02-0.25C48.76 54.16 48.42 54.24 48.06 54.25 48.41 54.14 48.06 54.25 48.06 54.25zM38.94 54.94C42.58 55.81 38.35 55.02 38.94 54.94 39.31 55.03 38.94 54.94 38.94 54.94zM31.53 51.67c1.35 0.95 1.12 0.84-2.35-1.84C30.13 50.32 31.48 51.64 31.53 51.67 31.69 51.78 30.8 51.16 31.53 51.67zM27.93 48.37C28.6 48.9 27.53 48.33 27.93 48.37 28.05 48.46 27.93 48.37 27.93 48.37zM24.42 43.92C24.45 43.92 22.54 40 24.42 43.92 24.11 43.96 24.36 43.79 24.42 43.92zM23.78 41.21c0.11 0.27 0.35 0.38 0.29 0.66C23.97 41.66 23.88 41.44 23.78 41.21 23.89 41.48 23.78 41.21 23.78 41.21zM22.64 34.85c0-0.05 0.01-0.09 0.01-0.14C22.64 34.76 22.64 34.8 22.64 34.85 22.64 34.8 22.64 34.86 22.64 34.85zM23.2 34.91C23.31 31.72 22.87 35.52 23.2 34.91 23.21 34.57 23.23 34.84 23.2 34.91zM25.26 32.38c0.34-0.01 0.68-0.04 1.02-0.01C25.94 32.38 25.6 32.38 25.26 32.38 25.6 32.37 25.6 32.38 25.26 32.38zM39.87 32.24c-6.03-0.31 5.39 0.21 5.37 0.2 -5.42-0.21-7.15-0.28-5.21-0.19C40.78 32.28 40.73 32.28 39.87 32.24 39.29 32.21 41.7 32.33 39.87 32.24zM46.08 32.46C45.78 32.45 46.17 32.48 46.08 32.46 46.04 32.46 46.08 32.46 46.08 32.46zM46.23 32.47c-0.04 0-0.08 0-0.13 0C46.47 32.4 46.52 32.4 46.23 32.47 46.19 32.47 46.23 32.47 46.23 32.47zM50.38 32.13c0.07-0.01 0.13 0 0.19 0.01C50.51 32.14 50.45 32.13 50.38 32.13 50.45 32.12 50.45 32.13 50.38 32.13zM52.52 32c-0.07-2.16 0.05 1.63 1.3-0.4 -0.5-0.14-1.01-0.22-1.52-0.25 0.97-0.06 2.18 0.65 2.07 0.65 -0.7-0.44-0.67-0.44 0.08 0 -0.52-0.38-0.6-0.43-0.22-0.13C46.43 31.9 54.19 32 52.52 32 52.5 31.57 53.17 32 52.52 32zM54.54 31.75c0.11-0.07 0.17-0.07 0.18 0C54.66 31.75 54.6 31.75 54.54 31.75 54.65 31.68 54.6 31.75 54.54 31.75zM55.33 32.13C54.19 32.2 56.26 31.97 55.33 32.13 55.24 32.14 55.42 32.12 55.33 32.13zM56.38 32.24C56.93 31.83 56.03 32.89 56.38 32.24 56.43 32.2 56.35 32.31 56.38 32.24zM57.4 32.12c0.12-0.63-0.21-1.24-0.54-1.76C57.04 30.95 57.22 31.54 57.4 32.12 57.51 31.49 57.48 32.01 57.4 32.12zM57.27 30.16c-0.69-0.41-1.41-0.8-2.18-1.03C55.81 29.47 56.54 29.82 57.27 30.16 56.58 29.75 57.03 29.89 57.27 30.16zM28.62 28.3c-0.86-0.17-0.27-0.2 1.76-0.09C21.39 28.7 30.22 28.22 28.62 28.3 28.55 28.29 29.21 28.27 28.62 28.3zM25.66 28.16C24.9 28.38 23.65 28.27 25.66 28.16 25.53 28.2 25.21 28.19 25.66 28.16zM24.29 28.23c-0.01 0.12-0.1 0.15-0.27 0.09C24.11 28.29 24.2 28.26 24.29 28.23 24.28 28.35 24.21 28.23 24.29 28.23zM23.74 28.22c0.04-0.2 0.37-1.17 0.52-1.2C24.08 27.42 23.91 27.82 23.74 28.22 23.78 28.02 23.78 28.22 23.74 28.22zM24.49 27.04C24.5 27.03 24.62 26.99 24.49 27.04 24.49 27.03 24.49 27.04 24.49 27.04zM26.3 19.1C24.35 23.6 27.99 15.25 26.3 19.1 26.12 19.53 26.42 18.82 26.3 19.1zM27.93 17.33C27.79 17.77 27.7 17.47 27.93 17.33 27.87 17.52 27.89 17.35 27.93 17.33zM28.57 17.14C28.14 17.33 28.73 16.68 28.57 17.14 28.52 17.16 28.59 17.08 28.57 17.14zM41.86 9.13c0.18-0.21 0.84 0.01 1.09 0.07C42.59 9.18 42.22 9.15 41.86 9.13 42.04 8.92 42.22 9.14 41.86 9.13zM43.26 9.14C41.25 9.02 42.5 9.11 43.26 9.14 43.14 9.13 43.26 9.14 43.26 9.14zM53.64 11.81C51.58 10.13 55.96 13.77 53.64 11.81 53.45 11.65 53.72 11.88 53.64 11.81zM56.35 3.41C61.44 4.64 54.99 3.48 56.35 3.41 56.86 3.53 56.35 3.41 56.35 3.41zM47.93 2.64c2.11-0.44-1.46 0.53-1.75 0.46C55.77 0.27 46.54 2.93 47.93 2.64 48.14 2.6 47.31 2.77 47.93 2.64zM45.25 3.38C47 2.86 43.57 3.93 43.06 3.9 53.11 2.28 43.69 3.84 45.25 3.38 45.49 3.3 44.47 3.61 45.25 3.38zM35.59 4.98c0.39-0.12 0.78-0.21 1.18-0.29C36.38 4.79 35.98 4.89 35.59 4.98 35.98 4.87 35.68 4.98 35.59 4.98zM28.44 8.64c1.51-1.11-1.71 1.74-1.42 1.33C26.82 9.56 28.65 8.49 28.44 8.64 28.57 8.55 27.87 9.06 28.44 8.64zM18.56 20.07c0.6-0.73 1.2-1.47 1.81-2.2C20.42 17.96 18.19 20.64 18.56 20.07 19.08 19.29 18.53 20.11 18.56 20.07zM17.53 25.58c0.26 0.46-0.53 1.9-0.53 1.93C17 28.26 17.61 25.29 17.53 25.58 17.63 25.77 17.43 25.93 17.53 25.58zM14.35 28.48c0.27 0.01 0.53 0.02 0.8 0.03C14.89 28.5 14.62 28.49 14.35 28.48 14.62 28.49 14.34 28.48 14.35 28.48zM6.71 30.19c0.05 0.07 0.11 0.14 0.16 0.21C6.82 30.33 6.77 30.26 6.71 30.19 6.77 30.26 6.71 30.19 6.71 30.19zM8.56 32.25C8.74 32.26 8.48 32.21 8.56 32.25 8.58 32.25 8.56 32.25 8.56 32.25zM14.56 32.58c-0.93 0.03-1.87 0.06-2.8 0.09C5.53 32.83 16.05 32.16 14.56 32.58 13.66 32.71 14.56 32.58 14.56 32.58zM16.88 36.5c-0.1-0.3-0.31-0.61-0.21-0.91C16.83 35.88 16.9 36.18 16.88 36.5 16.78 36.19 16.88 36.5 16.88 36.5zM19.06 43.65c-0.09-0.35-0.26-0.72-0.09-1.04C19.07 42.95 19.1 43.29 19.06 43.65 18.97 43.29 19.06 43.65 19.06 43.65zM21.63 48.29c-0.98-0.69 1.53 1.74 1.58 2.51C16.62 38.38 22.68 49.63 21.63 48.29 21.54 48.23 21.99 48.75 21.63 48.29zM23.95 52.06c-0.18-0.21-0.45-0.36-0.42-0.64C23.66 51.63 23.81 51.84 23.95 52.06 23.77 51.85 23.95 52.06 23.95 52.06zM27.24 55.1c-0.85-0.56-0.7-1.91 2.05 1.47C14.56 45.73 28.83 56.12 27.24 55.1 27.15 55.04 27.67 55.38 27.24 55.1zM29.6 56.55C31.17 57.59 30.85 57.95 29.6 56.55 30 56.81 29.9 56.88 29.6 56.55zM32.11 58.64C29.37 58.13 33.03 58.36 32.11 58.64 32.07 58.64 32.11 58.64 32.11 58.64zM37.87 61.25c-0.66-0.21-1.31-0.43-1.97-0.64 0.42 0.14 0.86 0.26 1.3 0.35 -0.03 0.08-1.52-0.55-1.54-0.56C43.19 63.45 37.08 61.13 37.87 61.25 37.18 61.16 37.91 61.26 37.87 61.25zM50.62 61.23c-0.78 0.1-1.56 0.19-2.34 0.29C48.33 61.57 51.83 60.69 50.62 61.23 49.97 61.47 50.62 61.23 50.62 61.23zM55.95 60.36C53.06 60.72 56.24 60.16 55.95 60.36 55.6 60.41 55.95 60.36 55.95 60.36zM62.56 56.91C61.68 57.95 63.42 55.93 62.56 56.91 62.09 57.46 62.63 56.82 62.56 56.91z"/><path fill="#B01817" d="M52 31.71c-0.06 0.01 0.21 0.01 0.16 0C52.11 31.71 52.06 31.71 52 31.71 51.94 31.72 52.04 31.7 52 31.71z"/><path fill="#B01817" d="M54.37 31.64L54.37 31.64C54.37 31.64 54.37 31.64 54.37 31.64z"/><polygon fill="#B01817" points="54.41 31.61 54.41 31.61 54.41 31.61 "/><path fill="#B01817" d="M55.15 31.71C55.06 31.71 55.34 31.71 55.15 31.71 55.14 31.71 55.17 31.71 55.15 31.71z"/></svg>