<svg version="1.1" xmlns="http://www.w3.org/2000/svg" x="0" y="0" width="64" height="64" viewBox="0 0 64 64" enable-background="new 0 0 64 64" xml:space="preserve">
<g id="icon-twitter">
  <title>Twitter Link Icon</title>
  <path class="icon-social-content" fill="#666666" d="M22.18 54c-4.85 0-9.61-1.46-14.17-3.88C8.1 50.12 8.18 50 8.27 50c2.81 0 8.27-0.67 13.38-4.77l0.98-0.81 -1.25-0.12c-0.07-0.01-7.03-0.65-9.14-6.41 0.25 0.02 0.55 0.02 0.89 0.02 1.22 0 2.33-0.15 3.29-0.43l2.03-0.6 -2.09-0.37c-0.31-0.06-7.46-1.42-8.09-9.28 0.8 0.33 2.11 0.77 3.4 0.77 0.25 0 0.51-0.02 0.75-0.05l1.17-0.18 -0.95-0.72c-0.29-0.22-7-5.41-3.24-12.75C11.51 16.56 20.09 25 30.85 25c0.18 0 0.37 0 0.55-0.01l0.61-0.02 -0.13-0.59c-0.08-0.34-1.75-8.36 6.11-11.9 0.42-0.19 1.94-0.8 4.03-0.8 2.86 0 5.43 1.12 7.62 3.33l0.18 0.18 0.25-0.04c0.69-0.11 3.5-0.79 6.06-2.35 -0.37 1.11-1.4 2.92-4.18 4.57l-1.73 1.03 2.01-0.1c0.12-0.01 2.5-0.13 4.88-1.04 -0.68 1.05-2.03 2.64-4.59 4.17l-0.27 0.16 0.03 0.32c0.02 0.15 1.39 15.65-11.7 25.79C40.49 47.78 32.85 54 22.18 54 22.18 54 22.18 54 22.18 54z"/><path fill="#161616" d="M42.01 12.19c2.72 0 5.17 1.07 7.27 3.19l0.36 0.36 0.5-0.08c0.03 0 2.3-0.4 4.82-1.63 -0.6 0.89-1.6 1.94-3.27 2.93l-3.46 2.06 4.02-0.2c0.1 0 1.63-0.09 3.49-0.58 -0.76 0.84-1.87 1.82-3.48 2.78l-0.54 0.33 0.06 0.63c0.02 0.15 1.34 15.15-11.52 25.12 -0.07 0.06-7.6 5.93-18.08 5.93 -4.15 0-8.23-0.91-12.17-2.72 3.08-0.25 7.64-1.29 11.95-4.75l1.96-1.58 -2.51-0.4C21.35 43.57 15.28 43 13 38c0.04 0 0.08 0 0.13 0 1.27 0 2.42 0.05 3.43-0.25l4.09-1.11 -4.2-0.68c-0.29-0.05-6.6-1.2-7.59-8.01 0.8 0.27 1.81 0.53 2.81 0.53 0.29 0 0.56-0.01 0.83-0.05l2.35-0.35 -1.9-1.43c-0.27-0.21-6.28-4.83-3.4-11.47 2.79 2.86 11.07 10.33 21.3 10.33 0.19 0 0.38 0 0.57-0.01l1.21-0.03 -0.27-1.19c-0.07-0.32-1.69-7.95 5.82-11.33C38.59 12.77 40.03 12.19 42.01 12.19M42.01 11.19c-1.9 0-3.44 0.49-4.23 0.85 -8.34 3.75-6.39 12.46-6.39 12.46 -0.18 0-0.36 0.01-0.54 0.01 -12.06 0-21.54-11.06-21.54-11.06 -4.75 8.14 3.04 14 3.04 14 -0.22 0.03-0.45 0.05-0.68 0.05 -1.92 0-3.94-1.06-3.94-1.06C7.92 35.54 16.27 37 16.27 37c-1.1 0.33-2.25 0.41-3.15 0.41 -0.94 0-1.6-0.09-1.6-0.09 1.9 6.83 9.81 7.46 9.81 7.46 -4.9 3.94-10.1 4.6-13.06 4.6 -1.51 0-2.44-0.17-2.44-0.17 5.84 3.58 11.42 4.82 16.35 4.82 10.98 0 18.7-6.15 18.7-6.15 13.47-10.44 11.89-26 11.89-26 4.55-2.72 5.43-5.64 5.43-5.64 -2.67 1.41-6 1.58-6 1.58 4.68-2.78 4.64-6.08 4.64-6.08 -2.85 2.09-6.38 2.86-6.85 2.93C47.29 11.95 44.38 11.19 42.01 11.19L42.01 11.19z"/>
</g>
</svg>