<?xml version="1.0" encoding="utf-8"?>
<!-- Generator: Adobe Illustrator 15.0.0, SVG Export Plug-In . SVG Version: 6.00 Build 0)  -->
<!DOCTYPE svg PUBLIC "-//W3C//DTD SVG 1.1//EN" "http://www.w3.org/Graphics/SVG/1.1/DTD/svg11.dtd">
<svg version="1.1" id="Layer_1" xmlns="http://www.w3.org/2000/svg" xmlns:xlink="http://www.w3.org/1999/xlink" x="0px" y="0px"
	 width="64px" height="74px" viewBox="0 0 64 74" enable-background="new 0 0 64 74" xml:space="preserve">
<path fill="#B01817" d="M32,11C17.642,11,6,22.642,6,37c0,11.299,7.209,20.907,17.278,24.5c-0.229-1.546-0.78-5.967-0.102-8.867
	c0.461-1.998,3.006-12.764,3.006-12.764s-0.771-1.533-0.771-3.81c0-3.571,2.075-6.238,4.646-6.238c2.193,0,3.25,1.644,3.25,3.617
	c0,2.202-1.397,5.498-2.126,8.55c-0.604,2.553,1.286,4.635,3.804,4.635c4.565,0,8.068-4.809,8.068-11.753
	c0-6.149-4.413-10.447-10.723-10.447c-7.303,0-11.593,5.48-11.593,11.143c0,2.209,0.851,4.576,1.904,5.857
	c0.214,0.259,0.246,0.478,0.181,0.735c-0.192,0.813-0.628,2.558-0.714,2.917c-0.108,0.473-0.367,0.569-0.856,0.336
	c-3.206-1.484-5.212-6.176-5.212-9.94c0-8.106,5.886-15.544,16.966-15.544v0.001c8.914,0,15.83,6.348,15.83,14.835
	c0,8.849-5.583,15.974-13.321,15.974c-2.605,0-5.048-1.354-5.891-2.945c0,0-1.286,4.899-1.595,6.094
	c-0.744,2.872-3.124,6.677-3.928,7.889C26.595,62.568,29.245,63,32,63c14.357,0,26-11.643,26-26C58,22.642,46.357,11,32,11z"/>
<g>
	<path fill="#B01817" d="M32,1.155l31,17.908v35.819L32,72.789L1,54.882V19.063L32,1.155 M32,0L0,18.486v36.973l32,18.485l32-18.485
		V18.486L32,0L32,0z"/>
</g>
</svg>
