<?xml version="1.0" encoding="utf-8"?>
<!-- Generator: Adobe Illustrator 15.0.2, SVG Export Plug-In . SVG Version: 6.00 Build 0)  -->
<!DOCTYPE svg PUBLIC "-//W3C//DTD SVG 1.1//EN" "http://www.w3.org/Graphics/SVG/1.1/DTD/svg11.dtd">
<svg version="1.1" id="Layer_1" xmlns="http://www.w3.org/2000/svg" xmlns:xlink="http://www.w3.org/1999/xlink" x="0px" y="0px"
	 width="64px" height="64px" viewBox="0 0 64 64" enable-background="new 0 0 64 64" xml:space="preserve">
<g>
	<g>
		<rect y="9" width="63" height="47"/>
		<path fill="#B01817" d="M63,9v46H1V9H63 M64,8H0v48h64V8L64,8z"/>
	</g>
	<line fill="none" stroke="#B01817" stroke-miterlimit="10" x1="0" y1="16.5" x2="64" y2="16.5"/>
	<circle fill="none" stroke="#B01817" stroke-miterlimit="10" cx="4.5" cy="12.5" r="0.5"/>
	<circle fill="none" stroke="#B01817" stroke-miterlimit="10" cx="8.5" cy="12.5" r="0.5"/>
	<circle fill="none" stroke="#B01817" stroke-miterlimit="10" cx="12.5" cy="12.5" r="0.5"/>
</g>
<path stroke="#B01817" stroke-miterlimit="10" d="M35.42,32.62c0-0.38-0.04-0.75-0.09-1.12l1.52-2.27l-1.57-2.73l-2.82,0.19
	c-0.54-0.41-1.14-0.59-1.79-0.84l-1.24-2.35h-2.91l-1.24,2.35c-0.64,0.25-1.24,0.5-1.78,0.91l-2.82-0.23l-1.58,2.7l1.52,2.26
	c-0.06,0.37-0.1,0.74-0.1,1.13c0,0.38,0.04,0.75,0.09,1.12l-1.53,2.27l1.57,2.72l2.83-0.18c0.64,0.48,1.36,0.87,2.13,1.13l0.89,1.82
	h2.91l0.89-1.82c0.77-0.26,1.49-0.64,2.12-1.12l2.82,0.19l1.58-2.72l-1.52-2.28C35.38,33.38,35.42,33,35.42,32.62z M27.98,34.68
	c-1.14,0-2.06-0.92-2.06-2.06c0-1.14,0.92-2.06,2.06-2.06c1.14,0,2.06,0.92,2.06,2.06C30.04,33.76,29.12,34.68,27.98,34.68z"/>
<path stroke="#B01817" stroke-miterlimit="10" d="M44.19,44.15c0-0.19-0.02-0.37-0.04-0.55l0.75-1.12l-0.77-1.34l-1.39,0.09
	c-0.27-0.2-0.56-0.36-0.88-0.49l-0.61-1.23H39.8l-0.61,1.23c-0.32,0.12-0.61,0.29-0.88,0.49l-1.39-0.09l-0.78,1.34l0.75,1.12
	c-0.03,0.18-0.05,0.37-0.05,0.56c0,0.19,0.02,0.37,0.05,0.55l-0.75,1.12l0.77,1.34l1.39-0.09c0.32,0.24,0.67,0.42,1.05,0.54
	l0.44,0.88h1.44l0.44-0.88c0.38-0.13,0.73-0.31,1.05-0.55l1.39,0.1l0.78-1.34l-0.75-1.12C44.17,44.52,44.19,44.34,44.19,44.15z
	 M40.52,45.16c-0.56,0-1.02-0.46-1.02-1.02c0-0.56,0.45-1.02,1.02-1.02c0.56,0,1.02,0.46,1.02,1.02
	C41.54,44.71,41.08,45.16,40.52,45.16z"/>
</svg>
