<?xml version="1.0" encoding="utf-8"?>
<!-- Generator: Adobe Illustrator 15.0.0, SVG Export Plug-In . SVG Version: 6.00 Build 0)  -->
<!DOCTYPE svg PUBLIC "-//W3C//DTD SVG 1.1//EN" "http://www.w3.org/Graphics/SVG/1.1/DTD/svg11.dtd">
<svg version="1.1" id="Layer_1" xmlns="http://www.w3.org/2000/svg" xmlns:xlink="http://www.w3.org/1999/xlink" x="0px" y="0px"
	 width="64px" height="74px" viewBox="0 0 64 74" enable-background="new 0 0 64 74" xml:space="preserve">
<g>
	<g>
		<path fill="#B01817" d="M57,19v37H7V19H57 M58,18H6v39h52V18L58,18z"/>
	</g>
	<line fill="none" stroke="#B01817" stroke-miterlimit="10" x1="6" y1="24.5" x2="58" y2="24.5"/>
	<circle fill="none" stroke="#B01817" stroke-miterlimit="10" cx="9.656" cy="21.156" r="0.406"/>
	<circle fill="none" stroke="#B01817" stroke-miterlimit="10" cx="12.906" cy="21.156" r="0.406"/>
	<circle fill="none" stroke="#B01817" stroke-miterlimit="10" cx="16.156" cy="21.156" r="0.406"/>
	<g>
		<path fill="none" stroke="#B01817" stroke-miterlimit="10" d="M44.457,46.388c0.302,0.301,0.182,0.694-0.137,1.012l-5.171,5.171
			c-0.317,0.318-0.711,0.438-1.012,0.137l-18.551-18.55c-0.301-0.302-0.289-0.803,0.029-1.121l5.171-5.171
			c0.317-0.317,0.819-0.33,1.121-0.029L44.457,46.388z"/>
		<line fill="none" stroke="#B01817" stroke-miterlimit="10" x1="19.903" y1="35.048" x2="21.627" y2="33.324"/>
		<line fill="none" stroke="#B01817" stroke-miterlimit="10" x1="21.053" y1="36.197" x2="22.776" y2="34.473"/>
		<line fill="none" stroke="#B01817" stroke-miterlimit="10" x1="22.202" y1="37.346" x2="23.925" y2="35.623"/>
		<line fill="none" stroke="#B01817" stroke-miterlimit="10" x1="23.351" y1="38.495" x2="25.648" y2="36.197"/>
		<line fill="none" stroke="#B01817" stroke-miterlimit="10" x1="24.5" y1="39.644" x2="26.223" y2="37.92"/>
		<line fill="none" stroke="#B01817" stroke-miterlimit="10" x1="25.648" y1="40.793" x2="27.372" y2="39.069"/>
		<line fill="none" stroke="#B01817" stroke-miterlimit="10" x1="26.797" y1="41.941" x2="28.521" y2="40.219"/>
		<line fill="none" stroke="#B01817" stroke-miterlimit="10" x1="27.946" y1="43.092" x2="30.245" y2="40.793"/>
		<line fill="none" stroke="#B01817" stroke-miterlimit="10" x1="29.096" y1="44.24" x2="30.819" y2="42.517"/>
		<line fill="none" stroke="#B01817" stroke-miterlimit="10" x1="30.245" y1="45.39" x2="31.968" y2="43.666"/>
		<line fill="none" stroke="#B01817" stroke-miterlimit="10" x1="31.394" y1="46.538" x2="33.117" y2="44.814"/>
		<line fill="none" stroke="#B01817" stroke-miterlimit="10" x1="32.543" y1="47.688" x2="34.841" y2="45.39"/>
		<line fill="none" stroke="#B01817" stroke-miterlimit="10" x1="33.691" y1="48.836" x2="35.415" y2="47.112"/>
		<line fill="none" stroke="#B01817" stroke-miterlimit="10" x1="34.841" y1="49.985" x2="36.564" y2="48.262"/>
		<line fill="none" stroke="#B01817" stroke-miterlimit="10" x1="35.99" y1="51.134" x2="37.714" y2="49.41"/>
		<line fill="none" stroke="#B01817" stroke-miterlimit="10" x1="37.14" y1="52.283" x2="39.438" y2="49.985"/>
	</g>
	<g>
		
			<line fill="none" stroke="#B01817" stroke-linecap="round" stroke-linejoin="round" stroke-miterlimit="10" x1="37.724" y1="31.052" x2="24.51" y2="44.266"/>
		
			<line fill="none" stroke="#B01817" stroke-linecap="round" stroke-linejoin="round" stroke-miterlimit="10" x1="39.447" y1="32.775" x2="26.233" y2="45.99"/>
		
			<line fill="none" stroke="#B01817" stroke-linecap="round" stroke-linejoin="round" stroke-miterlimit="10" x1="41.171" y1="34.499" x2="27.957" y2="47.713"/>
		
			<line fill="none" stroke="#B01817" stroke-linecap="round" stroke-linejoin="round" stroke-miterlimit="10" x1="24.278" y1="44.498" x2="19.914" y2="52.31"/>
		
			<line fill="none" stroke="#B01817" stroke-linecap="round" stroke-linejoin="round" stroke-miterlimit="10" x1="26.338" y1="45.885" x2="24.097" y2="45.317"/>
		
			<line fill="none" stroke="#B01817" stroke-linecap="round" stroke-linejoin="round" stroke-miterlimit="10" x1="26.338" y1="45.885" x2="26.946" y2="48.022"/>
		<path fill="none" stroke="#B01817" stroke-miterlimit="10" d="M43.495,30.503l-1.573-1.572c-0.58-0.58-1.056-1.021-1.549-0.527
			l-0.894,0.893c-0.113,0.113-0.194,0.247-0.249,0.39l3.334,3.334c0.127-0.071,0.25-0.164,0.362-0.276l0.894-0.894
			C44.313,31.357,44.075,31.083,43.495,30.503z"/>
		
			<rect x="37.872" y="31.102" transform="matrix(0.7071 0.7072 -0.7072 0.7071 34.3765 -19.1558)" fill="none" stroke="#B01817" stroke-miterlimit="10" width="4.874" height="1.624"/>
		<polygon fill="none" stroke="#B01817" stroke-miterlimit="10" points="19.922,52.301 20.277,51.658 20.631,51.017 20.918,51.304 
			21.206,51.591 20.564,51.945 		"/>
		
			<line fill="none" stroke="#B01817" stroke-linecap="round" stroke-linejoin="round" stroke-miterlimit="10" x1="27.725" y1="47.945" x2="19.914" y2="52.31"/>
	</g>
</g>
<g>
	<path fill="#B01817" d="M32,1.155l31,17.908v35.819L32,72.789L1,54.882V19.063L32,1.155 M32,0L0,18.486v36.973l32,18.485l32-18.485
		V18.486L32,0L32,0z"/>
</g>
</svg>
