<?xml version="1.0" encoding="utf-8"?>
<!-- Generator: Adobe Illustrator 15.0.2, SVG Export Plug-In . SVG Version: 6.00 Build 0)  -->
<!DOCTYPE svg PUBLIC "-//W3C//DTD SVG 1.1//EN" "http://www.w3.org/Graphics/SVG/1.1/DTD/svg11.dtd">
<svg version="1.1" id="Layer_1" xmlns="http://www.w3.org/2000/svg" xmlns:xlink="http://www.w3.org/1999/xlink" x="0px" y="0px"
	 width="64px" height="64px" viewBox="0 0 64 64" enable-background="new 0 0 64 64" xml:space="preserve">
<g>
	<g>
		<path fill="#B01817" d="M48.96,19.52l7.92,28.7l-20.5,5.66l-0.49-1.77l12.69-31.65c0.09-0.21,0.17-0.41,0.25-0.62l0.05-0.14
			C48.91,19.64,48.93,19.58,48.96,19.52 M48.89,15.51c-0.13,1.28-0.43,2.56-0.93,3.82c-0.1,0.26-0.19,0.49-0.3,0.75L34.83,52.05
			l0.84,3.06l22.43-6.19L48.89,15.51L48.89,15.51z"/>
	</g>
</g>
<g>
	<path fill="#B01817" d="M35.89,1c1.67,0,3.3,0.32,4.86,0.94c6.69,2.69,9.96,10.32,7.27,17.02l-0.06,0.15
		c-0.08,0.2-0.15,0.38-0.24,0.59L30.48,62.7L6.2,52.96l16.23-40.47l0,0.01l1.01-2.53c0.2-0.49,0.27-0.68,0.3-0.77
		C25.76,4.21,30.52,1,35.89,1 M36.81,15.58c1.57,0,2.96-0.94,3.55-2.4c0.78-1.95-0.17-4.18-2.12-4.96
		c-0.46-0.18-0.93-0.28-1.42-0.28c-1.57,0-2.96,0.94-3.54,2.39c-0.38,0.95-0.38,1.99,0.03,2.92c0.4,0.94,1.15,1.67,2.1,2.04
		C35.85,15.49,36.33,15.58,36.81,15.58 M35.89,0C30.3,0,25.02,3.35,22.81,8.84c-0.01,0.03-0.12,0.31-0.29,0.75l0-0.01L4.9,53.52
		L31.04,64l17.62-43.92c0.11-0.25,0.2-0.48,0.3-0.75c2.89-7.22-0.61-15.42-7.83-18.32C39.41,0.33,37.63,0,35.89,0L35.89,0z
		 M36.81,14.58c-0.35,0-0.7-0.06-1.04-0.2c-1.45-0.58-2.15-2.22-1.57-3.67c0.44-1.1,1.5-1.77,2.61-1.77c0.35,0,0.7,0.07,1.05,0.2
		c1.44,0.58,2.14,2.22,1.57,3.67C38.99,13.91,37.93,14.58,36.81,14.58L36.81,14.58z"/>
</g>
<g>
	<path fill="#B01817" d="M36.16,35.62l-0.24,0.58l-1.73-0.7l0.22-0.58c0.09-0.22,0.09-0.45,0-0.67c-0.09-0.22-0.26-0.38-0.48-0.47
		l-4.2-1.69l-1.98,4.94l4.2,1.68c0.72,0.29,1.21,0.77,1.51,1.48c0.29,0.69,0.31,1.38,0.02,2.09l-1.34,3.34
		c-0.29,0.69-0.77,1.19-1.46,1.49c-0.7,0.3-1.4,0.3-2.11,0.01l-4.2-1.68l-0.96,2.38l-1.71-0.69l0.96-2.39l-4.22-1.7
		c-0.7-0.28-1.19-0.76-1.49-1.46c-0.3-0.69-0.31-1.38-0.03-2.08l0.24-0.61l1.71,0.69l-0.24,0.61c-0.09,0.22-0.09,0.45,0.01,0.67
		c0.1,0.22,0.26,0.38,0.48,0.47l4.22,1.7l2-4.98l-4.22-1.7c-0.7-0.27-1.19-0.76-1.5-1.45c-0.3-0.69-0.3-1.38-0.02-2.1l1.32-3.3
		c0.29-0.71,0.78-1.22,1.47-1.51c0.7-0.3,1.39-0.31,2.09-0.03l4.22,1.7l0.96-2.38l1.71,0.69l-0.96,2.38l4.21,1.68
		c0.71,0.29,1.21,0.78,1.51,1.47C36.43,34.21,36.44,34.91,36.16,35.62z M26.03,36.35l1.98-4.94l-4.23-1.69
		c-0.22-0.09-0.45-0.09-0.67,0.01c-0.22,0.1-0.38,0.25-0.47,0.48l-1.32,3.31c-0.09,0.22-0.09,0.44,0.01,0.66
		c0.09,0.23,0.25,0.38,0.48,0.47L26.03,36.35z M31.26,40.44l-4.21-1.69l-1.99,4.97l4.2,1.68c0.22,0.09,0.45,0.09,0.67,0
		c0.22-0.1,0.38-0.26,0.47-0.48l1.34-3.35c0.09-0.22,0.09-0.44-0.01-0.67C31.64,40.68,31.48,40.52,31.26,40.44z"/>
</g>
</svg>
