<svg version="1.1" id="Layer_1" xmlns="http://www.w3.org/2000/svg" xmlns:xlink="http://www.w3.org/1999/xlink" x="0" y="0" width="64" height="64" viewBox="0 0 64 64" enable-background="new 0 0 64 64" xml:space="preserve"><path fill="none" d="M25.22 46.11c-0.71 0.71-1.91 0.66-2.68-0.11l-4.19-4.19c-0.77-0.77-0.82-1.97-0.11-2.68l16.7-16.7c0.71-0.71 1.91-0.66 2.68 0.11l4.19 4.19c0.77 0.77 0.82 1.97 0.11 2.68L25.22 46.11z"/><line fill="none" stroke="#B01817" stroke-miterlimit="10" x1="0" y1="12.5" x2="54" y2="12.5"/><line fill="none" stroke="#B01817" stroke-miterlimit="10" x1="53.5" y1="12" x2="53.5" y2="64"/><line fill="none" stroke="#B01817" stroke-miterlimit="10" x1="64" y1="52.5" x2="9" y2="52.5"/><line fill="none" stroke="#B01817" stroke-miterlimit="10" x1="9.5" y1="54" x2="9.5" y2="0"/><path fill="none" stroke="#B01817" stroke-miterlimit="10" d="M57.82 44.56c0.62 0.62 0.37 1.42-0.28 2.07L46.96 57.21c-0.65 0.65-1.46 0.9-2.07 0.28L6.94 19.53c-0.62-0.62-0.59-1.64 0.06-2.29L17.57 6.66c0.65-0.65 1.68-0.68 2.29-0.06L57.82 44.56z"/><line fill="none" stroke="#B01817" stroke-miterlimit="10" x1="8.04" y1="20.9" x2="10.06" y2="18.88"/><line fill="none" stroke="#B01817" stroke-miterlimit="10" x1="10.39" y1="23.25" x2="12.41" y2="21.23"/><line fill="none" stroke="#B01817" stroke-miterlimit="10" x1="12.74" y1="25.6" x2="14.76" y2="23.58"/><line fill="none" stroke="#B01817" stroke-miterlimit="10" x1="15.09" y1="27.95" x2="19.34" y2="23.71"/><line fill="none" stroke="#B01817" stroke-miterlimit="10" x1="17.44" y1="30.3" x2="19.46" y2="28.28"/><line fill="none" stroke="#B01817" stroke-miterlimit="10" x1="19.79" y1="32.65" x2="21.81" y2="30.63"/><line fill="none" stroke="#B01817" stroke-miterlimit="10" x1="22.15" y1="35" x2="24.17" y2="32.98"/><line fill="none" stroke="#B01817" stroke-miterlimit="10" x1="24.5" y1="37.36" x2="28.74" y2="33.11"/><line fill="none" stroke="#B01817" stroke-miterlimit="10" x1="26.85" y1="39.71" x2="28.87" y2="37.69"/><line fill="none" stroke="#B01817" stroke-miterlimit="10" x1="29.2" y1="42.06" x2="31.22" y2="40.04"/><line fill="none" stroke="#B01817" stroke-miterlimit="10" x1="31.55" y1="44.41" x2="33.57" y2="42.39"/><line fill="none" stroke="#B01817" stroke-miterlimit="10" x1="33.9" y1="46.76" x2="38.14" y2="42.51"/><line fill="none" stroke="#B01817" stroke-miterlimit="10" x1="36.25" y1="49.11" x2="38.27" y2="47.09"/><line fill="none" stroke="#B01817" stroke-miterlimit="10" x1="38.6" y1="51.46" x2="40.62" y2="49.44"/><line fill="none" stroke="#B01817" stroke-miterlimit="10" x1="40.95" y1="53.81" x2="42.97" y2="51.79"/><line fill="none" stroke="#B01817" stroke-miterlimit="10" x1="43.3" y1="56.16" x2="47.55" y2="51.92"/><polygon fill="none" points="8.61 55.73 12.22 48.93 15.83 42.13 19.02 45.32 22.21 48.51 15.41 52.12 "/><path fill="none" d="M51.56 19.48c1.29-1.29 1.71-2.95 0.95-3.71l-4.15-4.14c-0.76-0.76-2.43-0.34-3.71 0.95L16.72 40.5c-1.29 1.29-1.71 2.95-0.95 3.71l4.14 4.15c0.76 0.76 2.42 0.34 3.71-0.95L51.56 19.48z"/><line fill="none" stroke="#B01817" stroke-linecap="round" stroke-linejoin="round" stroke-miterlimit="10" x1="44.04" y1="13.18" x2="16.6" y2="40.62"/><line fill="none" stroke="#B01817" stroke-linecap="round" stroke-linejoin="round" stroke-miterlimit="10" x1="47.57" y1="16.71" x2="20.81" y2="43.46"/><line fill="none" stroke="#B01817" stroke-linecap="round" stroke-linejoin="round" stroke-miterlimit="10" x1="51.09" y1="20.23" x2="23.65" y2="47.67"/><line fill="none" stroke="#B01817" stroke-linecap="round" stroke-linejoin="round" stroke-miterlimit="10" x1="16.53" y1="40.69" x2="7.6" y2="56.67"/><line fill="none" stroke="#B01817" stroke-linecap="round" stroke-linejoin="round" stroke-miterlimit="10" x1="20.75" y1="43.53" x2="16.16" y2="42.37"/><line fill="none" stroke="#B01817" stroke-linecap="round" stroke-linejoin="round" stroke-miterlimit="10" x1="20.75" y1="43.53" x2="21.99" y2="47.9"/><path fill="none" stroke="#B01817" stroke-miterlimit="10" d="M55.85 12.06l-3.22-3.22c-1.18-1.19-2.16-2.09-3.17-1.08l-1.83 1.83c-0.23 0.23-0.4 0.5-0.51 0.8l6.82 6.82c0.26-0.15 0.51-0.34 0.74-0.57l1.83-1.83C57.52 13.81 57.04 13.24 55.85 12.06z"/><rect x="44.34" y="13.28" transform="matrix(0.7071 0.7072 -0.7072 0.7071 25.0191 -30.5069)" fill="none" stroke="#B01817" stroke-miterlimit="10" width="9.97" height="3.32"/><polygon fill="none" stroke="#B01817" stroke-miterlimit="10" points="7.62 56.66 8.35 55.34 9.07 54.03 9.66 54.62 10.25 55.2 8.93 55.93 "/><line fill="none" stroke="#B01817" stroke-linecap="round" stroke-linejoin="round" stroke-miterlimit="10" x1="23.58" y1="47.75" x2="7.6" y2="56.67"/></svg>