<svg version="1.1" id="Layer_1" xmlns="http://www.w3.org/2000/svg" xmlns:xlink="http://www.w3.org/1999/xlink" x="0" y="0" width="64" height="74" viewBox="0 0 64 74" enable-background="new 0 0 64 74" xml:space="preserve">
  <path fill="none" stroke="#B01817" stroke-linecap="round" stroke-linejoin="round" d="M5.99 45.75l26.01 17.26 26.01-17.26V28.25L32 10.99 5.99 28.25V45.75zM58.01 45.75L32 28.25 5.99 45.75M5.99 28.25l26.01 17.26 26.01-17.26M32 10.99v17.26M32 45.75v17.26"/>
  <path fill="#B01817" d="M32 1.16l31 17.91v35.82L32 72.79 1 54.88V19.06L32 1.16M32 0L0 18.49v36.97l32 18.49 32-18.48V18.49L32 0 32 0z"/>
</svg>
