<svg version="1.1" id="Layer_1" xmlns="http://www.w3.org/2000/svg" xmlns:xlink="http://www.w3.org/1999/xlink" x="0" y="0" width="64" height="64" viewBox="0 0 64 64" enable-background="new 0 0 64 64" xml:space="preserve"><path fill="#B01817" d="M32 33.3l15.3 14.99L61.65 63H32 2.35l14.34-14.7L32 33.3M32 31.9L15.99 47.59 -0.02 64H32h32.02L48.01 47.59 32 31.9 32 31.9z"/><line fill="none" stroke="#B01817" stroke-linejoin="round" stroke-miterlimit="10" x1="0.5" y1="24.5" x2="19.24" y2="44.63"/><line fill="none" stroke="#B01817" stroke-linejoin="round" stroke-miterlimit="10" x1="63.5" y1="24.5" x2="44.49" y2="44.91"/><line fill="none" stroke="#B01817" stroke-linecap="round" stroke-linejoin="round" stroke-miterlimit="10" x1="0.5" y1="24" x2="32.03" y2="1.29"/><line fill="none" stroke="#B01817" stroke-linecap="round" stroke-linejoin="round" stroke-miterlimit="10" x1="63.46" y1="24.21" x2="31.97" y2="1.29"/><line fill="none" stroke="#B01817" stroke-linejoin="round" stroke-miterlimit="10" x1="0.5" y1="24" x2="0.5" y2="64"/><line fill="none" stroke="#B01817" stroke-linejoin="round" stroke-miterlimit="10" x1="63.5" y1="24" x2="63.5" y2="64"/><path fill="#B01817" d="M40.01 12.95l0 0.62 -1.83 0 -0.01-0.61c0-0.24-0.08-0.44-0.25-0.61 -0.17-0.17-0.38-0.25-0.61-0.25l-4.44 0 0 5.22 4.44 0c0.76 0 1.38 0.26 1.92 0.79 0.52 0.52 0.79 1.15 0.79 1.89l0 3.53c0 0.74-0.26 1.37-0.79 1.89 -0.53 0.52-1.16 0.78-1.92 0.78l-4.44 0.01v2.52l-1.81 0 0-2.52 -4.47 0c-0.74 0-1.37-0.26-1.89-0.78 -0.52-0.52-0.78-1.15-0.79-1.89l0-0.64h1.81l0 0.64c0 0.23 0.09 0.44 0.25 0.61 0.17 0.17 0.37 0.26 0.61 0.25l4.47 0 0-5.26 -4.47 0c-0.73 0.01-1.36-0.26-1.89-0.77 -0.52-0.52-0.78-1.15-0.78-1.9l0-3.49c0-0.76 0.26-1.39 0.79-1.91 0.52-0.53 1.15-0.79 1.89-0.79l4.46 0 0-2.52 1.81 0v2.52l4.45 0c0.75 0 1.39 0.27 1.91 0.79C39.75 11.56 40.01 12.2 40.01 12.95zM31.06 17.31v-5.22l-4.47 0c-0.24 0-0.44 0.08-0.61 0.26 -0.17 0.17-0.25 0.37-0.25 0.6l0 3.5c0 0.23 0.08 0.44 0.25 0.6 0.17 0.17 0.37 0.26 0.61 0.26L31.06 17.31zM37.32 19.12l-4.45 0 0 5.26 4.44 0c0.23 0 0.45-0.08 0.61-0.25 0.17-0.17 0.25-0.37 0.25-0.61l0-3.54c0-0.24-0.08-0.43-0.26-0.61C37.75 19.2 37.54 19.12 37.32 19.12z"/></svg>
