<?xml version="1.0" encoding="utf-8"?>
<!-- Generator: Adobe Illustrator 15.0.0, SVG Export Plug-In . SVG Version: 6.00 Build 0)  -->
<!DOCTYPE svg PUBLIC "-//W3C//DTD SVG 1.1//EN" "http://www.w3.org/Graphics/SVG/1.1/DTD/svg11.dtd">
<svg version="1.1" id="Layer_1" xmlns="http://www.w3.org/2000/svg" xmlns:xlink="http://www.w3.org/1999/xlink" x="0px" y="0px"
	 width="64px" height="74px" viewBox="0 0 64 74" enable-background="new 0 0 64 74" xml:space="preserve">
<g>
	<g>
		<path fill="#B01817" d="M57,19v37H7V19H57 M58,18H6v39h52V18L58,18z"/>
	</g>
	<line fill="none" stroke="#B01817" stroke-miterlimit="10" x1="6" y1="24.5" x2="58" y2="24.5"/>
	<circle fill="none" stroke="#B01817" stroke-miterlimit="10" cx="9.656" cy="21.156" r="0.406"/>
	<circle fill="none" stroke="#B01817" stroke-miterlimit="10" cx="12.906" cy="21.156" r="0.406"/>
	<circle fill="none" stroke="#B01817" stroke-miterlimit="10" cx="16.156" cy="21.156" r="0.406"/>
	<circle fill="none" stroke="#B01817" stroke-miterlimit="10" cx="32" cy="40.25" r="12.188"/>
	<g>
		<path fill="#B01817" d="M43.271,44.121l-3.115-1l0.132-0.412l3.116,1L43.271,44.121z"/>
		<path fill="#B01817" d="M43.631,42.829l-2.135-0.44l0.057-0.283l2.138,0.441L43.631,42.829z"/>
		<path fill="#B01817" d="M43.81,41.798l-2.166-0.252l0.032-0.286l2.167,0.251L43.81,41.798z"/>
		<path fill="#B01817" d="M43.896,40.795l-2.181-0.068l0.01-0.288l2.179,0.067L43.896,40.795z"/>
		<path fill="#B01817" d="M43.886,39.575l-3.262,0.249l-0.033-0.432l3.262-0.249L43.886,39.575z"/>
		<path fill="#B01817" d="M43.729,38.227l-2.145,0.398l-0.053-0.284l2.145-0.397L43.729,38.227z"/>
		<path fill="#B01817" d="M43.512,37.229l-2.103,0.579l-0.077-0.278l2.103-0.579L43.512,37.229z"/>
		<path fill="#B01817" d="M43.21,36.253l-2.046,0.757l-0.1-0.271l2.044-0.757L43.21,36.253z"/>
		<path fill="#B01817" d="M42.738,35.119l-2.928,1.461l-0.191-0.387l2.926-1.462L42.738,35.119z"/>
		<path fill="#B01817" d="M42.093,33.945l-1.836,1.177l-0.155-0.243l1.836-1.178L42.093,33.945z"/>
		<path fill="#B01817" d="M41.514,33.101l-1.728,1.332l-0.176-0.229l1.728-1.333L41.514,33.101z"/>
		<path fill="#B01817" d="M40.854,32.299l-1.605,1.478l-0.195-0.212l1.604-1.478L40.854,32.299z"/>
		<path fill="#B01817" d="M40,31.441l-2.155,2.461l-0.325-0.285l2.154-2.461L40,31.441z"/>
		<path fill="#B01817" d="M38.963,30.602l-1.259,1.781l-0.235-0.166l1.258-1.782L38.963,30.602z"/>
		<path fill="#B01817" d="M38.106,30.037l-1.103,1.882l-0.248-0.146l1.102-1.881L38.106,30.037z"/>
		<path fill="#B01817" d="M37.186,29.537l-0.931,1.972l-0.262-0.123l0.932-1.972L37.186,29.537z"/>
		<path fill="#B01817" d="M36.082,29.066l-1.073,3.089L34.6,32.015l1.073-3.091L36.082,29.066z"/>
		<path fill="#B01817" d="M34.775,28.671l-0.486,2.126l-0.281-0.065l0.486-2.126L34.775,28.671z"/>
		<path fill="#B01817" d="M33.783,28.476l-0.303,2.16l-0.286-0.04l0.304-2.16L33.783,28.476z"/>
		<path fill="#B01817" d="M32.747,28.364l-0.114,2.178l-0.288-0.014l0.114-2.179L32.747,28.364z"/>
		<path fill="#B01817" d="M31.543,28.346l0.177,3.267l-0.432,0.023l-0.176-3.267L31.543,28.346z"/>
		<path fill="#B01817" d="M30.211,28.471l0.347,2.153l-0.285,0.046l-0.347-2.153L30.211,28.471z"/>
		<path fill="#B01817" d="M29.191,28.668l0.532,2.115l-0.28,0.071l-0.531-2.116L29.191,28.668z"/>
		<path fill="#B01817" d="M28.208,28.949l0.71,2.062l-0.272,0.095l-0.71-2.063L28.208,28.949z"/>
		<path fill="#B01817" d="M27.082,29.385l1.39,2.961l-0.391,0.185L26.69,29.57L27.082,29.385z"/>
		<path fill="#B01817" d="M25.864,30.02l1.138,1.86l-0.246,0.151l-1.139-1.861L25.864,30.02z"/>
		<path fill="#B01817" d="M25.008,30.58l1.294,1.755l-0.232,0.171l-1.295-1.755L25.008,30.58z"/>
		<path fill="#B01817" d="M24.195,31.22l1.442,1.636l-0.216,0.191l-1.443-1.637L24.195,31.22z"/>
		<path fill="#B01817" d="M23.323,32.05l2.413,2.21l-0.292,0.319l-2.413-2.209L23.323,32.05z"/>
		<path fill="#B01817" d="M22.439,33.096l1.761,1.286l-0.17,0.233l-1.762-1.286L22.439,33.096z"/>
		<path fill="#B01817" d="M21.875,33.913l1.858,1.144l-0.151,0.246l-1.858-1.143L21.875,33.913z"/>
		<path fill="#B01817" d="M21.371,34.792l1.948,0.981l-0.129,0.258l-1.948-0.981L21.371,34.792z"/>
		<path fill="#B01817" d="M20.863,35.907l3.065,1.145l-0.152,0.405l-3.064-1.144L20.863,35.907z"/>
		<path fill="#B01817" d="M20.442,37.188l2.114,0.538l-0.071,0.28l-2.113-0.538L20.442,37.188z"/>
		<path fill="#B01817" d="M20.216,38.213l2.153,0.35l-0.046,0.285l-2.153-0.351L20.216,38.213z"/>
		<path fill="#B01817" d="M20.087,39.212l2.174,0.167l-0.021,0.288L20.065,39.5L20.087,39.212z"/>
		<path fill="#B01817" d="M20.04,40.433l3.27-0.104l0.014,0.433l-3.27,0.104L20.04,40.433z"/>
		<path fill="#B01817" d="M20.136,41.786l2.16-0.302l0.04,0.286l-2.161,0.302L20.136,41.786z"/>
		<path fill="#B01817" d="M20.305,42.774l2.128-0.481l0.063,0.281l-2.127,0.481L20.305,42.774z"/>
		<path fill="#B01817" d="M20.565,43.78l2.078-0.663l0.088,0.274l-2.078,0.664L20.565,43.78z"/>
	</g>
	<path fill="#B01817" stroke="#B01817" stroke-miterlimit="10" d="M33.142,45.489l1.814-2.495l2.073-2.857l-2.858,2.074
		l-2.495,1.812c-0.386-0.053-0.763,0.046-1.032,0.312c-0.502,0.503-0.42,1.4,0.184,2.004c0.604,0.604,1.5,0.686,2.003,0.183
		C33.098,46.254,33.195,45.876,33.142,45.489z"/>
</g>
<g>
	<path fill="#B01817" d="M32,1.155l31,17.908v35.819L32,72.789L1,54.882V19.063L32,1.155 M32,0L0,18.486v36.973l32,18.485l32-18.485
		V18.486L32,0L32,0z"/>
</g>
</svg>
