<svg version="1.1" id="Layer_1" xmlns="http://www.w3.org/2000/svg" xmlns:xlink="http://www.w3.org/1999/xlink" x="0" y="0" width="64" height="64" viewBox="0 0 64 64" enable-background="new 0 0 64 64" xml:space="preserve"><ellipse fill="none" stroke="#B01817" stroke-width="0.5" stroke-miterlimit="10" stroke-dasharray="1" cx="42.6" cy="32.36" rx="20.4" ry="18.43"/><ellipse fill="none" stroke="#B01817" stroke-width="0.5" stroke-miterlimit="10" stroke-dasharray="1" cx="21.4" cy="32.36" rx="20.4" ry="18.43"/><circle fill="none" stroke="#B01817" stroke-width="0.5" stroke-miterlimit="10" stroke-dasharray="1" cx="32" cy="32" r="27.1"/><path fill="#801111" d="M19.78 17.33C19.78 17.33 19.82 17.36 19.78 17.33 19.78 17.33 19.78 17.33 19.78 17.33z"/><path fill="#801111" d="M32.81 19.72c0.02-0.02-1.17-0.88-1.21-0.82C32 19.17 32.41 19.44 32.81 19.72 32.83 19.69 32.81 19.72 32.81 19.72z"/><path fill="#801111" d="M33.96 20.41C33.94 20.38 33.95 20.39 33.96 20.41L33.96 20.41z"/><path fill="#801111" d="M37.58 25.12C37.58 25.12 37.56 25.09 37.58 25.12L37.58 25.12z"/><path fill="#801111" d="M38.39 29.58c0.02 0-0.14-0.82-0.19-0.82C38.26 29.03 38.33 29.31 38.39 29.58 38.41 29.58 38.38 29.58 38.39 29.58z"/><path fill="#801111" d="M38.33 30.05C38.34 30.05 38.34 30.04 38.33 30.05 38.33 30.05 38.33 30.04 38.33 30.05z"/><path fill="#801111" d="M38.46 29.84C38.53 29.86 38.38 29.66 38.46 29.84 38.48 29.85 38.45 29.83 38.46 29.84z"/><path fill="#801111" d="M38.46 29.77C38.46 29.77 38.45 29.73 38.46 29.77L38.46 29.77z"/><path fill="#801111" d="M37.42 34.57C37.02 36.17 37.34 35.04 37.42 34.57 37.42 34.56 37.37 34.91 37.42 34.57z"/><path fill="#801111" d="M35.81 40.97C36.3 39.29 35.87 41.35 35.81 40.97 35.85 40.83 35.79 41.05 35.81 40.97z"/><path fill="#801111" d="M34.91 42.43C34.91 42.43 34.88 42.43 34.91 42.43 34.91 42.43 34.91 42.43 34.91 42.43z"/><path fill="#801111" d="M35.09 42.33C35.15 42.37 35.08 42.18 35.09 42.33 35.11 42.34 35.09 42.32 35.09 42.33z"/><path fill="#801111" d="M35.12 42.28C35.12 42.28 35.12 42.25 35.12 42.28L35.12 42.28z"/><path fill="#801111" d="M15.71 45.66c-0.01-0.01-0.23-0.15-0.23-0.15C15.55 45.56 15.63 45.61 15.71 45.66 15.7 45.65 15.7 45.66 15.71 45.66z"/><path fill="#801111" d="M14.6 45.56C14.57 45.6 14.6 45.56 14.6 45.56 14.6 45.56 14.61 45.56 14.6 45.56z"/><path fill="#801111" d="M34.19 49.04c0.34-0.22 0.67-0.47 0.97-0.74C35.04 48.22 34.01 49.15 34.19 49.04 34.53 48.82 34.55 48.81 34.19 49.04z"/><path fill="#801111" d="M38.34 44.52c-0.05 0.06-0.52 0.61-0.49 0.63C38.01 44.94 38.18 44.73 38.34 44.52 38.29 44.59 38.35 44.52 38.34 44.52z"/><path fill="#801111" d="M40.08 42.53c0.01-0.01 0.85-0.97 0.82-0.99C40.8 41.49 39.93 42.71 40.08 42.53 40.1 42.52 40.35 42.22 40.08 42.53z"/><path fill="#801111" d="M40.83 40.31C40.83 40.31 40.86 40.3 40.83 40.31 40.83 40.31 40.83 40.31 40.83 40.31z"/><path fill="#801111" d="M42.24 36.78c-0.01 0.06-0.15 0.74-0.13 0.75C42.15 37.28 42.19 37.03 42.24 36.78 42.22 36.84 42.24 36.77 42.24 36.78z"/><path fill="#801111" d="M42.1 35.64C42.11 35.64 42.12 35.67 42.1 35.64L42.1 35.64z"/><path fill="#801111" d="M42.54 30.8c-0.18 0.34-0.08-4.7-1.04-4.57 0.74 3.02-0.8-4.9-1.82-4.62 0.61 1.76-4.53-5.46-3.34-4.25 -2.77-2.15-4.79-3.52-8.07-4.87 0.57 0.24 1.15 0.45 1.74 0.63 -1 0.27-2.6-0.9-3.6-1.11 0.94 0.22 1.89 0.4 2.84 0.56 -0.16 0.06-19.67-0.67-17.96 2.32 3.8-2.18-3.8 3.98-0.05 0.02 -0.69-0.33-0.92 4.93 0.59 5.76 1.31 0.6 7.53-0.67 2.55 0.16 2.19-0.37 9.51-4.15 9-4.07 2.06-0.55 4.24 0.27 6.06 1.1 0.21 0.1 4.03 2.12 1.04 0.21 0.74 0.34 6 6.02 5.73 6.02 -0.28-1.79 0.98-0.32 1.11 1.1 -1.32-3.27 1.31 5.36 0.9 2.78 0.32 0.96-0.27 1.74 0.13 2.43 -0.17-0.52-0.14-0.57 0.08-0.15 -0.6 0.36-0.98 4.88-0.65 3.33 -0.04 0.44-1.68 5.87-0.72 3 0.06 0.66-1.57 5.05-0.44 2.7 -1.31 3.84-9.29 10.89-13.66 8.35 0.77 0.23 1.56 0.35 2.36 0.37 -1.01 1.08-10.89-3.03-8.73-2.09 -0.06 0-1.25-0.73-0.84 0 -1.23-1.31-3.71 1.23-3.07 3.65 0.32 1.18 6.88 5.48 7.65 3.45 -3.82-0.31 3.27-0.98 4.16-1.15 1.1-0.21 8.93-2.26 6.3-1.39 0.41-0.17 3.65-1.12 3.54-1.38 -0.44-0.1-0.85 0.01-1.25 0.34 0.45-0.23 3.7-2.33 3.59-2.47 -1.46 0.33 2.27-3.36 3.35-4.4 -3.27 2.02 3.56-3.26 1.93-3.61 -0.54 1.58-0.36 1.11-1.03 0.58C42.53 40.12 42.59 30.79 42.54 30.8 42.94 30.04 42.51 30.82 42.54 30.8zM26.07 51.94C25.32 51.75 27.87 51.32 26.07 51.94 26.01 51.92 26.28 51.87 26.07 51.94zM37.67 25.44c0.07 0.07 0.02 0.09 0.08 0.16C37.72 25.54 37.69 25.49 37.67 25.44 37.74 25.5 37.68 25.48 37.67 25.44zM33.95 20.37c0.13 0.02 0.18 0.08 0.26 0.18C34.12 20.49 34.03 20.43 33.95 20.37 34.08 20.39 33.95 20.38 33.95 20.37zM42.08 34.78C42.06 34.74 42.05 34.65 42.08 34.78 42.07 34.77 42.07 34.76 42.08 34.78zM41.21 39.61c0.04 0.1 0.02 0.26 0.02 0.4C41.23 39.88 41.22 39.74 41.21 39.61 41.25 39.71 41.21 39.61 41.21 39.61zM37.39 37.23c-0.05-0.08-0.07-0.21 0.04-0.27C37.41 37.05 37.4 37.14 37.39 37.23 37.33 37.16 37.39 37.23 37.39 37.23zM34.59 20.64c0.11 0.14 0.07 0.14-0.12-0.01C34.52 20.63 34.56 20.63 34.59 20.64 34.7 20.78 34.56 20.64 34.59 20.64zM34.12 19.86C33.84 19.47 34.6 20.43 34.12 19.86 34.1 19.83 34.16 19.91 34.12 19.86zM27.19 16.4c0.14-0.01-0.2-0.04-0.22-0.04C27.04 16.37 27.12 16.38 27.19 16.4 27.33 16.38 27.19 16.39 27.19 16.4zM25.08 51.8c0.09-0.03 0.04-0.01 0.22 0C25.22 51.8 25.15 51.8 25.08 51.8 25.16 51.77 25.08 51.8 25.08 51.8zM19.69 17.23c-0.04 0-0.07 0-0.1 0C19.62 17.23 19.65 17.23 19.69 17.23 19.65 17.23 19.69 17.23 19.69 17.23zM19.55 17.23C19.54 17.23 19.59 17.19 19.55 17.23 19.55 17.23 19.55 17.23 19.55 17.23zM13.27 18.54c0.04 0.02 0.06 0.05 0.07 0.1C13.31 18.61 13.29 18.57 13.27 18.54 13.31 18.56 13.28 18.57 13.27 18.54zM19.52 17.21C19.52 17.23 19.52 17.23 19.52 17.21L19.52 17.21zM19.54 17.23C19.54 17.23 19.55 17.17 19.54 17.23 19.54 17.23 19.54 17.23 19.54 17.23zM37.84 36.95c-0.02 0.13 0 0.14-0.07 0.2C37.8 37.08 37.82 37.02 37.84 36.95 37.82 37.07 37.82 37.01 37.84 36.95zM16.35 46.39C16.12 46.26 16.76 46.54 16.35 46.39 16.28 46.35 16.36 46.4 16.35 46.39zM25.07 51.69C25.47 51.71 24.52 51.71 25.07 51.69 25.1 51.69 25.01 51.69 25.07 51.69zM41.83 35.63C41.85 35.64 41.82 35.72 41.83 35.63 41.84 35.63 41.83 35.64 41.83 35.63zM41.98 34.56c0.01-0.14 0.01-0.28 0.03-0.42C42 34.28 41.99 34.42 41.98 34.56 41.99 34.42 41.99 34.59 41.98 34.56zM42.04 30C42.18 29.1 42.25 30.18 42.04 30 42.06 29.87 42.09 30.03 42.04 30zM20.41 12.64C20.33 12.63 20.39 12.62 20.41 12.64 20.39 12.64 20.41 12.64 20.41 12.64zM10.8 17.7c0.02 0.04 0.01 0.1-0.02 0.14C10.79 17.8 10.79 17.75 10.8 17.7 10.82 17.74 10.79 17.75 10.8 17.7zM19.06 17.44c0.14-0.1 0.29-0.15 0.46-0.14C19.37 17.35 19.22 17.4 19.06 17.44 19.2 17.34 19.06 17.46 19.06 17.44zM20.15 17.22C19.82 17.54 19.45 17.07 20.15 17.22 20.06 17.3 20.15 17.22 20.15 17.22zM22.11 51.83c0.03 0.01 0.06 0.02 0.09 0.03C22.17 51.85 22.14 51.84 22.11 51.83 22.14 51.84 22.11 51.86 22.11 51.83zM25.63 51.72c-0.1 0.04-0.21 0.04-0.32 0.01C25.41 51.72 25.52 51.72 25.63 51.72 25.52 51.75 25.63 51.71 25.63 51.72zM40.64 40.47C40.74 40.45 40.46 40.77 40.64 40.47 40.67 40.46 40.62 40.51 40.64 40.47zM40.68 40.4c-0.04-0.01-0.03-0.04 0.05-0.11C40.72 40.33 40.7 40.37 40.68 40.4 40.64 40.4 40.69 40.41 40.68 40.4zM40.86 40.3c-0.08 0.05-0.04-0.02 0-0.09C40.87 40.23 40.86 40.26 40.86 40.3 40.79 40.35 40.87 40.26 40.86 40.3zM40.86 40.09c0.01 0.06 0 0.11-0.06 0.16C40.83 40.19 40.84 40.14 40.86 40.09 40.88 40.15 40.86 40.08 40.86 40.09zM42.39 30.51C42.39 30.52 42.39 30.49 42.39 30.51 42.39 30.51 42.39 30.5 42.39 30.51zM42.21 30.4c0 0.03-0.01 0.06-0.01 0.09C42.2 30.46 42.21 30.43 42.21 30.4 42.21 30.43 42.21 30.39 42.21 30.4zM32.71 14.94C32.76 15.07 32.28 14.74 32.71 14.94 32.73 14.99 32.66 14.91 32.71 14.94zM10.67 16.73c0 0.05-0.01 0.04-0.04 0.11C10.65 16.8 10.66 16.77 10.67 16.73 10.67 16.78 10.66 16.74 10.67 16.73zM17.58 18.22c0.04-0.12 0.08-0.12 0.22-0.17C17.73 18.11 17.66 18.17 17.58 18.22 17.63 18.1 17.65 18.16 17.58 18.22zM18.07 17.84C17.54 18.06 18.81 17.59 18.07 17.84 18.02 17.86 18.08 17.83 18.07 17.84zM19.45 17.45C19.45 17.6 18.71 17.66 19.45 17.45 19.45 17.49 19.34 17.48 19.45 17.45zM20.39 17.02C21.48 17.08 20.17 17.25 20.39 17.02 20.54 17.03 20.36 17.06 20.39 17.02zM33.69 19.42C35.31 20.79 33.03 19.41 33.69 19.42 33.87 19.57 33.66 19.43 33.69 19.42zM34.29 21C34.14 20.66 35.41 21.57 34.29 21 34.28 20.96 34.43 21.07 34.29 21zM34.69 20.73C34.44 20.35 35.09 21.36 34.69 20.73 34.67 20.7 34.69 20.74 34.69 20.73zM38.56 29.05C38.81 29.88 38.69 29.59 38.56 29.05 38.54 28.98 38.56 29.05 38.56 29.05zM38.66 35.9C38.62 36.13 38.47 36.13 38.66 35.9 38.65 35.96 38.62 35.95 38.66 35.9zM16.81 46.74C15.9 45.96 17.08 46.69 16.81 46.74 16.69 46.64 16.84 46.73 16.81 46.74zM14.85 51.34C15.9 52.34 14.95 51.31 14.85 51.34 15.01 51.49 14.82 51.35 14.85 51.34zM22.27 51.84C21.94 51.69 22.76 51.69 22.27 51.84 22.23 51.82 22.33 51.82 22.27 51.84zM26.77 51.67c-0.06 0.03-0.13 0.04-0.21 0.03C26.63 51.69 26.7 51.68 26.77 51.67 26.71 51.7 26.77 51.67 26.77 51.67zM40.44 40.79C41.41 39.72 40.09 41.44 40.44 40.79 40.54 40.67 40.44 40.79 40.44 40.79zM41.93 35.84C41.93 35.84 42.07 35.5 41.93 35.84 41.86 35.82 41.95 35.8 41.93 35.84zM42.21 35.35C42.2 35.33 42.23 35.33 42.21 35.35 42.21 35.35 42.22 35.35 42.21 35.35zM42.13 35.13C42.19 35.36 42.34 34.75 42.13 35.13 42.11 35.04 42.15 35.09 42.13 35.13zM42.39 29.44c0.07 0.21 0.21 0.42 0.14 0.62C42.49 29.86 42.44 29.65 42.39 29.44 42.46 29.65 42.39 29.44 42.39 29.44zM40.9 24.55c0.06 0.24 0.18 0.49 0.06 0.72C40.94 25.03 40.92 24.79 40.9 24.55 40.96 24.79 40.9 24.55 40.9 24.55zM39.14 21.37c0.63 0.45-1.01-0.88-1.08-1.72 0.67 1.27 1.42 2.64 2.09 3.94C39.9 23.13 39.11 21.33 39.14 21.37 39.77 21.81 38.89 21.05 39.14 21.37zM37.55 18.79c0.12 0.14 0.31 0.25 0.29 0.44C37.75 19.08 37.65 18.94 37.55 18.79 37.68 18.94 37.55 18.79 37.55 18.79zM35.3 16.71c0.58 0.38 0.52 1.35-1.4-1 1.51 1.11 3.14 2.21 4.6 3.41C37.64 18.41 35.86 17.07 35.3 16.71 35.87 17.09 35 16.52 35.3 16.71zM33.68 15.72C32.59 14.98 32.84 14.77 33.68 15.72 33.41 15.54 33.48 15.49 33.68 15.72zM31.97 14.28C33.54 14.57 31.73 14.36 31.97 14.28 32 14.29 31.97 14.28 31.97 14.28zM28.02 12.5c0.45 0.15 0.9 0.29 1.35 0.44 -3.33-1.11 4.94 2.22-2.05-0.76C26.54 11.84 28.6 12.57 28.02 12.5 28.47 12.64 27.99 12.49 28.02 12.5zM19.29 12.51c0.53-0.04 1.07-0.08 1.6-0.12C20.14 12.52 19.3 12.52 19.29 12.51 19.82 12.47 19.29 12.51 19.29 12.51zM15.64 13.1C17.62 12.85 15.44 13.25 15.64 13.1 15.88 13.07 15.64 13.1 15.64 13.1zM11.12 15.47C11.7 14.76 10.52 16.11 11.12 15.47 11.42 15.1 11.07 15.53 11.12 15.47zM10.41 18.22c-0.16-0.25-0.03-0.82 0.06-1.13C10.45 17.46 10.43 17.84 10.41 18.22 10.26 17.97 10.4 18.17 10.41 18.22zM18.6 18.07c-0.7 0.55-1.39 1.09-2.09 1.64 0.72-0.56 1.36-1.24 2.08-1.81 -1.14 1.07 1.19-0.43 1.49-0.67C19.71 17.51 18.4 18.19 18.6 18.07 17.91 18.63 18.86 17.91 18.6 18.07zM21.04 17.29c-0.23 0.08-0.46 0.22-0.7 0.17C20.58 17.4 20.81 17.35 21.04 17.29 20.81 17.37 21.04 17.29 21.04 17.29zM27.29 16.82C24.78 16.22 27.71 16.76 27.29 16.82 27.04 16.76 27.29 16.82 27.29 16.82zM32.36 19.06c-0.91-0.64-0.85-0.66 1.61 1.25C33.48 20.07 32.39 19.08 32.36 19.06 31.46 18.42 32.86 19.4 32.36 19.06zM34.83 21.32C34.36 20.95 35.1 21.34 34.83 21.32 34.75 21.25 34.83 21.32 34.83 21.32zM37.23 24.36C37.17 24.37 38.55 27.02 37.23 24.36 37.42 24.33 37.27 24.45 37.23 24.36zM37.67 26.21c-0.08-0.18-0.24-0.26-0.2-0.45C37.54 25.91 37.6 26.06 37.67 26.21 37.59 26.03 37.67 26.21 37.67 26.21zM38.45 30.57c0 0.03 0 0.06 0 0.1C38.45 30.64 38.45 30.61 38.45 30.57 38.45 30.61 38.45 30.56 38.45 30.57zM38.07 30.53C37.98 32.76 38.33 30.05 38.07 30.53 38.06 30.76 38.04 30.58 38.07 30.53zM37.67 34.81c0.14 0.04-0.17 1.08-0.33 1.12C37.45 35.56 37.56 35.18 37.67 34.81 37.82 34.85 37.67 34.81 37.67 34.81zM37.18 35.92C37.18 35.93 37.09 35.95 37.18 35.92 37.18 35.92 37.18 35.92 37.18 35.92zM35.94 41.36C37.29 38.28 34.79 43.99 35.94 41.36 36.07 41.06 35.86 41.55 35.94 41.36zM34.83 42.57C34.92 42.27 34.99 42.47 34.83 42.57 34.88 42.4 34.85 42.55 34.83 42.57zM34.39 42.7C34.68 42.57 34.28 43.01 34.39 42.7 34.42 42.68 34.37 42.74 34.39 42.7zM25.29 48.18c-0.12 0.15-0.58-0.01-0.75-0.05C24.79 48.15 25.04 48.16 25.29 48.18 25.17 48.33 25.04 48.17 25.29 48.18zM24.33 48.17C25.72 48.26 24.84 48.19 24.33 48.17 24.42 48.18 24.33 48.17 24.33 48.17zM17.23 46.35C18.64 47.45 15.67 45.01 17.23 46.35 17.36 46.45 17.17 46.3 17.23 46.35zM15.37 52.03C12.57 52.03 15.71 52.03 15.37 52.03 15.06 52.03 15.37 52.03 15.37 52.03zM21.13 52.62c-1.45 0.3 1-0.36 1.2-0.31 -1 0.29-1.99 0.58-2.98 0.89C19.71 53.1 21.23 52.6 21.13 52.62 19.69 52.92 21.56 52.53 21.13 52.62zM22.97 52.12c-1.21 0.35 1.16-0.38 1.49-0.36 -1.07 0.17-2.13 0.34-3.2 0.52C21.59 52.23 23.24 52.04 22.97 52.12 21.76 52.47 23.5 51.96 22.97 52.12zM29.58 51.02c-0.27 0.08-0.54 0.14-0.81 0.2C29.04 51.15 29.31 51.08 29.58 51.02 29.32 51.1 29.52 51.02 29.58 51.02zM34.48 48.52c-1.02 0.74 1.12-1.11 0.97-0.91C35.6 47.9 34.34 48.62 34.48 48.52 33.46 49.26 34.86 48.23 34.48 48.52zM41.25 40.69c-0.41 0.5-0.82 1-1.24 1.51C39.93 42.1 41.43 40.41 41.25 40.69 40.83 41.19 41.26 40.66 41.25 40.69zM41.95 36.92c0.02 0.03-0.32-1.39-0.32-1.32 0 0.5 0.78-0.55 0.78-0.51C42.25 35.69 42.1 36.31 41.95 36.92 42.46 37.83 42.01 36.68 41.95 36.92zM42.59 33.76C42.57 33.78 42.52 33.69 42.59 33.76 42.58 33.76 42.59 33.76 42.59 33.76zM42.42 34C42.57 35.36 42.18 33.69 42.42 34 42.44 34.16 42.42 34 42.42 34z"/><path fill="#801111" d="M39.65 21.56c0.01 0.01-0.56-0.77-0.6-0.73C39.25 21.07 39.45 21.32 39.65 21.56 39.66 21.57 39.65 21.56 39.65 21.56z"/><path fill="#801111" d="M35.8 16.72C35 16.27 34.99 16.2 35.8 16.72 35.82 16.73 35.56 16.56 35.8 16.72z"/><path fill="#801111" d="M32.71 14.98C32.71 14.98 32.72 14.94 32.71 14.98L32.71 14.98z"/><path fill="#801111" d="M20.44 53c0.55-0.08 1.09-0.21 1.63-0.38C22 52.52 20.13 53.04 20.44 53 20.99 52.92 20.99 52.93 20.44 53z"/><path fill="#801111" d="M17.89 18.92c-0.12-0.07-1.29 1.39-1.43 1.27C16.94 19.76 17.42 19.34 17.89 18.92 17.77 18.84 17.9 18.92 17.89 18.92z"/><path fill="#B01817" d="M44.3 47.29C44.3 47.29 44.26 47.27 44.3 47.29 44.3 47.29 44.3 47.29 44.3 47.29z"/><path fill="#B01817" d="M31.27 44.91c0 0 1.15 0.9 1.21 0.82C32.08 45.45 31.67 45.18 31.27 44.91 31.27 44.9 31.27 44.9 31.27 44.91z"/><path fill="#B01817" d="M30.12 44.21C30.14 44.24 30.13 44.23 30.12 44.21L30.12 44.21z"/><path fill="#B01817" d="M26.5 39.5C26.49 39.5 26.52 39.53 26.5 39.5L26.5 39.5z"/><path fill="#B01817" d="M25.69 35.04c-0.02 0 0.14 0.83 0.19 0.82C25.82 35.59 25.75 35.32 25.69 35.04 25.68 35.05 25.7 35.04 25.69 35.04z"/><path fill="#B01817" d="M25.75 34.57C25.76 34.56 25.72 34.6 25.75 34.57 25.75 34.57 25.75 34.57 25.75 34.57z"/><path fill="#B01817" d="M25.62 34.78C25.54 34.76 25.7 34.96 25.62 34.78 25.6 34.77 25.63 34.79 25.62 34.78z"/><path fill="#B01817" d="M25.62 34.85C25.62 34.85 25.63 34.89 25.62 34.85L25.62 34.85z"/><path fill="#B01817" d="M28.27 23.65C27.79 25.33 28.21 23.27 28.27 23.65 28.23 23.78 28.29 23.57 28.27 23.65z"/><path fill="#B01817" d="M29.17 22.19C29.17 22.19 29.2 22.19 29.17 22.19 29.17 22.19 29.17 22.19 29.17 22.19z"/><path fill="#B01817" d="M28.99 22.29C28.93 22.25 29 22.44 28.99 22.29 28.97 22.28 28.99 22.3 28.99 22.29z"/><path fill="#B01817" d="M28.97 22.34C28.97 22.34 28.96 22.37 28.97 22.34L28.97 22.34z"/><path fill="#B01817" d="M48.37 18.97c0.02 0.02 0.22 0.14 0.23 0.15C48.53 19.06 48.45 19.01 48.37 18.97 48.39 18.98 48.38 18.96 48.37 18.97z"/><path fill="#B01817" d="M49.48 19.06C49.52 19.02 49.48 19.06 49.48 19.06 49.48 19.06 49.47 19.06 49.48 19.06z"/><path fill="#B01817" d="M29.89 15.58C28.28 16.66 29.47 15.85 29.89 15.58 29.89 15.58 29.53 15.81 29.89 15.58z"/><path fill="#B01817" d="M25.74 20.1C26.31 19.39 26.3 19.48 25.74 20.1 25.79 20.04 25.73 20.1 25.74 20.1z"/><path fill="#B01817" d="M24 22.09c-0.29 0.31-0.56 0.64-0.82 0.99C23.28 23.13 24.15 21.92 24 22.09 23.71 22.41 23.73 22.4 24 22.09z"/><path fill="#B01817" d="M23.25 24.31C23.25 24.31 23.22 24.33 23.25 24.31 23.25 24.31 23.25 24.31 23.25 24.31z"/><path fill="#B01817" d="M21.84 27.84c0.01-0.06 0.15-0.74 0.13-0.75C21.93 27.34 21.89 27.59 21.84 27.84 21.85 27.78 21.84 27.85 21.84 27.84z"/><path fill="#B01817" d="M21.98 28.98C21.97 28.98 21.96 28.95 21.98 28.98L21.98 28.98z"/><path fill="#B01817" d="M24.43 43.06c-0.01-0.01 0.55 0.77 0.6 0.73C24.83 43.55 24.63 43.3 24.43 43.06 24.42 43.05 24.43 43.06 24.43 43.06z"/><path fill="#B01817" d="M28.28 47.91C29.08 48.34 29.1 48.42 28.28 47.91 28.26 47.9 28.52 48.06 28.28 47.91z"/><path fill="#B01817" d="M31.37 49.64C31.37 49.65 31.36 49.68 31.37 49.64L31.37 49.64z"/><path fill="#B01817" d="M42.05 12c0.14-0.05 1.61-0.44 1.62-0.39C43.1 11.62 42.56 11.75 42.05 12 42.19 11.95 42.04 12 42.05 12z"/><path fill="#B01817" d="M46.2 45.68c0.05-0.04 1.36-1.29 1.42-1.24C47.33 44.26 45.98 45.89 46.2 45.68 46.25 45.63 46.59 45.29 46.2 45.68z"/><path fill="#B01817" d="M53.88 46.33c-0.24-4.14-9.01-1.79-4.17-2.54 -2.15 0.37-10.1 4.24-9 4.07 -1.78 0.48-4.01-0.11-5.58-0.85 -0.67-0.21-4.29-2.21-1.52-0.46 -1.4-0.63-6.58-7.76-5.36-4.68 -0.18-0.16-1.88-2.93-0.63-0.49 -0.81-0.91-1.4-3.92-1.92-7.18 0.19 0.57 0.18 0.63-0.04 0.17 0.4-0.23 0.95 0.27 0.62-1.89 3.4 0.04 5.74 0 6.4-0.01 -0.06-0.27-2.83-0.09-3.27-0.13 1.21-0.02 10.02-0.74 10.34 0.25 -0.16-0.59-4.43-0.21-5.05-0.3 2.46-0.04 11.68 2.77 13.36 0.36 -0.62 0.83-5.22-0.19-6.24-0.22 1.68 0.07 3.36 0.02 5.03-0.13 -1.25 0.57-1.65-0.37-2.92-0.36 0.68 0.01 4.11 0.27 3.38 0.44 1.44-0.25 0.35-0.04 1.36-0.28 -0.14 0.23-0.32 0.42-0.54 0.57 1.08 0.21 1.57-0.2 1.47-1.26 0.93 2.75-0.46-0.92-0.39-0.85 1.47 1.64 0.99 1.72-1.42 0.24 -2.84-1.23-5.47-1.61-8.54-1.63 -4.22-0.04-8.4 0.13-12.62 0.33 0.25-0.61 0.69-0.94 1.34-0.97 -0.36-0.71-0.36-2.16-0.92-0.49 -0.07-0.66 1.55-5.05 0.44-2.7 1.05-3.04 9.86-11.93 13.66-8.32 -0.77-0.25-1.56-0.38-2.36-0.39 0.96-1.09 10.92 3.03 8.73 2.09 0.63-0.5 1.29 0.61 1.39 0.87 6.51-3.31-4.21-10.47-5.14-7.97 3.41 0.29-12.63 3.25-10.46 2.53 -0.41 0.17-3.64 1.12-3.54 1.38 0.44 0.11 0.85-0.01 1.25-0.34 -0.44 0.23-3.68 2.36-3.59 2.47 1.46-0.33-2.27 3.36-3.35 4.4 3.27-2.03-3.54 3.28-1.93 3.61 0.64-1.87 0.16-1.1 1.03-0.58 -0.86-0.32-1.98 5.33-1.96 4.96 -0.85-0.46-1.75-0.62-2.7-0.47 1.1 0.5-3.44 2.41-4.48 2.28 0.5 0.1 1 0.13 1.52 0.09 -1.39 0.26-1.57 0.23-0.53-0.08 0.89 0.89-0.02 0.49 1.76 0.65 -2.08 0.17 3.36 0.11 4.17 0.04 0.98-0.07 0.09 6.03 1.67 5.83 -0.66-2.82 0.8 4.89 1.82 4.62 -0.64-1.85 4.57 5.53 3.34 4.25 2.7 2.09 4.94 3.64 8.07 4.87 -4.88-1.06 1.41 0.38 1.86 0.47 -0.95-0.19-1.89-0.38-2.84-0.56 0.56-0.24 19.7 0.45 17.96-2.32 -3.58 2.02 3.74-3.95 0.05-0.02C53.39 49.96 54.01 46.77 53.88 46.33 53.83 45.45 53.97 46.63 53.88 46.33zM38.01 12.68C38.81 12.78 36.2 13.31 38.01 12.68 38.07 12.69 37.8 12.75 38.01 12.68zM47.4 31.85C47.41 31.86 47.36 31.87 47.4 31.85 47.4 31.85 47.4 31.85 47.4 31.85zM44.61 31.91c-0.21 0.01-0.42 0-0.62 0C44.2 31.92 44.41 31.92 44.61 31.91 44.41 31.92 44.48 31.91 44.61 31.91zM29.05 32.46c-0.55-0.02-1.11-0.04-1.66-0.06C30.59 31.55 28.3 32.37 29.05 32.46 28.5 32.44 28.81 32.43 29.05 32.46zM26.42 39.19c-0.07-0.07-0.02-0.08-0.08-0.16C26.36 39.08 26.39 39.13 26.42 39.19 26.34 39.12 26.4 39.14 26.42 39.19zM30.13 44.25c-0.13-0.02-0.18-0.08-0.26-0.18C29.96 44.13 30.05 44.19 30.13 44.25 30.01 44.23 30.13 44.24 30.13 44.25zM22.87 25.01C22.71 24.61 23.01 24.42 22.87 25.01 22.83 24.91 22.87 25.01 22.87 25.01zM26.69 27.39c0.05 0.07 0.08 0.21-0.04 0.27C26.67 27.57 26.68 27.48 26.69 27.39 26.75 27.46 26.69 27.39 26.69 27.39zM47.63 31.66c0.02 0.01-0.06-0.02-0.02-0.01C47.62 31.65 47.63 31.65 47.63 31.66 47.65 31.67 47.63 31.66 47.63 31.66zM47.52 31.62C47.32 31.36 47.89 31.69 47.52 31.62 47.5 31.59 47.52 31.62 47.52 31.62zM29.48 43.98c-0.11-0.14-0.07-0.13 0.12 0.01C29.56 43.99 29.52 43.99 29.48 43.98 29.37 43.84 29.52 43.98 29.48 43.98zM29.96 44.76C30.24 45.16 29.48 44.2 29.96 44.76 29.98 44.79 29.92 44.71 29.96 44.76zM36.89 48.22c-0.14 0.01 0.2 0.04 0.23 0.04C37.04 48.25 36.96 48.24 36.89 48.22 36.75 48.24 36.89 48.23 36.89 48.22zM39 12.83c-0.09 0.03-0.03 0.01-0.22 0C38.86 12.83 38.93 12.83 39 12.83 38.91 12.85 39 12.82 39 12.83zM44.39 47.39c0.04 0 0.07 0 0.11 0C44.46 47.39 44.43 47.39 44.39 47.39 44.43 47.39 44.39 47.4 44.39 47.39zM44.53 47.39C44.54 47.39 44.49 47.44 44.53 47.39 44.53 47.39 44.53 47.39 44.53 47.39zM50.81 46.08c-0.04-0.02-0.06-0.05-0.07-0.1C50.77 46.01 50.79 46.05 50.81 46.08 50.77 46.06 50.8 46.05 50.81 46.08zM44.56 47.41C44.56 47.39 44.56 47.39 44.56 47.41L44.56 47.41zM44.54 47.39C44.54 47.39 44.53 47.45 44.54 47.39 44.54 47.39 44.54 47.39 44.54 47.39zM26.24 27.67c0.02-0.12 0-0.14 0.07-0.2C26.28 27.54 26.26 27.6 26.24 27.67 26.26 27.55 26.26 27.61 26.24 27.67zM47.73 18.23C47.91 18.35 47.35 18.12 47.73 18.23 47.8 18.27 47.72 18.22 47.73 18.23zM39.01 12.93C38.62 12.91 39.56 12.91 39.01 12.93 38.97 12.93 39.06 12.93 39.01 12.93zM22.25 28.99C22.23 28.98 22.26 28.9 22.25 28.99 22.24 28.99 22.25 28.98 22.25 28.99zM53.28 46.92c-0.02-0.04 0-0.1 0.01-0.14C53.29 46.82 53.29 46.87 53.28 46.92 53.26 46.88 53.29 46.87 53.28 46.92zM45.02 47.18c-0.14 0.1-0.29 0.15-0.46 0.14C44.71 47.27 44.86 47.22 45.02 47.18 44.88 47.28 45.02 47.16 45.02 47.18zM43.93 47.41C44.29 47.09 44.6 47.55 43.93 47.41 44.02 47.33 43.93 47.41 43.93 47.41zM42.27 31.96C42.28 31.96 42.33 31.96 42.27 31.96 42.27 31.96 42.28 31.96 42.27 31.96zM48.4 31.54c0.08-0.01 0.12 0.05 0.12 0.18C48.48 31.66 48.44 31.6 48.4 31.54 48.48 31.53 48.45 31.59 48.4 31.54zM25.42 28.72C25.47 28.49 25.6 28.5 25.42 28.72 25.43 28.66 25.46 28.67 25.42 28.72zM41.97 12.79c-0.03-0.01-0.06-0.02-0.09-0.03C41.91 12.77 41.94 12.78 41.97 12.79 41.94 12.78 41.97 12.76 41.97 12.79zM38.46 12.91c0.11-0.04 0.21-0.04 0.33-0.01C38.67 12.9 38.56 12.9 38.46 12.91 38.56 12.87 38.45 12.91 38.46 12.91zM23.44 24.15C23.58 24.13 23.74 23.64 23.44 24.15 23.41 24.16 23.46 24.11 23.44 24.15zM23.4 24.22c0.04 0 0.03 0.04-0.05 0.11C23.36 24.29 23.38 24.26 23.4 24.22 23.44 24.22 23.39 24.21 23.4 24.22zM23.22 24.32c0.08-0.05 0.04 0.02 0 0.09C23.22 24.39 23.22 24.36 23.22 24.32 23.3 24.28 23.21 24.36 23.22 24.32zM23.22 24.53c-0.01-0.06 0.01-0.11 0.06-0.15C23.25 24.43 23.24 24.48 23.22 24.53 23.21 24.47 23.22 24.54 23.22 24.53zM21.87 29.27C21.88 29.29 21.85 29.3 21.87 29.27 21.87 29.27 21.86 29.27 21.87 29.27zM22.04 34.62C21.92 35.54 21.82 34.43 22.04 34.62 22.02 34.75 21.99 34.59 22.04 34.62zM43.67 51.98C43.76 51.99 43.68 51.99 43.67 51.98 43.69 51.98 43.67 51.98 43.67 51.98zM53.41 47.89c0-0.05 0.01-0.04 0.04-0.11C53.43 47.82 53.42 47.85 53.41 47.89 53.41 47.84 53.42 47.88 53.41 47.89zM46.5 46.4c-0.05 0.12-0.08 0.12-0.22 0.17C46.35 46.51 46.42 46.46 46.5 46.4 46.45 46.52 46.43 46.46 46.5 46.4zM46.01 46.78C46.54 46.56 45.27 47.04 46.01 46.78 46.06 46.77 46 46.79 46.01 46.78zM44.63 47.17C44.63 47.03 45.37 46.97 44.63 47.17 44.63 47.13 44.74 47.14 44.63 47.17zM43.69 47.6C42.59 47.56 43.92 47.35 43.69 47.6 43.54 47.59 43.72 47.56 43.69 47.6zM30.39 45.2C28.8 43.83 31.03 45.21 30.39 45.2 30.21 45.05 30.42 45.19 30.39 45.2zM29.79 43.63C29.94 43.97 28.67 43.04 29.79 43.63 29.81 43.67 29.65 43.55 29.79 43.63zM29.4 43.89C29.63 44.26 29.01 43.26 29.4 43.89 29.41 43.92 29.39 43.88 29.4 43.89zM25.52 35.91c-0.17 0-0.13-0.95-0.15-1.06C25.42 35.21 25.47 35.56 25.52 35.91 25.35 35.91 25.52 35.91 25.52 35.91zM30.76 32.17c0.87-0.1 1.82 0.05 2.7 0.09C22.72 31.92 33.66 32.29 30.76 32.17 31.64 32.06 31.23 32.19 30.76 32.17zM40.75 31.88C41.12 31.9 40.24 32.01 40.75 31.88 40.78 31.89 40.71 31.9 40.75 31.88zM47.87 31.9C47.11 31.9 48.27 31.9 47.87 31.9 47.78 31.9 47.87 31.9 47.87 31.9zM48.61 31.94C48.34 30.61 48.81 32.54 48.61 31.94 48.58 31.79 48.63 31.98 48.61 31.94zM49.22 31.44C49.15 31.02 49.69 32.1 49.22 31.44 49.21 31.4 49.27 31.52 49.22 31.44zM47.78 30.24C47.09 30 49.46 30.71 47.78 30.24 47.74 30.23 47.95 30.29 47.78 30.24zM28.47 29.53C29.18 29.73 26.35 29.88 28.47 29.53 28.53 29.54 28.23 29.57 28.47 29.53zM26.37 29.6c-0.01-0.08 0.03-0.1 0.11-0.07C26.44 29.56 26.4 29.58 26.37 29.6 26.36 29.53 26.4 29.6 26.37 29.6zM47.27 17.88C48.17 18.67 47.01 17.93 47.27 17.88 47.39 17.98 47.24 17.89 47.27 17.88zM49.23 13.28C48.17 12.28 49.15 13.31 49.23 13.28 49.07 13.13 49.26 13.27 49.23 13.28zM41.81 12.78C42.14 12.93 41.33 12.93 41.81 12.78 41.85 12.8 41.75 12.8 41.81 12.78zM37.31 12.95c0.07-0.01 0.14-0.02 0.2-0.03C37.45 12.93 37.38 12.94 37.31 12.95 37.38 12.94 37.31 12.95 37.31 12.95zM23.64 23.83C22.67 24.91 23.99 23.18 23.64 23.83 23.54 23.95 23.64 23.83 23.64 23.83zM22.15 28.78C22.15 28.78 22.01 29.13 22.15 28.78 22.21 28.81 22.13 28.82 22.15 28.78zM22.01 29.38C21.8 29.78 21.99 29.41 22.01 29.38 22.02 29.36 22 29.39 22.01 29.38zM21.69 34.11C21.7 34.11 21.69 34.13 21.69 34.11 21.69 34.11 21.69 34.12 21.69 34.11zM21.87 34.22c0-0.03 0.01-0.06 0.01-0.09C21.88 34.16 21.88 34.19 21.87 34.22 21.87 34.19 21.87 34.23 21.87 34.22zM31.37 49.68C31.33 49.55 31.8 49.88 31.37 49.68 31.36 49.65 31.42 49.71 31.37 49.68zM53.67 46.41c0.15 0.24 0.03 0.82-0.06 1.13C53.63 47.16 53.65 46.78 53.67 46.41 53.82 46.65 53.68 46.45 53.67 46.41zM45.48 46.55c0.7-0.55 1.39-1.09 2.09-1.64 -0.72 0.57-1.37 1.24-2.08 1.81 1.17-1.1-1.19 0.44-1.5 0.68C44.36 47.12 45.68 46.43 45.48 46.55 46.17 45.99 45.22 46.72 45.48 46.55zM43.04 47.33c0.24-0.08 0.46-0.21 0.7-0.17C43.5 47.22 43.27 47.27 43.04 47.33 43.27 47.25 43.04 47.33 43.04 47.33zM36.79 47.8C39.29 48.4 36.39 47.86 36.79 47.8 37.04 47.86 36.79 47.8 36.79 47.8zM31.72 45.57c0.92 0.65 0.77 0.58-1.61-1.26C30.59 44.55 31.69 45.55 31.72 45.57 32.64 46.22 31.22 45.22 31.72 45.57zM29.26 43.31C29.71 43.67 28.98 43.28 29.26 43.31 29.33 43.37 29.26 43.31 29.26 43.31zM26.85 40.26C26.87 40.26 25.56 37.58 26.85 40.26 26.64 40.29 26.81 40.17 26.85 40.26zM26.41 38.41c0.08 0.18 0.24 0.26 0.2 0.45C26.54 38.71 26.48 38.56 26.41 38.41 26.49 38.59 26.41 38.41 26.41 38.41zM25.63 34.05c0-0.03 0-0.06 0.01-0.09C25.63 33.99 25.63 34.02 25.63 34.05 25.63 34.02 25.63 34.06 25.63 34.05zM26.02 34.09C26.09 31.9 25.79 34.51 26.02 34.09 26.02 33.86 26.04 34.05 26.02 34.09zM27.43 32.36c0.23-0.01 0.47-0.03 0.7 0C27.89 32.36 27.66 32.36 27.43 32.36 27.66 32.35 27.66 32.36 27.43 32.36zM37.42 32.26c-3.13-0.16 3.01-0.08 3.67 0.14C38.96 32.31 36.96 32.24 37.42 32.26 33.3 32.05 38.68 32.32 37.42 32.26zM41.68 32.42C41.47 32.41 41.74 32.43 41.68 32.42 41.65 32.41 41.68 32.42 41.68 32.42zM41.79 32.42c-0.03 0-0.06 0-0.09 0C41.73 32.42 41.76 32.42 41.79 32.42 41.76 32.42 41.79 32.42 41.79 32.42zM44.63 32.19c0.05-0.01 0.09 0 0.13 0C44.71 32.19 44.67 32.19 44.63 32.19 44.67 32.18 44.67 32.19 44.63 32.19zM46.09 32.1c-0.04-1.21 0.07 1.06 0.89-0.27 -2.41-0.66-0.03 0 0.43 0.27 -0.69-0.45-1.5-0.48-2.43-0.07C45.23 32.02 46.48 32.1 46.09 32.1 46.04 30.62 46.53 32.1 46.09 32.1zM47.47 31.93c0.07-0.05 0.11-0.05 0.12 0C47.55 31.93 47.51 31.93 47.47 31.93 47.54 31.88 47.51 31.93 47.47 31.93zM48.01 32.19C47.23 32.24 48.65 32.08 48.01 32.19 47.95 32.19 48.08 32.18 48.01 32.19zM48.73 32.26C49.11 31.98 48.49 32.71 48.73 32.26 48.77 32.23 48.71 32.31 48.73 32.26zM49.43 32.18c0.08-0.43-0.14-0.85-0.37-1.2C49.5 32.41 49.56 32 49.43 32.18 49.51 31.75 49.48 32.11 49.43 32.18zM49.34 30.84c-0.47-0.28-0.97-0.55-1.49-0.71C50.97 31.61 48.85 30.28 49.34 30.84 48.87 30.56 49.18 30.66 49.34 30.84zM29.73 29.57c-0.59-0.12-0.18-0.14 1.21-0.06 -0.92 0.05-1.85 0.1-2.77 0.15C28.41 29.64 30.01 29.55 29.73 29.57 29.14 29.45 30.13 29.55 29.73 29.57zM27.7 29.47C27.18 29.62 26.33 29.54 27.7 29.47 27.61 29.5 27.39 29.49 27.7 29.47zM26.76 29.52c0 0.08-0.07 0.1-0.18 0.06C26.64 29.56 26.7 29.54 26.76 29.52 26.76 29.6 26.7 29.52 26.76 29.52zM26.38 29.51c0.03-0.14 0.25-0.8 0.35-0.82C26.62 28.96 26.5 29.23 26.38 29.51 26.41 29.37 26.42 29.51 26.38 29.51zM26.9 28.7C26.9 28.69 26.99 28.67 26.9 28.7 26.9 28.7 26.9 28.7 26.9 28.7zM28.14 23.26C26.8 26.35 29.29 20.63 28.14 23.26 28.01 23.56 28.22 23.07 28.14 23.26zM29.25 22.06C29.16 22.35 29.09 22.15 29.25 22.06 29.21 22.18 29.23 22.07 29.25 22.06zM29.69 21.92C29.4 22.05 29.8 21.61 29.69 21.92 29.66 21.94 29.71 21.89 29.69 21.92zM38.79 16.44c0.12-0.14 0.57 0.01 0.75 0.05C39.29 16.47 39.04 16.46 38.79 16.44 38.91 16.3 39.04 16.45 38.79 16.44zM39.75 16.45C38.37 16.37 39.23 16.43 39.75 16.45 39.67 16.44 39.75 16.45 39.75 16.45zM46.86 18.28C45.44 17.13 48.44 19.61 46.86 18.28 46.72 18.17 46.91 18.32 46.86 18.28zM48.71 12.52C52.2 13.37 47.78 12.57 48.71 12.52 49.06 12.61 48.71 12.52 48.71 12.52zM42.95 12c1.45-0.3-1 0.36-1.2 0.31 1-0.29 1.99-0.58 2.98-0.89C44.37 11.52 42.85 12.02 42.95 12 44.39 11.7 42.52 12.09 42.95 12zM41.11 12.5c1.2-0.36-1.15 0.38-1.49 0.36 1.06-0.17 2.13-0.34 3.19-0.51C42.48 12.39 40.84 12.58 41.11 12.5 42.31 12.15 40.58 12.66 41.11 12.5zM34.5 13.6c0.27-0.08 0.54-0.14 0.81-0.19C35.04 13.47 34.77 13.54 34.5 13.6 34.76 13.52 34.56 13.6 34.5 13.6zM29.6 16.11c1.03-0.76-1.17 1.19-0.97 0.91C28.48 16.72 29.74 16 29.6 16.11 30.64 15.35 29.22 16.39 29.6 16.11zM22.84 23.93c0.41-0.5 0.82-1 1.24-1.51C24.15 22.53 22.65 24.21 22.84 23.93 23.25 23.43 22.82 23.96 22.84 23.93zM22.13 27.7c0 0.48-0.12 0.92-0.36 1.32C21.96 28.61 22.08 28.16 22.13 27.7 22.31 28.02 22.07 27.94 22.13 27.7zM19.96 29.69c0.18 0.01 0.36 0.02 0.54 0.02C20.32 29.7 20.14 29.69 19.96 29.69 20.14 29.69 19.95 29.69 19.96 29.69zM14.73 30.86c0.04 0.05 0.07 0.1 0.11 0.15C14.8 30.96 14.77 30.91 14.73 30.86 14.77 30.91 14.73 30.86 14.73 30.86zM15.99 32.27C16.12 32.27 15.94 32.24 15.99 32.27 16.01 32.27 15.99 32.27 15.99 32.27zM20.1 32.5c-1.08 0.06-2.17 0.08-3.26 0.07C17.66 32.69 20.06 32.5 20.1 32.5 19.46 32.52 20.1 32.5 20.1 32.5zM21.69 35.18c-0.07-0.21-0.21-0.42-0.14-0.62C21.59 34.76 21.64 34.97 21.69 35.18 21.62 34.97 21.69 35.18 21.69 35.18zM23.18 40.07c-0.06-0.24-0.17-0.49-0.06-0.72C23.14 39.59 23.16 39.83 23.18 40.07 23.12 39.83 23.18 40.07 23.18 40.07zM24.94 43.25c-0.67-0.47 1.04 1.19 1.08 1.72 -0.68-1.27-1.42-2.65-2.1-3.96C24.17 41.49 24.97 43.28 24.94 43.25 24.27 42.78 25.19 43.57 24.94 43.25zM26.53 45.83c-0.12-0.14-0.31-0.25-0.29-0.44C26.33 45.54 26.43 45.68 26.53 45.83 26.4 45.69 26.53 45.83 26.53 45.83zM28.78 47.91c-0.58-0.38-0.48-1.3 1.4 1 -1.51-1.11-3.14-2.21-4.6-3.4C26.43 46.21 28.22 47.55 28.78 47.91 28.2 47.53 29.08 48.1 28.78 47.91zM30.4 48.91C31.47 49.62 31.25 49.87 30.4 48.91 30.67 49.08 30.6 49.13 30.4 48.91zM32.11 50.34C30.24 49.99 32.74 50.15 32.11 50.34 32.09 50.33 32.11 50.34 32.11 50.34zM36.06 52.13c-0.45-0.15-0.9-0.29-1.35-0.44 2.48 0.84-3.82-1.41 2.32 0.9C37.16 52.63 35.55 52.05 36.06 52.13 35.61 51.98 36.09 52.13 36.06 52.13zM44.79 52.11c-0.53 0.07-1.07 0.13-1.6 0.2C43.37 52.47 44.92 52.18 44.79 52.11 44.26 52.18 44.79 52.11 44.79 52.11zM48.44 51.52C46.46 51.76 48.64 51.38 48.44 51.52 48.2 51.55 48.44 51.52 48.44 51.52zM52.96 49.15C52.36 49.86 53.55 48.48 52.96 49.15 52.64 49.53 53.01 49.09 52.96 49.15z"/><path fill="#B01817" d="M45.73 31.9c-0.04 0.01 0.14 0.01 0.11 0C45.81 31.9 45.77 31.9 45.73 31.9 45.69 31.91 45.76 31.89 45.73 31.9z"/><path fill="#B01817" d="M47.35 31.85L47.35 31.85C47.36 31.85 47.35 31.85 47.35 31.85z"/><polygon fill="#B01817" points="47.38 31.83 47.38 31.83 47.38 31.83 "/><path fill="#B01817" d="M47.89 31.9C47.83 31.9 48.02 31.9 47.89 31.9 47.88 31.9 47.9 31.9 47.89 31.9z"/></svg>