<?xml version="1.0" encoding="utf-8"?>
<!-- Generator: Adobe Illustrator 15.0.2, SVG Export Plug-In . SVG Version: 6.00 Build 0)  -->
<!DOCTYPE svg PUBLIC "-//W3C//DTD SVG 1.1//EN" "http://www.w3.org/Graphics/SVG/1.1/DTD/svg11.dtd">
<svg version="1.1" xmlns="http://www.w3.org/2000/svg" xmlns:xlink="http://www.w3.org/1999/xlink" x="0px" y="0px" width="64px"
	 height="64px" viewBox="0 0 64 64" enable-background="new 0 0 64 64" xml:space="preserve">
<g id="Layer_1">
	<g>
		<path fill="#B01817" d="M63,9v46H1V9H63 M64,8H0v48h64V8L64,8z"/>
	</g>
	<line fill="none" stroke="#B01817" stroke-miterlimit="10" x1="0" y1="16.5" x2="64" y2="16.5"/>
	<circle fill="none" stroke="#B01817" stroke-miterlimit="10" cx="4.5" cy="12.5" r="0.5"/>
	<circle fill="none" stroke="#B01817" stroke-miterlimit="10" cx="8.5" cy="12.5" r="0.5"/>
	<circle fill="none" stroke="#B01817" stroke-miterlimit="10" cx="12.5" cy="12.5" r="0.5"/>
</g>
<g id="Layer_2">
	<g>
		<path fill="#B01817" d="M31.04,24.65c1.45,2.56,4.39,3.93,8.63,3.93c1.5,0,2.87-0.01,3.81-0.17C43.11,33.33,41.11,51,31.07,51
			h-0.06c-10.23,0-12.15-17.54-12.49-22.53c1.07,0.24,2.65,0.42,4.37,0.42C26.89,28.89,29.67,27.36,31.04,24.65 M31,20.24
			c-0.09,6.21-4.39,7.57-8.12,7.57c-2.89,0-5.43-0.65-5.43-0.65S17.98,52,31,52c0.02,0,0.04,0,0.07,0
			c12.73,0,13.49-24.84,13.49-24.84s-2.24,0.5-4.89,0.5C35.78,27.66,31,26.34,31,20.24L31,20.24z"/>
	</g>
	<g>
		<g>
			<path fill="none" stroke="#B01817" stroke-miterlimit="10" d="M27.51,38.5c0,0-0.72-5.83,3.44-5.83c4.16,0,3.54,5.83,3.54,5.83"
				/>
			<g>
				<g>
					<path fill="#B01817" d="M35,39v4h-8v-4H35 M36,38H26v6h10V38L36,38z"/>
				</g>
			</g>
			<circle fill="#B01817" cx="31" cy="40.45" r="0.55"/>
			<rect x="30.75" y="40.78" fill="#B01817" width="0.51" height="1.03"/>
		</g>
	</g>
</g>
</svg>
