<svg version="1.1" xmlns="http://www.w3.org/2000/svg" x="0" y="0" width="64" height="64" viewBox="0 0 64 64" enable-background="new 0 0 64 64" xml:space="preserve">
<g id="icon-ind">
<title>Indiana Icon</title>
<path fill="#666666" stroke="#161616" stroke-miterlimit="10" d="M45.5 8.5H27.05c0 0-2.5 2.74-6.26 0.72L19.5 36.52v1.07 1.74 0.8 1.34 0.67 1.61l0.75 0.81c0 0 0.24 0.94-1.5 2.01 0 0-0.99 3.09-3.4 4.29 0 0 1.15 1.07-0.85 2.68v2.15c0 0 0.91 0.94 1.98 0 0 0-0.42-0.54 0.39-1.75 0 0 1.8 0.94 4.08-0.27 0 0 2.85 1.77 2.98 2.43 0.13 0.66 1.36-0.95 1.22-2.16 0 0 0.81-0.94 1.48-0.54 0 0 0.67 1.74 1.48 1.74 0 0 1.34-0.8 1.61-2.15 0 0 0.67-2.42 1.95-0.81l0.6 1.21c0 0 0.81-0.4 1.61 0.13 0 0 0.81-2.55 2.28-3.22l3.62-3.62c0 0-1.34-2.82 2.42-1.61 0 0 0.27-1.48 2.82-1.07l-0.44-3.49 0.91-0.67V8.5z"/>
</g>
</svg>