<svg version="1.1" xmlns="http://www.w3.org/2000/svg" x="0" y="0" width="64" height="64" viewBox="0 0 64 64" enable-background="new 0 0 64 64" xml:space="preserve">
<g id="icon-deviantart">
<title>Deviant Art Link Icon</title>
<path class="icon-social-content" fill="#666666" d="M3.44 44c-0.08-1-0.19-3.69 0.02-4.55 0.27-1.15 0.85-2.25 1.56-3.33C9.17 29.7 19 26.61 22 25.9v1.32C9 30.9 10.19 41.46 10.2 41.56c0.03 0.26 0.16 0.44 0.42 0.44h13.25c0.28 0 0.13-0.2 0.13-0.47V21h5v23H3.44z"/><path fill="#161616" d="M28 22v22H3.91c-0.08-2-0.12-3.53 0.04-4.19 0.26-1.09 0.57-2.27 1.25-3.31C8.96 30.68 18 27.52 21 26.57v0.29C9 30.73 9.44 41.75 9.45 41.86 9.5 42.37 10.1 43 10.62 43h13.25c0.55 0 1.13-0.92 1.13-1.47V22H28M29 21h-5v21H10.62c0 0-0.62-10.9 11.38-14.4v-2.35c0 0-12.73 3-17.65 10.6 -0.71 1.08-1.16 2.46-1.47 3.72C2.58 40.85 2.97 45 2.97 45H29V21L29 21z"/><path class="icon-social-content" fill="#666666" d="M35 44V33h4v8.53C39 41.8 39.4 42 39.67 42h14.52c0.15 0 0.28-0.05 0.38-0.16 0.1-0.11 0.14-0.29 0.11-0.43C52.4 26.77 35.43 26 32.05 26 32.04 26 32 26 32 26v-0.62c0 0 0.54 0 0.8 0 7.39 0 13.54 1.19 18.27 3.54 0.37 0.19 0.67 0.34 0.95 0.5l0.29 0.16c0.22 0.13 0.45 0.26 0.66 0.39l0.49 0.31c0.14 0.09 0.29 0.19 0.43 0.28 0.16 0.11 0.32 0.23 0.47 0.34l0.39 0.29c0.17 0.13 0.33 0.26 0.48 0.39l0.32 0.26 0.27 0.25c4.19 3.74 4.77 7.65 4.77 7.69 0.18 0.83 0.1 3.23 0.03 4.23H35z"/><path fill="#161616" d="M37.73 26.07c5.15 0.42 9.55 1.52 13.12 3.3l0.44-0.9 -0.37 0.93c0.29 0.15 0.58 0.3 0.86 0.45l0.28 0.16c0.22 0.13 0.44 0.25 0.65 0.38 0.12 0.07 0.24 0.15 0.36 0.23l0.04 0.03 0.07 0.05c0.14 0.09 0.28 0.18 0.42 0.27 0.16 0.11 0.31 0.22 0.47 0.34l0.11 0.08c0.09 0.06 0.17 0.12 0.25 0.19 0.16 0.13 0.32 0.25 0.51 0.41l0.12 0.1c0.05 0.04 0.1 0.08 0.15 0.12 0.05 0.04 0.1 0.09 0.15 0.13l0.12 0.11c4.01 3.59 4.6 7.39 4.61 7.43 0 0.03 0.01 0.26 0.01 0.29 0.13 0.6 0.1 1.83 0.03 3.83H36V33h3v8.53c0 0.55 0.12 1.47 0.67 1.47h14.52c0.29 0 0.57-0.36 0.76-0.59s0.27-0.63 0.23-0.92C53.5 30.74 44.18 27.17 37.73 26.07M33.05 24.88c-0.42 0-1.05 0-1.05 0.01v1.69c0 0-0.05 0.23 0.29 0.23 3.22 0 19.66 0.2 21.89 15.2H40V32h-5v13h26.08c0 0 0.26-3.87 0-5.05 0 0-0.56-4.24-4.93-8.14 -0.09-0.08-0.18-0.22-0.28-0.31 -0.09-0.08-0.19-0.18-0.29-0.26 -0.17-0.14-0.35-0.3-0.53-0.44 -0.12-0.09-0.26-0.19-0.38-0.29 -0.16-0.12-0.33-0.24-0.5-0.36 -0.17-0.11-0.34-0.23-0.51-0.34 -0.14-0.09-0.28-0.18-0.42-0.27 -0.22-0.14-0.45-0.27-0.68-0.4 -0.1-0.05-0.19-0.11-0.29-0.16 -0.29-0.16-0.59-0.32-0.89-0.47 -0.02-0.01 0.07-0.02 0.05-0.04C47.25 26.4 41.46 24.88 33.05 24.88L33.05 24.88z"/>
</g>
</svg>