<svg version="1.1" xmlns="http://www.w3.org/2000/svg" x="0" y="0" width="64" height="64" viewBox="0 0 64 64" enable-background="new 0 0 64 64" xml:space="preserve"><g id="Layer_3" display="none"><path display="inline" stroke="#262626" stroke-miterlimit="10" d="M630.5 312.5c0 4.971-4.029 9-9 9h-774c-4.971 0-9-4.029-9-9v-426c0-4.971 4.029-9 9-9h774c4.971 0 9 4.029 9 9V312.5z"/></g><g id="Layer_2"/><g id="Layer_1"><g opacity="0.5"><path fill="#666666" d="M4 43v-4.306c3-8.662 16-12.71 19-13.531v1.321c-13 3.669-11.889 14.1-11.878 14.208C11.147 40.947 11.207 41 11.464 41h13.253C24.994 41 25 41.062 25 40.786V20h5v23H4z"/><path fill="#161616" d="M29 21v22H5v-4.242c2-7.861 13-11.823 17-12.934v0.288C10 29.991 10.364 40.88 10.375 40.99c0.05 0.512 0.574 1.01 1.089 1.01h13.253C25.27 42 26 41.338 26 40.786V21H29M30 20h-5v21H11.464C11.464 41 10 30.361 23 26.862v-2.345c0 0-17 3.91-19 14.115V44h26V20L30 20z"/></g><g opacity="0.5"><path fill="#666666" d="M36 43V32h4v8.786C40 41.062 40.242 41 40.519 41h14.516c0.146 0 0.285 0.079 0.38-0.032 0.095-0.11 0.137-0.35 0.114-0.494C53.241 25.833 36.277 25 32.899 25 32.887 25 33 25 33 25v-0.36c0-0.003 0.459-0.004 0.721-0.004 25.502 0 27.725 14.117 27.745 14.261L61.427 43H36z"/><path fill="#161616" d="M38.572 25.321C58.505 26.899 61 38.054 61 39.077V43H36V33h4v7.786C40 41.338 39.966 42 40.519 42h14.516c0.292 0 0.57-0.235 0.76-0.457s0.292-0.569 0.246-0.858C54.357 29.914 45.018 26.411 38.572 25.321M33.507 24.135c-0.424 0-0.507 0.004-1.507 0.012v1.688c0 0 0.372 0.099 0.718 0.099C35.937 25.934 52.805 27 55.034 41H41v-9h-6v12h27v-4.998C62 39.002 59.806 24.136 33.507 24.135L33.507 24.135z"/></g><path fill="#666666" d="M4.285 43c-0.084-1-0.03-3.564 0.176-4.424C6.489 30.09 20 26.033 23 25.17v1.313c-13 3.669-11.889 14.1-11.878 14.208C11.147 40.947 11.207 41 11.464 41h13.253C24.994 41 25 41.062 25 40.786V20h5v23H4.285z"/><path fill="#161616" d="M29 21v22H4.755c-0.081-2-0.216-3.397-0.058-4.058C6.545 31.212 18 27.004 22 25.838v0.274C10 29.991 10.364 40.88 10.375 40.99c0.05 0.512 0.574 1.01 1.089 1.01h13.253C25.27 42 26 41.338 26 40.786V21H29M30 20h-5v21H11.464C11.464 41 10 30.361 23 26.862v-2.345c0 0-16.896 4.241-19.275 14.192C3.421 39.977 3.818 44 3.818 44H30V20L30 20z"/><path fill="#666666" d="M36 43V32h4v8.786C40 41.062 40.242 41 40.519 41h14.516c0.146 0 0.285 0.079 0.38-0.032 0.095-0.11 0.137-0.35 0.114-0.494C53.241 25.833 36.277 25 32.899 25 32.887 25 33 25 33 25v-0.358c0-0.001 0.235-0.001 0.386-0.001 23.129 0 27.337 10.902 28.087 14.297C61.648 39.732 61.53 42 61.458 43H36z"/><path fill="#161616" d="M38.834 25.373c17.933 1.583 21.45 10.907 22.116 13.923C61.084 39.9 61.052 42 60.985 43H36V33h4v7.786C40 41.338 39.966 42 40.519 42h14.516c0.292 0 0.57-0.235 0.76-0.457s0.273-0.569 0.228-0.858C54.365 30.081 45.267 26.519 38.834 25.373M33.136 24.141c-0.314 0-0.136 0.002-1.136 0.006v1.688c0 0 0.372 0.099 0.718 0.099C35.937 25.934 52.805 27 55.034 41H41v-9h-6v12h26.927c0 0 0.17-3.738-0.091-4.92C61.04 35.475 56.596 24.141 33.136 24.141L33.136 24.141z"/></g></svg>