<svg version="1.1" xmlns="http://www.w3.org/2000/svg" x="0px" y="0px" width="64px" height="64px" viewBox="0 0 64 64" enable-background="new 0 0 64 64" xml:space="preserve"><g id="Layer_3" display="none"><path display="inline" stroke="#262626" stroke-miterlimit="10" d="M630.5 312.5c0 4.971-4.029 9-9 9h-774c-4.971 0-9-4.029-9-9v-426c0-4.971 4.029-9 9-9h774c4.971 0 9 4.029 9 9V312.5z"/></g><g id="Layer_2"/><g id="Layer_1"><path fill="#666666" d="M22.093 53c-4.855 0-9.61-0.991-14.165-3.414 0.084 0.001 0.17 0.119 0.258 0.119 2.805 0 8.273-0.553 13.375-4.652l0.978-0.756 -1.25-0.088c-0.073-0.006-7.029-0.636-9.14-6.393 0.251 0.015 0.552 0.03 0.89 0.03 1.219 0 2.326-0.143 3.291-0.429l2.033-0.601 -2.088-0.37c-0.314-0.055-7.465-1.414-8.087-9.276 0.8 0.328 2.11 0.766 3.401 0.767 0.254 0 0.505-0.017 0.752-0.055l1.173-0.177 -0.946-0.716c-0.295-0.223-6.995-5.413-3.238-12.745 2.099 2.254 10.682 10.701 21.439 10.701 0.184 0 0.367-0.002 0.552-0.007l0.605-0.017 -0.131-0.592c-0.075-0.34-1.754-8.363 6.107-11.898 0.418-0.188 1.944-0.802 4.028-0.802 2.863 0 5.427 1.122 7.62 3.334l0.179 0.181 0.251-0.039c0.695-0.106 3.505-0.793 6.061-2.347 -0.375 1.112-1.396 2.915-4.179 4.57l-1.729 1.028 2.008-0.099c0.119-0.006 2.501-0.134 4.884-1.038 -0.679 1.047-2.033 2.644-4.594 4.173l-0.273 0.163 0.032 0.316c0.016 0.153 1.386 15.181-11.701 25.318C40.409 47.254 32.762 53 22.096 53 22.095 53 22.094 53 22.093 53z"/><path fill="#161616" d="M41.93 12.128c2.725 0 5.169 1.072 7.265 3.186l0.358 0.361 0.503-0.077c0.029-0.004 2.297-0.401 4.824-1.635 -0.596 0.891-1.596 1.937-3.274 2.935l-3.457 2.055 4.017-0.197c0.096-0.005 1.635-0.087 3.486-0.577 -0.759 0.842-1.871 1.824-3.477 2.783L51.63 21.29l0.063 0.632c0.015 0.15 1.345 15.151-11.52 25.117 -0.075 0.059-7.599 5.933-18.078 5.933 -4.153 0-8.233-0.913-12.175-2.721 3.077-0.254 7.643-1.285 11.954-4.749l1.961-1.576 -2.508-0.375C21.262 43.545 15.199 43 12.912 38c0.042 0 0.084 0 0.127 0 1.267 0 2.422 0.023 3.433-0.276l4.091-1.125 -4.204-0.688c-0.287-0.05-6.597-1.208-7.585-8.012 0.8 0.268 1.811 0.527 2.814 0.527 0.286 0 0.564-0.015 0.827-0.055l2.353-0.354 -1.9-1.43c-0.272-0.205-6.276-4.834-3.397-11.473 2.792 2.858 11.071 10.33 21.298 10.33 0.188 0 0.376-0.002 0.565-0.007l1.214-0.033 -0.266-1.185c-0.072-0.323-1.688-7.954 5.825-11.333C38.502 12.708 39.945 12.128 41.93 12.128M41.93 11.128c-1.9 0-3.444 0.491-4.233 0.846 -8.342 3.752-6.39 12.463-6.39 12.463 -0.18 0.005-0.359 0.007-0.538 0.007 -12.059 0-21.54-11.059-21.54-11.059 -4.745 8.14 3.037 14.002 3.037 14.002 -0.222 0.034-0.449 0.049-0.677 0.049 -1.919 0-3.941-1.061-3.941-1.061 0.19 9.109 8.541 10.564 8.541 10.564 -1.102 0.326-2.255 0.41-3.149 0.41 -0.942 0-1.596-0.093-1.596-0.093 1.898 6.832 9.806 7.465 9.806 7.465 -4.899 3.936-10.104 4.601-13.063 4.601 -1.511 0-2.436-0.173-2.436-0.173 5.838 3.585 11.419 4.822 16.346 4.822 10.981 0 18.7-6.15 18.7-6.15 13.474-10.438 11.892-26 11.892-26 4.555-2.72 5.43-5.64 5.43-5.64 -2.668 1.413-6.001 1.576-6.001 1.576 4.681-2.783 4.64-6.079 4.64-6.079 -2.846 2.088-6.378 2.858-6.853 2.931C47.205 11.887 44.292 11.128 41.93 11.128L41.93 11.128z"/></g></svg>