<svg version="1.1" xmlns="http://www.w3.org/2000/svg" x="0px" y="0px" width="32px" height="32px" viewBox="0 0 32 32" enable-background="new 0 0 32 32" xml:space="preserve"><g id="Layer_3" display="none"><path display="inline" stroke="#262626" stroke-miterlimit="10" d="M630.5 312.5c0 4.971-4.029 9-9 9h-774c-4.971 0-9-4.029-9-9v-426c0-4.971 4.029-9 9-9h774c4.971 0 9 4.029 9 9V312.5z"/></g><g id="Layer_2"/><g id="Layer_1"><g><g><rect x="2" y="7" fill="#666666" width="27" height="19"/><path fill="#161616" d="M29 8v17H3V8H29M30 7H2v19h28V7L30 7z"/></g><g><polygon fill="#666666" points="3.206,26 15.99,10.016 28.775,26 "/><path fill="#161616" d="M15.99 10.433l6.132 7.607L27.734 25H15.99 4.246l5.613-6.96L15.99 10.433M15.99 8.832l-6.912 8.583L2.166 26H15.99h13.825l-6.913-8.585L15.99 8.832 15.99 8.832z"/></g><g><polygon fill="#666666" points="3.361,7 28.531,7 15.946,19.847 "/><path fill="#161616" d="M27.341 8l-5.222 5.243L15.946 19.5l-6.173-6.235L4.551 8h11.396H27M29.72 7H15.946 2.171l6.887 6.942 6.888 6.986 6.887-6.964L29.72 7 29.72 7z"/></g></g></g></svg>
