<svg version="1.1" xmlns="http://www.w3.org/2000/svg" x="0px" y="0px" width="32px" height="32px" viewBox="0 0 32 32" enable-background="new 0 0 32 32" xml:space="preserve"><g id="Layer_3" display="none"><path display="inline" stroke="#262626" stroke-miterlimit="10" d="M630.5 312.5c0 4.971-4.029 9-9 9h-774c-4.971 0-9-4.029-9-9v-426c0-4.971 4.029-9 9-9h774c4.971 0 9 4.029 9 9V312.5z"/></g><g id="Layer_2"/><g id="Layer_1"><path fill="#666666" stroke="#161616" stroke-miterlimit="10" d="M9.448 1.696L8.784 18.518v0.663l-0.497 1.077v0.497l0.497 0.829v0.415 0.994l0.333 0.498c0 0 0.083 0.58-0.994 1.243 0 0-0.498 1.906-1.989 2.652 0 0 0.414 0.663-0.414 1.657v1.326c0 0 0.414 0.58 1.077 0 0 0-0.332-0.332 0.166-1.078 0 0 1.077 0.58 2.486-0.166 0 0 1.74 1.096 1.822 1.501 0.083 0.404 0.829-0.589 0.746-1.335 0 0 0.497-0.58 0.912-0.331 0 0 0.414 1.077 0.911 1.077 0 0 0.83-0.497 0.995-1.326 0 0 0.415-1.492 1.202-0.498l0.373 0.747c0 0 0.497-0.249 0.994 0.083 0 0 0.498-1.574 1.408-1.988l2.238-2.238c0 0-0.829-1.74 1.491-0.994 0 0 0.166-0.912 1.74-0.663l-0.414-2.154 0.414-0.415V1.282H13.176C13.176 1.282 11.769 2.939 9.448 1.696z"/></g></svg>