<svg version="1.1" xmlns="http://www.w3.org/2000/svg" x="0px" y="0px" width="64px" height="64px" viewBox="0 0 64 64" enable-background="new 0 0 64 64" xml:space="preserve"><g id="Layer_3" display="none"><path display="inline" stroke="#262626" stroke-miterlimit="10" d="M630.5 312.5c0 4.971-4.029 9-9 9h-774c-4.971 0-9-4.029-9-9v-426c0-4.971 4.029-9 9-9h774c4.971 0 9 4.029 9 9V312.5z"/></g><g id="Layer_2"/><g id="Layer_1"><path fill="#666666" d="M14.699 20.964c-2.535 0-4.597-2.063-4.597-4.598 0-2.535 2.063-4.597 4.597-4.597s4.597 2.062 4.597 4.597C19.296 18.901 17.234 20.964 14.699 20.964z"/><path fill="#161616" d="M14.699 12.27c2.259 0 4.097 1.838 4.097 4.097 0 2.259-1.838 4.098-4.097 4.098s-4.097-1.838-4.097-4.098C10.602 14.107 12.44 12.27 14.699 12.27M14.699 11.27c-2.816 0-5.097 2.281-5.097 5.097 0 2.816 2.281 5.098 5.097 5.098s5.097-2.281 5.097-5.098C19.796 13.551 17.515 11.27 14.699 11.27L14.699 11.27z"/><rect x="10" y="25" fill="#666666" width="9" height="29"/><path fill="#161616" d="M19 25v28h-8V25H19M20 24H10v30h10V24L20 24z"/><path fill="#666666" d="M44 54V37.434c0-4.021-1.511-6.234-4.627-6.234C36.399 31.2 35 33.887 35 36.415V54h-9V25h8v1.61c0 0.168 0.265 0.326 0.406 0.418 0.083 0.054 0.268 0.082 0.364 0.082 0.068 0 0.181-0.014 0.245-0.042 0.049-0.021 5.197-2.133 10.162-2.133 5.988 0 8.824 4.479 8.824 6.764V54H44z"/><path fill="#161616" d="M44.948 25.436c5.64 0 8.052 4.148 8.052 6.264V53h-8V37.434c0-4.28-2.238-6.734-5.627-6.734C36.074 30.7 34 33.644 34 36.415V53h-8V25h8v1.61c0 0.337 0.1 0.651 0.382 0.836 0.165 0.108 0.321 0.164 0.513 0.164 0.135 0 0.24-0.028 0.368-0.083C35.311 27.506 40.094 25.436 44.948 25.436M45.019 24.436C39.885 24.436 35 26.61 35 26.61V24H25v30h10c0 0 0-12.678 0-17.585 0-2.242 1.648-4.715 4.373-4.715 3.372 0 4.627 2.81 4.627 5.734C44 42.194 44 54 44 54h10c0 0 0-16.149 0-22.3C54 28.931 51.115 24.436 45.019 24.436L45.019 24.436z"/></g></svg>