<svg version="1.1" xmlns="http://www.w3.org/2000/svg" xmlns:xlink="http://www.w3.org/1999/xlink" x="0" y="0" width="128.19" height="247.78" viewBox="0 0 128.19 247.78" enable-background="new 0 0 128.19 247.78" xml:space="preserve"><g id="Layer_3"/><g id="Layer_2"><path fill="#B01817" d="M1.5 109.73c0 0 0.25 20.56 1.82 43.15 1.49 21.47 3.97 44.78 15.83 54 7.33 6.61 14.51 7.76 14.51 7.76s5.89 2.39 23.28-6.81c5.6-3.25 10.05-2.96 13.93-0.81 14.1 6.14 14.37 8.19 23.66 7.33 3.78-0.72 12.69-2.44 18.46-11.09 4.03-6 8.51-13.42 10.89-46.38 0.74-10.29 1.9-22.8 2.4-39.05 0 0 1.33-1.91 1.43 2.43 0.16 7.43-1.4 21.22-2.1 36.91 -1.78 40.1-10.78 93.39-63.65 90.49 0 0-56.99 3.58-60.57-94.66 -0.4-10.87-1.52-23.12-1.28-36.53C0.21 109.56 0.54 111.61 1.5 109.73z"/><path fill="#B01817" d="M0.47 123.27c0 0 4.92-79.21 62.04-79.21 0 0 64.09 1 64.09 83.81 0 0 6.32-39.07-6.17-70.03 0 0 4.28-2.97 5.29-2.63 1.01 0.34-4.06-4.06-4.06-4.06l4.39 1.69 -3.38-3.04 5.07 0.68c0 0-2.7-5.41-11.15-6.08 -8.45-0.68-13.86 3.04-13.86 3.04s9.52-12.77-2.06-22.65c-8.2-6.99-3.69-11.83-3.69-11.83s-3.72-0.68-3.72 7.77 -4.39-7.44-4.39-7.44l-2.7 1.01L81.78 3.5 81.1 5.86l-4.06 2.03 0.68 4.73 -6.08-5.07c0 0-5.75-3.38-4.06-6.42 1.69-3.04-3.04 1.01-3.04 1.01l2.03 9.46c0 0-1.17 5.55-3.19 5.21 -2.03-0.34-8.3-7.24-8.3-7.24l-6.35-2.67 -5.14-2.73 7.29 11.78 -7.27-5.98 -6.45-1.07 6.39 10.07c0 0-5.85 3.2-11.45 2.33 -5.72-0.88 7.43 6.53 7.43 6.53s-20.39-2.73-21.4 2.34l9.98 3.61c0 0-16.66 3.78-19.03 7.16l12.07-0.43L2.61 50.43l14.21-3.08 -3.06 2.52C13.76 49.87-2.98 46.56 0.47 123.27z"/><path fill="#B01817" d="M46.44 107.76c0 0-27.53-14.01-33.61 1.2 0 0-5.08 1.19-1.01-6.08 0 0 3.98-6.32 13.18-7.1l12.51 2.7 -0.83-1.74c0 0 3.74 0.3 8.26 3.76l2.84-1.85c0 0 0.29 1.68 1.53 2.49 2.01 1.31 5.36-1.53 4.41 4.09L46.44 107.76z"/><path fill="#B01817" d="M80.34 106.61c0 0 28.66-14.3 34.74 0.91 0 0 5.08 1.19 1.01-6.08 0 0-3.98-6.32-13.18-7.1 0 0-10.12-0.47-14.34 1.83C85.71 97.73 86.38 96 86.38 96s-0.88-0.41-3.17 2.08l-3.06-1.72c0 0-0.31 2.54-1.56 3.35 -2.01 1.31-5.36-1.53-4.41 4.09L80.34 106.61z"/><path fill="#B01817" d="M59.72 167.08c-3.54-0.19-6.4 1.2-14.51 4.53 -7.18 2.94-9.05 4.45-9.05 4.45s-3.23 2.37-5.36 6.42c-3.58 6.82 2.59 8.19 2.59 8.19s1.19-1.1 4.17-4.17c2.99-3.09 4.14-4.62 10.6-7.21 6.46-2.59 9-1.41 11.52-1.99C62.6 176.64 62.45 167.23 59.72 167.08z"/><path fill="#B01817" d="M67.01 166.8c3.54-0.19 6.65 0.95 14.72 3.95 6.57 2.44 8.87 4.09 8.87 4.09s3.66 2.61 5.54 6.77c1.64 3.64-1.8 6.73-1.8 6.73s-2.44-0.14-4.95-2.42c-3.18-2.89-4.61-4.62-11.07-7.21 -6.46-2.58-8.53-1.7-11.05-2.27C64.36 175.78 64.29 166.94 67.01 166.8z"/></g></svg>