<?xml version="1.0" encoding="utf-8"?>
<!-- Generator: Adobe Illustrator 15.0.2, SVG Export Plug-In . SVG Version: 6.00 Build 0)  -->
<!DOCTYPE svg PUBLIC "-//W3C//DTD SVG 1.1//EN" "http://www.w3.org/Graphics/SVG/1.1/DTD/svg11.dtd">
<svg version="1.1" id="Layer_1" xmlns="http://www.w3.org/2000/svg" xmlns:xlink="http://www.w3.org/1999/xlink" x="0px" y="0px"
	 width="480px" height="640px" viewBox="0 0 480 640" enable-background="new 0 0 480 640" xml:space="preserve">
<g>
	<polygon fill="none" stroke="#440002" stroke-miterlimit="10" points="276.1,87.24 259.91,59.2 276.1,31.16 308.48,31.16 
		324.67,59.2 308.48,87.24 	"/>
	<polygon fill="none" stroke="#440002" stroke-miterlimit="10" points="379.59,87.24 363.39,59.2 379.59,31.16 411.96,31.16 
		428.15,59.2 411.96,87.24 	"/>
	<polygon fill="none" stroke="#440002" stroke-miterlimit="10" points="379.59,146.87 363.39,118.83 379.59,90.8 411.96,90.8 
		428.15,118.83 411.96,146.87 	"/>
	<polygon fill="none" stroke="#440002" stroke-miterlimit="10" points="328.01,177.19 311.83,149.15 328.01,121.1 360.39,121.1 
		376.58,149.15 360.39,177.19 	"/>
	<polygon fill="none" stroke="#440002" stroke-miterlimit="10" points="276.61,207.57 260.43,179.53 276.61,151.49 309,151.49 
		325.18,179.53 309,207.57 	"/>
	<polygon fill="none" stroke="#440002" stroke-miterlimit="10" points="206.47,87.24 222.66,59.2 206.47,31.16 174.09,31.16 
		157.91,59.2 174.09,87.24 	"/>
	<polygon fill="none" stroke="#440002" stroke-miterlimit="10" points="103.35,87.24 119.54,59.2 103.35,31.16 70.97,31.16 
		54.78,59.2 70.97,87.24 	"/>
	<polygon fill="none" stroke="#440002" stroke-miterlimit="10" points="155.48,117.4 171.67,89.36 155.48,61.32 123.1,61.32 
		106.91,89.36 123.1,117.4 	"/>
	<polygon fill="none" stroke="#440002" stroke-miterlimit="10" points="206.47,146.87 222.66,118.83 206.47,90.8 174.1,90.8 
		157.91,118.83 174.1,146.87 	"/>
	<polygon fill="none" stroke="#440002" stroke-miterlimit="10" points="257.8,177.19 273.99,149.15 257.8,121.1 225.42,121.1 
		209.23,149.15 225.42,177.19 	"/>
	<polygon fill="none" stroke="#440002" stroke-miterlimit="10" points="308.48,146.87 324.67,118.83 308.48,90.8 276.1,90.8 
		259.91,118.83 276.1,146.87 	"/>
	<polygon fill="none" stroke="#440002" stroke-miterlimit="10" points="360.39,117.4 376.58,89.36 360.39,61.32 328.01,61.32 
		311.83,89.36 328.01,117.4 	"/>
	<polygon fill="none" stroke="#440002" stroke-miterlimit="10" points="103.35,146.87 119.54,118.83 103.35,90.8 70.97,90.8 
		54.78,118.83 70.97,146.87 	"/>
	<polygon fill="none" stroke="#440002" stroke-miterlimit="10" points="379.59,206.81 363.39,178.76 379.59,150.72 411.96,150.72 
		428.15,178.76 411.96,206.81 	"/>
	<polygon fill="none" stroke="#440002" stroke-miterlimit="10" points="379.59,266.74 363.39,238.7 379.59,210.66 411.96,210.66 
		428.15,238.7 411.96,266.74 	"/>
	<polygon fill="none" stroke="#440002" stroke-miterlimit="10" points="103.35,206.81 119.54,178.76 103.35,150.72 70.97,150.72 
		54.78,178.76 70.97,206.81 	"/>
	<polygon fill="none" stroke="#440002" stroke-miterlimit="10" points="103.35,266.74 119.54,238.7 103.35,210.66 70.97,210.66 
		54.78,238.7 70.97,266.74 	"/>
	<polygon fill="none" stroke="#440002" stroke-miterlimit="10" points="155.48,177.19 171.67,149.15 155.48,121.1 123.1,121.1 
		106.91,149.15 123.1,177.19 	"/>
	<polygon fill="none" stroke="#440002" stroke-miterlimit="10" points="206.47,207.22 222.66,179.18 206.47,151.14 174.1,151.14 
		157.91,179.18 174.1,207.22 	"/>
	<polygon fill="none" stroke="#440002" stroke-miterlimit="10" points="257.8,237.27 273.99,209.23 257.8,181.19 225.42,181.19 
		209.23,209.23 225.42,237.27 	"/>
	<polygon fill="none" stroke="#440002" stroke-miterlimit="10" points="328.01,237.11 311.83,209.08 328.01,181.04 360.39,181.04 
		376.58,209.08 360.39,237.11 	"/>
	<polygon fill="none" stroke="#440002" stroke-miterlimit="10" points="276.1,267.5 259.91,239.47 276.1,211.42 308.48,211.42 
		324.67,239.47 308.48,267.5 	"/>
	<polygon fill="none" stroke="#440002" stroke-miterlimit="10" points="155.48,237.11 171.67,209.08 155.48,181.04 123.1,181.04 
		106.91,209.08 123.1,237.11 	"/>
	<polygon fill="none" stroke="#440002" stroke-miterlimit="10" points="206.47,267.5 222.66,239.47 206.47,211.42 174.1,211.42 
		157.91,239.47 174.1,267.5 	"/>
	<polygon fill="none" stroke="#440002" stroke-miterlimit="10" points="257.8,297.2 273.99,269.16 257.8,241.12 225.42,241.12 
		209.23,269.16 225.42,297.2 	"/>
	<polygon fill="none" stroke="#440002" stroke-miterlimit="10" points="328.01,297.08 311.83,269.04 328.01,241 360.39,241 
		376.58,269.04 360.39,297.08 	"/>
	<polygon fill="none" stroke="#440002" stroke-miterlimit="10" points="276.1,327.47 259.91,299.43 276.1,271.39 308.48,271.39 
		324.67,299.43 308.48,327.47 	"/>
	<polygon fill="none" stroke="#440002" stroke-miterlimit="10" points="155.48,297.08 171.67,269.04 155.48,241 123.1,241 
		106.91,269.04 123.1,297.08 	"/>
	<polygon fill="none" stroke="#440002" stroke-miterlimit="10" points="51.57,117.47 67.75,89.42 51.57,61.38 19.19,61.38 3,89.42 
		19.19,117.47 	"/>
	<polygon fill="none" stroke="#440002" stroke-miterlimit="10" points="51.57,176.43 67.75,148.39 51.57,120.35 19.19,120.35 
		3,148.39 19.19,176.43 	"/>
	<polygon fill="none" stroke="#440002" stroke-miterlimit="10" points="360.31,58.42 376.5,30.38 360.31,2.34 327.94,2.34 
		311.75,30.38 327.94,58.42 	"/>
	<polygon fill="none" stroke="#440002" stroke-miterlimit="10" points="463.81,176.43 480,148.39 463.81,120.35 431.44,120.35 
		415.24,148.39 431.44,176.43 	"/>
	<polygon fill="none" stroke="#440002" stroke-miterlimit="10" points="463.81,236.36 480,208.32 463.81,180.28 431.44,180.28 
		415.24,208.32 431.44,236.36 	"/>
	<polygon fill="none" stroke="#440002" stroke-miterlimit="10" points="206.47,327.47 222.66,299.43 206.47,271.39 174.1,271.39 
		157.91,299.43 174.1,327.47 	"/>
	<polygon fill="none" stroke="#440002" stroke-miterlimit="10" points="257.8,357.16 273.99,329.13 257.8,301.09 225.42,301.09 
		209.23,329.13 225.42,357.16 	"/>
	<polygon fill="none" stroke="#440002" stroke-miterlimit="10" points="257.8,117.4 273.99,89.36 257.8,61.32 225.42,61.32 
		209.23,89.36 225.42,117.4 	"/>
	<polygon fill="none" stroke="#440002" stroke-miterlimit="10" points="257.56,58.08 273.76,30.04 257.56,2 225.19,2 209,30.04 
		225.19,58.08 	"/>
	<polygon fill="none" stroke="#440002" stroke-miterlimit="10" points="154.56,58.08 170.76,30.04 154.56,2 122.19,2 106,30.04 
		122.19,58.08 	"/>
	<polygon fill="none" stroke="#440002" stroke-miterlimit="10" points="51.56,58.08 67.76,30.04 51.56,2 19.19,2 3,30.04 
		19.19,58.08 	"/>
	<polygon fill="none" stroke="#440002" stroke-miterlimit="10" points="463.56,58.08 479.76,30.04 463.56,2 431.19,2 415,30.04 
		431.19,58.08 	"/>
	<polygon fill="none" stroke="#440002" stroke-miterlimit="10" points="463.56,117.08 479.76,89.04 463.56,61 431.19,61 415,89.04 
		431.19,117.08 	"/>
	<polygon fill="none" stroke="#440002" stroke-miterlimit="10" points="51.56,237.08 67.76,209.04 51.56,181 19.19,181 3,209.04 
		19.19,237.08 	"/>
</g>
<g>
	<polygon fill="none" stroke="#440002" stroke-miterlimit="10" points="276.1,387.24 259.91,359.2 276.1,331.16 308.48,331.16 
		324.67,359.2 308.48,387.24 	"/>
	<polygon fill="none" stroke="#440002" stroke-miterlimit="10" points="328.01,358.08 311.83,330.04 328.01,302 360.39,302 
		376.58,330.04 360.39,358.08 	"/>
	<polygon fill="none" stroke="#440002" stroke-miterlimit="10" points="379.59,387.24 363.39,359.2 379.59,331.16 411.96,331.16 
		428.15,359.2 411.96,387.24 	"/>
	<polygon fill="none" stroke="#440002" stroke-miterlimit="10" points="379.59,446.88 363.39,418.83 379.59,390.79 411.96,390.79 
		428.15,418.83 411.96,446.88 	"/>
	<polygon fill="none" stroke="#440002" stroke-miterlimit="10" points="328.01,477.19 311.83,449.15 328.01,421.1 360.39,421.1 
		376.58,449.15 360.39,477.19 	"/>
	<polygon fill="none" stroke="#440002" stroke-miterlimit="10" points="276.61,507.57 260.43,479.53 276.61,451.49 309,451.49 
		325.18,479.53 309,507.57 	"/>
	<polygon fill="none" stroke="#440002" stroke-miterlimit="10" points="206.47,387.24 222.66,359.2 206.47,331.16 174.09,331.16 
		157.91,359.2 174.09,387.24 	"/>
	<polygon fill="none" stroke="#440002" stroke-miterlimit="10" points="155.48,358.08 171.67,330.04 155.48,302 123.1,302 
		106.91,330.04 123.1,358.08 	"/>
	<polygon fill="none" stroke="#440002" stroke-miterlimit="10" points="103.35,387.24 119.54,359.2 103.35,331.16 70.97,331.16 
		54.78,359.2 70.97,387.24 	"/>
	<polygon fill="none" stroke="#440002" stroke-miterlimit="10" points="155.48,417.4 171.67,389.36 155.48,361.32 123.1,361.32 
		106.91,389.36 123.1,417.4 	"/>
	<polygon fill="none" stroke="#440002" stroke-miterlimit="10" points="206.47,446.88 222.66,418.83 206.47,390.79 174.1,390.79 
		157.91,418.83 174.1,446.88 	"/>
	<polygon fill="none" stroke="#440002" stroke-miterlimit="10" points="257.8,477.19 273.99,449.15 257.8,421.1 225.42,421.1 
		209.23,449.15 225.42,477.19 	"/>
	<polygon fill="none" stroke="#440002" stroke-miterlimit="10" points="308.48,446.88 324.67,418.83 308.48,390.79 276.1,390.79 
		259.91,418.83 276.1,446.88 	"/>
	<polygon fill="none" stroke="#440002" stroke-miterlimit="10" points="360.39,417.4 376.58,389.36 360.39,361.32 328.01,361.32 
		311.83,389.36 328.01,417.4 	"/>
	<polygon fill="none" stroke="#440002" stroke-miterlimit="10" points="103.35,446.88 119.54,418.83 103.35,390.79 70.97,390.79 
		54.78,418.83 70.97,446.88 	"/>
	<polygon fill="none" stroke="#440002" stroke-miterlimit="10" points="379.59,506.81 363.39,478.76 379.59,450.72 411.96,450.72 
		428.15,478.76 411.96,506.81 	"/>
	<polygon fill="none" stroke="#440002" stroke-miterlimit="10" points="379.59,566.74 363.39,538.7 379.59,510.66 411.96,510.66 
		428.15,538.7 411.96,566.74 	"/>
	<polygon fill="none" stroke="#440002" stroke-miterlimit="10" points="103.35,506.81 119.54,478.76 103.35,450.72 70.97,450.72 
		54.78,478.76 70.97,506.81 	"/>
	<polygon fill="none" stroke="#440002" stroke-miterlimit="10" points="103.35,566.74 119.54,538.7 103.35,510.66 70.97,510.66 
		54.78,538.7 70.97,566.74 	"/>
	<polygon fill="none" stroke="#440002" stroke-miterlimit="10" points="50.57,535.98 66.75,507.95 50.57,479.9 18.19,479.9 
		2,507.95 18.19,535.98 	"/>
	<polygon fill="none" stroke="#440002" stroke-miterlimit="10" points="155.48,477.19 171.67,449.15 155.48,421.1 123.1,421.1 
		106.91,449.15 123.1,477.19 	"/>
	<polygon fill="none" stroke="#440002" stroke-miterlimit="10" points="206.47,507.22 222.66,479.18 206.47,451.14 174.1,451.14 
		157.91,479.18 174.1,507.22 	"/>
	<polygon fill="none" stroke="#440002" stroke-miterlimit="10" points="257.8,537.27 273.99,509.23 257.8,481.19 225.42,481.19 
		209.23,509.23 225.42,537.27 	"/>
	<polygon fill="none" stroke="#440002" stroke-miterlimit="10" points="328.01,537.11 311.83,509.08 328.01,481.04 360.39,481.04 
		376.58,509.08 360.39,537.11 	"/>
	<polygon fill="none" stroke="#440002" stroke-miterlimit="10" points="276.1,567.5 259.91,539.47 276.1,511.42 308.48,511.42 
		324.67,539.47 308.48,567.5 	"/>
	<polygon fill="none" stroke="#440002" stroke-miterlimit="10" points="155.48,537.11 171.67,509.08 155.48,481.04 123.1,481.04 
		106.91,509.08 123.1,537.11 	"/>
	<polygon fill="none" stroke="#440002" stroke-miterlimit="10" points="206.47,567.5 222.66,539.47 206.47,511.42 174.1,511.42 
		157.91,539.47 174.1,567.5 	"/>
	<polygon fill="none" stroke="#440002" stroke-miterlimit="10" points="257.8,597.21 273.99,569.16 257.8,541.13 225.42,541.13 
		209.23,569.16 225.42,597.21 	"/>
	<polygon fill="none" stroke="#440002" stroke-miterlimit="10" points="328.01,597.08 311.83,569.04 328.01,541 360.39,541 
		376.58,569.04 360.39,597.08 	"/>
	<polygon fill="none" stroke="#440002" stroke-miterlimit="10" points="277.1,627.47 260.91,599.43 277.1,571.39 309.48,571.39 
		325.67,599.43 309.48,627.47 	"/>
	<polygon fill="none" stroke="#440002" stroke-miterlimit="10" points="155.48,597.08 171.67,569.04 155.48,541 123.1,541 
		106.91,569.04 123.1,597.08 	"/>
	<polygon fill="none" stroke="#440002" stroke-miterlimit="10" points="50.57,416.47 66.75,388.42 50.57,360.38 18.19,360.38 
		2,388.42 18.19,416.47 	"/>
	<polygon fill="none" stroke="#440002" stroke-miterlimit="10" points="50.57,476.43 66.75,448.39 50.57,420.35 18.19,420.35 
		2,448.39 18.19,476.43 	"/>
	<polygon fill="none" stroke="#440002" stroke-miterlimit="10" points="463.81,416.47 480,388.42 463.81,360.38 431.44,360.38 
		415.24,388.42 431.44,416.47 	"/>
	<polygon fill="none" stroke="#440002" stroke-miterlimit="10" points="463.81,476.43 480,448.39 463.81,420.35 431.44,420.35 
		415.24,448.39 431.44,476.43 	"/>
	<polygon fill="none" stroke="#440002" stroke-miterlimit="10" points="102.67,625.87 118.86,597.83 102.67,569.79 70.3,569.79 
		54.1,597.83 70.3,625.87 	"/>
	<polygon fill="none" stroke="#440002" stroke-miterlimit="10" points="206.47,627.47 222.66,599.43 206.47,571.39 174.1,571.39 
		157.91,599.43 174.1,627.47 	"/>
	<polygon fill="none" stroke="#440002" stroke-miterlimit="10" points="257.8,417.4 273.99,389.36 257.8,361.32 225.42,361.32 
		209.23,389.36 225.42,417.4 	"/>
	<polygon fill="none" stroke="#440002" stroke-miterlimit="10" points="50.57,595.98 66.75,567.95 50.57,539.9 18.19,539.9 
		2,567.95 18.19,595.98 	"/>
	<polygon fill="none" stroke="#440002" stroke-miterlimit="10" points="463.81,595.98 480,567.95 463.81,539.9 431.43,539.9 
		415.25,567.95 431.43,595.98 	"/>
	<polygon fill="none" stroke="#440002" stroke-miterlimit="10" points="463.81,535.98 480,507.95 463.81,479.9 431.43,479.9 
		415.25,507.95 431.43,535.98 	"/>
	<polygon fill="none" stroke="#440002" stroke-miterlimit="10" points="412.57,626.08 428.75,598.05 412.57,570 380.19,570 
		364,598.05 380.19,626.08 	"/>
</g>
<polygon fill="none" stroke="#440002" stroke-miterlimit="10" points="431.44,296.83 415.24,268.79 431.44,240.75 463.81,240.75 
	480,268.79 463.81,296.83 "/>
<polygon fill="none" stroke="#440002" stroke-miterlimit="10" points="379.55,327.14 363.36,299.1 379.55,271.05 411.93,271.05 
	428.11,299.1 411.93,327.14 "/>
<polygon fill="none" stroke="#440002" stroke-miterlimit="10" points="431.44,356.76 415.24,328.71 431.44,300.68 463.81,300.68 
	480,328.71 463.81,356.76 "/>
<polygon fill="none" stroke="#440002" stroke-miterlimit="10" points="51.21,300.93 67.4,328.97 51.21,357.01 18.84,357.01 
	2.64,328.97 18.84,300.93 "/>
<polygon fill="none" stroke="#440002" stroke-miterlimit="10" points="103.1,270.62 119.28,298.66 103.1,326.71 70.71,326.71 
	54.53,298.66 70.71,270.62 "/>
<polygon fill="none" stroke="#440002" stroke-miterlimit="10" points="51.21,241 67.4,269.04 51.21,297.08 18.84,297.08 
	2.64,269.04 18.84,241 "/>
</svg>
