<?xml version="1.0" encoding="utf-8"?>
<!-- Generator: Adobe Illustrator 15.0.2, SVG Export Plug-In . SVG Version: 6.00 Build 0)  -->
<!DOCTYPE svg PUBLIC "-//W3C//DTD SVG 1.1//EN" "http://www.w3.org/Graphics/SVG/1.1/DTD/svg11.dtd">
<svg version="1.1" xmlns="http://www.w3.org/2000/svg" xmlns:xlink="http://www.w3.org/1999/xlink" x="0px" y="0px" width="66.79px"
	 height="128px" viewBox="0 0 66.79 128" enable-background="new 0 0 66.79 128" xml:space="preserve">
<g id="Layer_1">
</g>
<g id="Layer_2">
	<path fill="#B01817" d="M1.34,56.68c0,0-3.61,40.56,8.97,50.33c3.14,2.09,8.23,0.6,8.23,0.6s5.57,5.63,14.41-0.44
		c2.94,2.18,7.04,4.44,14.05-0.08c2.44,0.7,5.61,4.23,12.22-2.1c2.73-4.07,6.74-9.38,6.57-44.13c0,0,0.54-0.99,0.59,1.26
		c0.3,13.65,4.18,67.9-33.82,65.81c0,0-37.79,2.28-31.95-67.77C0.91,56.61,0.85,57.66,1.34,56.68z"/>
	<path fill="#B01817" d="M0.81,63.68c0,0,2.54-40.92,32.05-40.92c0,0,33.11,0.52,33.11,43.29c0,0,3.27-20.19-3.19-36.17
		c0,0,2.21-1.53,2.73-1.36c0.52,0.17-2.1-2.1-2.1-2.1l2.27,0.87l-1.75-1.57l2.62,0.35c0,0-1.4-2.79-5.76-3.14
		c-4.37-0.35-7.16,1.57-7.16,1.57s4.92-6.6-1.06-11.7c-4.24-3.61-1.91-6.11-1.91-6.11s-1.92-0.35-1.92,4.02
		c0,4.37-2.27-3.84-2.27-3.84l-1.4,0.52l-2.27-5.59l-0.35,1.22l-2.1,1.05l0.35,2.44L37.57,3.9c0,0-2.97-1.75-2.1-3.32
		c0.87-1.57-1.57,0.52-1.57,0.52L34.96,6c0,0,0,4.37-1.05,4.19c-1.05-0.17-4.89-5.24-4.89-5.24L24.48,3.9l-1.4-1.75l1.84,3.98
		L23.1,5.15L19.76,4.6l1.84,4.18c0,0-1.56,2.67-4.45,2.23c-2.95-0.45,3.84,3.37,3.84,3.37s-5.76-1.54-6.28,1.08l3.84,1.71
		c0,0-8.18,0.33-9.41,2.07l5.22,1.56l-9,3.97h5.12l0.35,0.5C10.82,25.27-0.97,24.05,0.81,63.68z"/>
	<path fill="#B01817" d="M24.56,55.67c0,0-14.22-7.24-17.37,0.62c0,0-2.62,0.62-0.52-3.14c0,0,2.06-3.27,6.81-3.67l6.46,1.4
		l-0.43-0.9c0,0,1.93,0.15,4.27,1.94l1.47-0.96c0,0,0.15,0.87,0.79,1.29c1.04,0.67,2.77-0.79,2.28,2.11L24.56,55.67z"/>
	<path fill="#B01817" d="M42.07,55.07c0,0,14.8-7.39,17.95,0.47c0,0,2.62,0.62,0.52-3.14c0,0-2.06-3.27-6.81-3.67
		c0,0-5.23-0.24-7.41,0.95c-1.48,0.81-1.13-0.08-1.13-0.08s-0.45-0.21-1.64,1.08l-1.58-0.89c0,0-0.16,1.31-0.8,1.73
		c-1.04,0.67-2.77-0.79-2.28,2.11L42.07,55.07z"/>
	<path fill="#B01817" d="M31.42,86.02c-1.83-0.1-3.31,0.92-7.49,2.63c-3.71,1.52-4.68,2.3-4.68,2.3s-1.67,1.22-2.77,3.31
		c-1.85,3.52,1.34,4.23,1.34,4.23s0.91,0.03,2.45-1.56c1.55-1.59,2.32-2.13,5.66-3.46c3.34-1.34,4.17-1.58,5.47-1.88
		C32.91,91.25,32.83,86.09,31.42,86.02z"/>
	<path fill="#B01817" d="M35.19,85.87c1.83-0.1,3.43,0.79,7.61,2.34c3.4,1.26,4.58,2.11,4.58,2.11s1.89,1.35,2.86,3.5
		c0.85,1.88-0.93,3.47-0.93,3.47s-1.56,0.37-2.85-0.8c-1.64-1.49-2.32-2.13-5.66-3.46c-3.34-1.34-4.17-1.58-5.47-1.88
		C33.81,90.8,33.78,85.94,35.19,85.87z"/>
</g>
</svg>
